<?xml version="1.0" encoding="utf-8"?>
<!-- Generator: Adobe Illustrator 19.0.0, SVG Export Plug-In . SVG Version: 6.00 Build 0)  -->
<svg version="1.1" id="Layer_1" xmlns="http://www.w3.org/2000/svg" xmlns:xlink="http://www.w3.org/1999/xlink" x="0px" y="0px"
	 viewBox="0 0 330.4 196.9" style="enable-background:new 0 0 330.4 196.9;" xml:space="preserve">
<style type="text/css">
	.st0{fill:#010101;}
	.st1{fill-rule:evenodd;clip-rule:evenodd;fill:#BFB4B4;}
	.st2{fill-rule:evenodd;clip-rule:evenodd;fill:#801C1F;}
	.st3{fill:none;stroke:#383434;stroke-width:0.5;stroke-miterlimit:2.6131;}
	.st4{fill-rule:evenodd;clip-rule:evenodd;fill:#C44846;}
	.st5{fill-rule:evenodd;clip-rule:evenodd;fill:#C54846;}
	.st6{fill-rule:evenodd;clip-rule:evenodd;fill:#BD3C3C;}
	.st7{fill-rule:evenodd;clip-rule:evenodd;fill:#AFB0B3;}
	.st8{fill-rule:evenodd;clip-rule:evenodd;fill:#7F2126;}
	.st9{fill-rule:evenodd;clip-rule:evenodd;fill:#7A1317;}
	.st10{fill-rule:evenodd;clip-rule:evenodd;fill:#E9E9EA;}
	.st11{fill:#4C2C2F;}
	.st12{font-family:'PoiretOne-Regular';}
	.st13{font-size:37px;}
</style>
<g id="XMLID_29_">
	<g id="XMLID_2_">
		<path id="XMLID_7_" class="st0" d="M-1106.9-132.1l-8.7-6.2l-10.9-11.3c-13-13.4-31.1-20.1-49.7-18.4
			c-18.6,1.7-35.2,11.6-45.5,27.2l-5.9,8.9c-13.8,20.8-19.8,46-16.9,70.8l0.4,3c-4.8,1.8-19.7,8-32.5,20.2c-0.8,0.8-0.8,2-0.1,2.8
			c0.4,0.4,0.9,0.6,1.4,0.6c0.5,0,1-0.2,1.4-0.6c14.5-13.8,32.4-19.8,32.6-19.9c0.9-0.3,1.5-1.2,1.4-2.1l-0.5-4.6
			c-2.3-19.7,1.2-39.7,10-57.3c2.6,14.6,8.3,26.8,16.9,36.6c7.8,8.9,18,15.7,30.2,20.2c14.6,5.4,28.6,6.2,35.8,6.2
			c2.2,0,3.7-0.1,4.5-0.1c1.1,0.5,2.7,1.1,4.7,1.6c2.4,2.8,16,19,25.6,37.3c0.4,0.7,1.1,1.1,1.8,1.1c0.3,0,0.6-0.1,0.9-0.2
			c1-0.5,1.4-1.7,0.8-2.7c-7.5-14.3-17.4-27.4-22.7-34c20,3.9,56.8,6.9,61.9,7.3c0.1,0,0.1,0,0.2,0c0.8,0,1.5-0.5,1.8-1.2
			c0.1-0.2,0.1-0.4,0.2-0.6c0,0,0,0,0,0C-1065-80.5-1079.9-112.9-1106.9-132.1z M-1071.6-52.1c-2.9-2.6-7.7-6.8-14-11.6
			c0.6-1,1.1-2.2,1.7-3.3c3.8-8.9,4.4-19.4,1.6-31.4C-1074.8-84.3-1070.9-68.3-1071.6-52.1z M-1090.5-110.9
			c6.7,16.9,7.7,31.1,2.9,42.2c-0.4,0.9-0.8,1.8-1.3,2.6c-8.2-6-18.4-12.7-29.7-18.2c0-1.5-0.3-3-1-4.5c-0.4-0.8-0.8-1.5-1.1-2
			c4.1-8,5.5-14.8,4.3-20.7c-2.2-11.5-1.2-18.8,0.1-22.3l6.9,4.9C-1102-123.7-1095.8-117.7-1090.5-110.9z M-1132-77.9
			C-1132-77.9-1132-77.9-1132-77.9c-3.4,0-7-1.3-11.2-4.2c4-4.3,8.7-7.5,12.2-9.6c0.7-0.4,1.5-0.6,2.3-0.6c1.4,0,2.7,0.6,3.5,1.7
			l0.8,1c0.2,0.3,0.7,1.3,1.4,2.6c1.3,2.6,0.4,5.7-2,7.1C-1127.4-78.6-1129.7-77.9-1132-77.9z M-1224.2-129.6l5.9-8.9
			c9.6-14.5,25.1-23.8,42.5-25.4c17.4-1.6,34.3,4.7,46.4,17.2l10,10.3c-0.5,1.1-1.1,2.7-1.5,5c-0.1,0.8-0.3,1.5-0.4,2.3
			c-6.7-6.5-23.4-20.3-45.5-21.3c-14.2-0.7-23,6.2-31.6,12.9c-8.1,6.3-15.9,12.4-27.7,10.9C-1225.5-127.6-1224.9-128.6-1224.2-129.6
			z M-1181.9-65.9c-11.6-4.3-21.3-10.7-28.6-19c-8.7-9.9-14.2-22.6-16.5-37.8c1.6,0.2,3.1,0.3,4.5,0.3c11.2,0,18.9-6.1,26.5-11.9
			c8.4-6.5,16.3-12.7,29-12.1c24.4,1.2,42.3,19.4,45.4,22.8c0,3.9,0.5,8.2,1.4,13c0.9,4.6-0.1,10-3.2,16.4c-1.5-1.3-3.4-2-5.5-2
			c-1.5,0-3,0.4-4.3,1.2c-4.1,2.5-10,6.6-14.7,12.1c-0.4,0.4-0.5,1-0.5,1.5c0.1,0.5,0.4,1,0.8,1.4c4.2,3.1,8,5,11.5,5.8
			c-3.9,5.5-7.2,10.4-8.3,14.4C-1149-59.8-1165.2-59.7-1181.9-65.9z M-1131.7-73.4l0.4-0.6c2.8-0.1,5.5-0.9,8.2-2.5
			c1.6-0.9,2.8-2.3,3.6-3.9c10.9,5.4,20.6,11.8,28.5,17.7c-4.5,6.2-9.9,9.1-11.5,9.8c-16-1.8-32.1-4.1-37.8-6.3
			C-1139.1-62.7-1135.5-67.9-1131.7-73.4z M-1095.8-52.1c2.5-1.8,5.4-4.4,8.1-8.1c5.2,4,9.4,7.5,12.2,10
			C-1081.2-50.7-1088.3-51.4-1095.8-52.1z"/>
		<path id="XMLID_3_" class="st0" d="M-1156.3-139.4c-0.8,0.2-1.4,0.8-1.5,1.6c-1.9,9.4-7.5,15.9-16,18.5
			c-8.2-1.9-18.5-2.9-29.8-0.8c-1.1,0.2-1.8,1.2-1.6,2.3c0.2,1.1,1.3,1.8,2.3,1.6c9.5-1.8,18.4-1.2,25.8,0.3
			c0.5,0.1,4.6,1.1,5.3,1.2c9.4,2.6,15.4,6.1,15.5,6.2c0.3,0.2,0.7,0.3,1,0.3c0.5,0,1-0.2,1.4-0.6c0.1-0.1,12-12.7-0.5-29.9
			C-1154.7-139.2-1155.5-139.5-1156.3-139.4z M-1155.7-112.6c-2.1-1.1-6.2-3.1-11.9-4.9c1.1-0.6,2.1-1.2,3-1.9
			c2.9,3.5,7.3,4.4,10.2,4.6C-1154.8-114-1155.3-113.2-1155.7-112.6z M-1152.9-118.9c-2.1,0-6.1-0.3-8.6-3.3
			c2.8-2.8,4.9-6.3,6.4-10.4C-1152.3-127.1-1152.2-122.4-1152.9-118.9z"/>
	</g>
	<text id="XMLID_28_" transform="matrix(1 0 0 1 -1023.1922 -103.1814)"><tspan x="0" y="0" class="st13" style="font-family:'DancingScript-Regular';">The</tspan><tspan x="0" y="44.4" class="st13" style="font-family:'DancingScript-Regular';">Traveling Maude</tspan></text>
</g>
<g id="XMLID_56_">
	<g id="XMLID_58_">
		<path id="XMLID_63_" class="st0" d="M-1106.9-482.2l-8.7-6.2l-10.9-11.3c-13-13.4-31.1-20.1-49.7-18.4
			c-18.6,1.7-35.2,11.6-45.5,27.2l-5.9,8.9c-13.8,20.8-19.8,46-16.9,70.8l0.4,3c-4.8,1.8-19.7,8-32.5,20.2c-0.8,0.8-0.8,2-0.1,2.8
			c0.4,0.4,0.9,0.6,1.4,0.6c0.5,0,1-0.2,1.4-0.6c14.5-13.8,32.4-19.8,32.6-19.9c0.9-0.3,1.5-1.2,1.4-2.1l-0.5-4.6
			c-2.3-19.7,1.2-39.7,10-57.3c2.6,14.6,8.3,26.8,16.9,36.6c7.8,8.9,18,15.7,30.2,20.2c14.6,5.4,28.6,6.2,35.8,6.2
			c2.2,0,3.7-0.1,4.5-0.1c1.1,0.5,2.7,1.1,4.7,1.6c2.4,2.8,16,19,25.6,37.3c0.4,0.7,1.1,1.1,1.8,1.1c0.3,0,0.6-0.1,0.9-0.2
			c1-0.5,1.4-1.7,0.8-2.7c-7.5-14.3-17.4-27.4-22.7-34c20,3.9,56.8,6.9,61.9,7.3c0.1,0,0.1,0,0.2,0c0.8,0,1.5-0.5,1.8-1.2
			c0.1-0.2,0.1-0.4,0.2-0.6c0,0,0,0,0,0C-1065-430.6-1079.9-463-1106.9-482.2z M-1071.6-402.2c-2.9-2.6-7.7-6.8-14-11.6
			c0.6-1,1.1-2.2,1.7-3.3c3.8-8.9,4.4-19.4,1.6-31.4C-1074.8-434.4-1070.9-418.5-1071.6-402.2z M-1090.5-461
			c6.7,16.9,7.7,31.1,2.9,42.2c-0.4,0.9-0.8,1.8-1.3,2.6c-8.2-6-18.4-12.7-29.7-18.2c0-1.5-0.3-3-1-4.5c-0.4-0.8-0.8-1.5-1.1-2
			c4.1-8,5.5-14.8,4.3-20.7c-2.2-11.5-1.2-18.8,0.1-22.3l6.9,4.9C-1102-473.8-1095.8-467.8-1090.5-461z M-1132-428
			C-1132-428-1132-428-1132-428c-3.4,0-7-1.3-11.2-4.2c4-4.3,8.7-7.5,12.2-9.6c0.7-0.4,1.5-0.6,2.3-0.6c1.4,0,2.7,0.6,3.5,1.7l0.8,1
			c0.2,0.3,0.7,1.3,1.4,2.6c1.3,2.6,0.4,5.7-2,7.1C-1127.4-428.7-1129.7-428-1132-428z M-1224.2-479.7l5.9-8.9
			c9.6-14.5,25.1-23.8,42.5-25.4c17.4-1.6,34.3,4.7,46.4,17.2l10,10.3c-0.5,1.1-1.1,2.7-1.5,5c-0.1,0.8-0.3,1.5-0.4,2.3
			c-6.7-6.5-23.4-20.3-45.5-21.3c-14.2-0.7-23,6.2-31.6,12.9c-8.1,6.3-15.9,12.4-27.7,10.9C-1225.5-477.7-1224.9-478.7-1224.2-479.7
			z M-1181.9-416c-11.6-4.3-21.3-10.7-28.6-19c-8.7-9.9-14.2-22.6-16.5-37.8c1.6,0.2,3.1,0.3,4.5,0.3c11.2,0,18.9-6.1,26.5-11.9
			c8.4-6.5,16.3-12.7,29-12.1c24.4,1.2,42.3,19.4,45.4,22.8c0,3.9,0.5,8.2,1.4,13c0.9,4.6-0.1,10-3.2,16.4c-1.5-1.3-3.4-2-5.5-2
			c-1.5,0-3,0.4-4.3,1.2c-4.1,2.5-10,6.6-14.7,12.1c-0.4,0.4-0.5,1-0.5,1.5c0.1,0.5,0.4,1,0.8,1.4c4.2,3.1,8,5,11.5,5.8
			c-3.9,5.5-7.2,10.4-8.3,14.4C-1149-409.9-1165.2-409.8-1181.9-416z M-1131.7-423.5l0.4-0.6c2.8-0.1,5.5-0.9,8.2-2.5
			c1.6-0.9,2.8-2.3,3.6-3.9c10.9,5.4,20.6,11.8,28.5,17.7c-4.5,6.2-9.9,9.1-11.5,9.8c-16-1.8-32.1-4.1-37.8-6.3
			C-1139.1-412.9-1135.5-418-1131.7-423.5z M-1095.8-402.2c2.5-1.8,5.4-4.4,8.1-8.1c5.2,4,9.4,7.5,12.2,10
			C-1081.2-400.8-1088.3-401.5-1095.8-402.2z"/>
		<path id="XMLID_59_" class="st0" d="M-1156.3-489.5c-0.8,0.2-1.4,0.8-1.5,1.6c-1.9,9.4-7.5,15.9-16,18.5
			c-8.2-1.9-18.5-2.9-29.8-0.8c-1.1,0.2-1.8,1.2-1.6,2.3c0.2,1.1,1.3,1.8,2.3,1.6c9.5-1.8,18.4-1.2,25.8,0.3
			c0.5,0.1,4.6,1.1,5.3,1.2c9.4,2.6,15.4,6.1,15.5,6.2c0.3,0.2,0.7,0.3,1,0.3c0.5,0,1-0.2,1.4-0.6c0.1-0.1,12-12.7-0.5-29.9
			C-1154.7-489.3-1155.5-489.6-1156.3-489.5z M-1155.7-462.7c-2.1-1.1-6.2-3.1-11.9-4.9c1.1-0.6,2.1-1.2,3-1.9
			c2.9,3.5,7.3,4.4,10.2,4.6C-1154.8-464.1-1155.3-463.3-1155.7-462.7z M-1152.9-469c-2.1,0-6.1-0.3-8.6-3.3
			c2.8-2.8,4.9-6.3,6.4-10.4C-1152.3-477.2-1152.2-472.5-1152.9-469z"/>
	</g>
	<text id="XMLID_57_" transform="matrix(1 0 0 1 -1023.1922 -453.2867)"><tspan x="0" y="0" class="st12 st13">The</tspan><tspan x="0" y="44.4" class="st12 st13">Traveling Maude</tspan></text>
</g>
<g id="XMLID_124_">
	<g id="XMLID_156_">
		<g id="XMLID_126_">
			<path id="XMLID_131_" class="st0" d="M-537.3-482.2l-8.7-6.2l-10.9-11.3c-13-13.4-31.1-20.1-49.7-18.4
				c-18.6,1.7-35.2,11.6-45.5,27.2l-5.9,8.9c-13.8,20.8-19.8,46-16.9,70.8l0.4,3c-4.8,1.8-19.7,8-32.5,20.2c-0.8,0.8-0.8,2-0.1,2.8
				c0.4,0.4,0.9,0.6,1.4,0.6c0.5,0,1-0.2,1.4-0.6c14.5-13.8,32.4-19.8,32.6-19.9c0.9-0.3,1.5-1.2,1.4-2.1l-0.5-4.6
				c-2.3-19.7,1.2-39.7,10-57.3c2.6,14.6,8.3,26.8,16.9,36.6c7.8,8.9,18,15.7,30.2,20.2c14.6,5.4,28.6,6.2,35.8,6.2
				c2.2,0,3.7-0.1,4.5-0.1c1.1,0.5,2.7,1.1,4.7,1.6c2.4,2.8,16,19,25.6,37.3c0.4,0.7,1.1,1.1,1.8,1.1c0.3,0,0.6-0.1,0.9-0.2
				c1-0.5,1.4-1.7,0.8-2.7c-7.5-14.3-17.4-27.4-22.7-34c20,3.9,56.8,6.9,61.9,7.3c0.1,0,0.1,0,0.2,0c0.8,0,1.5-0.5,1.8-1.2
				c0.1-0.2,0.1-0.4,0.2-0.6c0,0,0,0,0,0C-495.3-430.6-510.3-463-537.3-482.2z M-502-402.2c-2.9-2.6-7.7-6.8-14-11.6
				c0.6-1,1.1-2.2,1.7-3.3c3.8-8.9,4.4-19.4,1.6-31.4C-505.1-434.4-501.3-418.5-502-402.2z M-520.8-461c6.7,16.9,7.7,31.1,2.9,42.2
				c-0.4,0.9-0.8,1.8-1.3,2.6c-8.2-6-18.4-12.7-29.7-18.2c0-1.5-0.3-3-1-4.5c-0.4-0.8-0.8-1.5-1.1-2c4.1-8,5.5-14.8,4.3-20.7
				c-2.2-11.5-1.2-18.8,0.1-22.3l6.9,4.9C-532.4-473.8-526.1-467.8-520.8-461z M-562.3-428C-562.3-428-562.3-428-562.3-428
				c-3.4,0-7-1.3-11.2-4.2c4-4.3,8.7-7.5,12.2-9.6c0.7-0.4,1.5-0.6,2.3-0.6c1.4,0,2.7,0.6,3.5,1.7l0.8,1c0.2,0.3,0.7,1.3,1.4,2.6
				c1.3,2.6,0.4,5.7-2,7.1C-557.7-428.7-560-428-562.3-428z M-654.6-479.7l5.9-8.9c9.6-14.5,25.1-23.8,42.5-25.4
				c17.4-1.6,34.3,4.7,46.4,17.2l10,10.3c-0.5,1.1-1.1,2.7-1.5,5c-0.1,0.8-0.3,1.5-0.4,2.3c-6.7-6.5-23.4-20.3-45.5-21.3
				c-14.2-0.7-23,6.2-31.6,12.9c-8.1,6.3-15.9,12.4-27.7,10.9C-655.9-477.7-655.2-478.7-654.6-479.7z M-612.3-416
				c-11.6-4.3-21.3-10.7-28.6-19c-8.7-9.9-14.2-22.6-16.5-37.8c1.6,0.2,3.1,0.3,4.5,0.3c11.2,0,18.9-6.1,26.5-11.9
				c8.4-6.5,16.3-12.7,29-12.1c24.4,1.2,42.3,19.4,45.4,22.8c0,3.9,0.5,8.2,1.4,13c0.9,4.6-0.1,10-3.2,16.4c-1.5-1.3-3.4-2-5.5-2
				c-1.5,0-3,0.4-4.3,1.2c-4.1,2.5-10,6.6-14.7,12.1c-0.4,0.4-0.5,1-0.5,1.5c0.1,0.5,0.4,1,0.8,1.4c4.2,3.1,8,5,11.5,5.8
				c-3.9,5.5-7.2,10.4-8.3,14.4C-579.4-409.9-595.5-409.8-612.3-416z M-562-423.5l0.4-0.6c2.8-0.1,5.5-0.9,8.2-2.5
				c1.6-0.9,2.8-2.3,3.6-3.9c10.9,5.4,20.6,11.8,28.5,17.7c-4.5,6.2-9.9,9.1-11.5,9.8c-16-1.8-32.1-4.1-37.8-6.3
				C-569.5-412.9-565.8-418-562-423.5z M-526.2-402.2c2.5-1.8,5.4-4.4,8.1-8.1c5.2,4,9.4,7.5,12.2,10
				C-511.6-400.8-518.7-401.5-526.2-402.2z"/>
			<path id="XMLID_127_" class="st0" d="M-586.7-489.5c-0.8,0.2-1.4,0.8-1.5,1.6c-1.9,9.4-7.5,15.9-16,18.5
				c-8.2-1.9-18.5-2.9-29.8-0.8c-1.1,0.2-1.8,1.2-1.6,2.3c0.2,1.1,1.3,1.8,2.3,1.6c9.5-1.8,18.4-1.2,25.8,0.3
				c0.5,0.1,4.6,1.1,5.3,1.2c9.4,2.6,15.4,6.1,15.5,6.2c0.3,0.2,0.7,0.3,1,0.3c0.5,0,1-0.2,1.4-0.6c0.1-0.1,12-12.7-0.5-29.9
				C-585.1-489.3-585.9-489.6-586.7-489.5z M-586.1-462.7c-2.1-1.1-6.2-3.1-11.9-4.9c1.1-0.6,2.1-1.2,3-1.9
				c2.9,3.5,7.3,4.4,10.2,4.6C-585.2-464.1-585.7-463.3-586.1-462.7z M-583.3-469c-2.1,0-6.1-0.3-8.6-3.3c2.8-2.8,4.9-6.3,6.4-10.4
				C-582.6-477.2-582.5-472.5-583.3-469z"/>
		</g>
		<text id="XMLID_125_" transform="matrix(1 0 0 1 -707.5746 -323.5754)"><tspan x="0" y="0" class="st12 st13">The</tspan><tspan x="0" y="44.4" class="st12 st13">Traveling Maude</tspan></text>
	</g>
	<g id="XMLID_140_">
		<g id="XMLID_142_">
			<path id="XMLID_147_" class="st0" d="M-225.6-482.2l-8.7-6.2l-10.9-11.3c-13-13.4-31.1-20.1-49.7-18.4
				c-18.6,1.7-35.2,11.6-45.5,27.2l-5.9,8.9c-13.8,20.8-19.8,46-16.9,70.8l0.4,3c-4.8,1.8-19.7,8-32.5,20.2c-0.8,0.8-0.8,2-0.1,2.8
				c0.4,0.4,0.9,0.6,1.4,0.6c0.5,0,1-0.2,1.4-0.6c14.5-13.8,32.4-19.8,32.6-19.9c0.9-0.3,1.5-1.2,1.4-2.1l-0.5-4.6
				c-2.3-19.7,1.2-39.7,10-57.3c2.6,14.5,8.3,26.8,16.9,36.6c7.8,8.9,18,15.7,30.2,20.2c14.6,5.4,28.6,6.2,35.8,6.2
				c2.2,0,3.7-0.1,4.5-0.1c1.1,0.5,2.7,1.1,4.7,1.6c2.4,2.8,16,19,25.6,37.3c0.4,0.7,1.1,1.1,1.8,1.1c0.3,0,0.6-0.1,0.9-0.2
				c1-0.5,1.4-1.7,0.8-2.7c-7.5-14.3-17.4-27.4-22.7-34c20,3.9,56.8,6.9,61.9,7.3c0.1,0,0.1,0,0.2,0c0.8,0,1.5-0.5,1.8-1.2
				c0.1-0.2,0.1-0.4,0.2-0.6c0,0,0,0,0,0C-183.7-430.6-198.6-463-225.6-482.2z M-190.3-402.2c-2.9-2.6-7.7-6.8-14-11.6
				c0.6-1,1.1-2.2,1.7-3.3c3.8-8.9,4.4-19.4,1.6-31.4C-193.5-434.4-189.6-418.5-190.3-402.2z M-209.2-461
				c6.7,16.9,7.7,31.1,2.9,42.2c-0.4,0.9-0.8,1.8-1.3,2.6c-8.2-6-18.4-12.7-29.7-18.2c0-1.5-0.3-3-1-4.5c-0.4-0.8-0.8-1.5-1.1-2
				c4.1-8,5.5-14.8,4.3-20.7c-2.2-11.5-1.2-18.8,0.1-22.3l6.9,4.9C-220.7-473.8-214.5-467.8-209.2-461z M-250.7-428
				C-250.7-428-250.7-428-250.7-428c-3.4,0-7-1.3-11.2-4.2c4-4.3,8.7-7.5,12.2-9.6c0.7-0.4,1.5-0.6,2.3-0.6c1.4,0,2.7,0.6,3.5,1.7
				l0.8,1c0.2,0.3,0.7,1.3,1.4,2.6c1.3,2.6,0.4,5.7-2,7.1C-246.1-428.7-248.4-428-250.7-428z M-342.9-479.7l5.9-8.9
				c9.6-14.5,25.1-23.8,42.5-25.4c17.4-1.6,34.3,4.7,46.4,17.2l10,10.3c-0.5,1.1-1.1,2.7-1.5,5c-0.1,0.8-0.3,1.5-0.4,2.3
				c-6.7-6.5-23.4-20.3-45.5-21.3c-14.2-0.7-23,6.2-31.6,12.9c-8.1,6.3-15.9,12.4-27.7,10.9C-344.2-477.7-343.6-478.7-342.9-479.7z
				 M-300.6-416c-11.6-4.3-21.3-10.7-28.6-19c-8.7-9.9-14.2-22.6-16.5-37.8c1.6,0.2,3.1,0.3,4.5,0.3c11.2,0,18.9-6.1,26.5-11.9
				c8.4-6.5,16.3-12.7,29-12.1c24.4,1.2,42.3,19.4,45.4,22.8c0,3.9,0.5,8.2,1.4,13c0.9,4.6-0.1,10-3.2,16.4c-1.5-1.3-3.4-2-5.5-2
				c-1.5,0-3,0.4-4.3,1.2c-4.1,2.5-10,6.6-14.7,12.1c-0.4,0.4-0.5,1-0.5,1.5c0.1,0.5,0.4,1,0.8,1.4c4.2,3.1,8,5,11.5,5.8
				c-3.9,5.5-7.2,10.4-8.3,14.4C-267.7-409.9-283.9-409.8-300.6-416z M-250.4-423.5l0.4-0.6c2.8-0.1,5.5-0.9,8.2-2.5
				c1.6-0.9,2.8-2.3,3.6-3.9c10.9,5.4,20.6,11.8,28.5,17.7c-4.5,6.2-9.9,9.1-11.5,9.8c-16-1.8-32.1-4.1-37.8-6.3
				C-257.8-412.9-254.2-418-250.4-423.5z M-214.5-402.2c2.5-1.8,5.4-4.4,8.1-8.1c5.2,4,9.4,7.5,12.2,10
				C-199.9-400.8-207-401.5-214.5-402.2z"/>
			<path id="XMLID_143_" class="st0" d="M-275-489.5c-0.8,0.2-1.4,0.8-1.5,1.6c-1.9,9.4-7.5,15.9-16,18.5
				c-8.2-1.9-18.5-2.9-29.8-0.8c-1.1,0.2-1.8,1.2-1.6,2.3c0.2,1.1,1.3,1.8,2.3,1.6c9.5-1.8,18.4-1.2,25.8,0.3
				c0.5,0.1,4.6,1.1,5.3,1.2c9.4,2.6,15.4,6.1,15.5,6.2c0.3,0.2,0.7,0.3,1,0.3c0.5,0,1-0.2,1.4-0.6c0.1-0.1,12-12.7-0.5-29.9
				C-273.4-489.3-274.2-489.6-275-489.5z M-274.4-462.7c-2.1-1.1-6.2-3.1-11.9-4.9c1.1-0.6,2.1-1.2,3-1.9c2.9,3.5,7.3,4.4,10.2,4.6
				C-273.5-464.1-274-463.3-274.4-462.7z M-271.6-469c-2.1,0-6.1-0.3-8.6-3.3c2.8-2.8,4.9-6.3,6.4-10.4
				C-271-477.2-270.9-472.5-271.6-469z"/>
		</g>
		<text id="XMLID_141_" transform="matrix(1 0 0 1 -289.6381 -324.5753)"><tspan x="0" y="0" class="st12 st13">The</tspan><tspan x="-107.8" y="44.4" class="st12 st13">Traveling Maude</tspan></text>
	</g>
</g>
<g id="XMLID_352_">
	<g id="XMLID_354_">
		<path id="XMLID_359_" class="st0" d="M-1106.9,50.8l-8.7-6.2l-10.9-11.3c-13-13.4-31.1-20.1-49.7-18.4
			c-18.6,1.7-35.2,11.6-45.5,27.2l-5.9,8.9c-13.8,20.8-19.8,46-16.9,70.8l0.4,3c-4.8,1.8-19.7,8-32.5,20.2c-0.8,0.8-0.8,2-0.1,2.8
			c0.4,0.4,0.9,0.6,1.4,0.6c0.5,0,1-0.2,1.4-0.6c14.5-13.8,32.4-19.8,32.6-19.9c0.9-0.3,1.5-1.2,1.4-2.1l-0.5-4.6
			c-2.3-19.7,1.2-39.7,10-57.3c2.6,14.5,8.3,26.8,16.9,36.6c7.8,8.9,18,15.7,30.2,20.2c14.6,5.4,28.6,6.2,35.8,6.2
			c2.2,0,3.7-0.1,4.5-0.1c1.1,0.5,2.7,1.1,4.7,1.6c2.4,2.8,16,19,25.6,37.3c0.4,0.7,1.1,1.1,1.8,1.1c0.3,0,0.6-0.1,0.9-0.2
			c1-0.5,1.4-1.7,0.8-2.7c-7.5-14.3-17.4-27.4-22.7-34c20,3.9,56.8,6.9,61.9,7.3c0.1,0,0.1,0,0.2,0c0.8,0,1.5-0.5,1.8-1.2
			c0.1-0.2,0.1-0.4,0.2-0.6c0,0,0,0,0,0C-1065,102.3-1079.9,69.9-1106.9,50.8z M-1071.6,130.8c-2.9-2.6-7.7-6.8-14-11.6
			c0.6-1,1.1-2.2,1.7-3.3c3.8-8.9,4.4-19.4,1.6-31.4C-1074.8,98.6-1070.9,114.5-1071.6,130.8z M-1090.5,72
			c6.7,16.9,7.7,31.1,2.9,42.2c-0.4,0.9-0.8,1.8-1.3,2.6c-8.2-6-18.4-12.7-29.7-18.2c0-1.5-0.3-3-1-4.5c-0.4-0.8-0.8-1.5-1.1-2
			c4.1-8,5.5-14.8,4.3-20.7c-2.2-11.5-1.2-18.8,0.1-22.3l6.9,4.9C-1102,59.1-1095.8,65.2-1090.5,72z M-1132,105
			C-1132,105-1132,105-1132,105c-3.4,0-7-1.3-11.2-4.2c4-4.3,8.7-7.5,12.2-9.6c0.7-0.4,1.5-0.6,2.3-0.6c1.4,0,2.7,0.6,3.5,1.7l0.8,1
			c0.2,0.3,0.7,1.3,1.4,2.6c1.3,2.6,0.4,5.7-2,7.1C-1127.4,104.3-1129.7,105-1132,105z M-1224.2,53.2l5.9-8.9
			c9.6-14.5,25.1-23.8,42.5-25.4c17.4-1.6,34.3,4.7,46.4,17.2l10,10.3c-0.5,1.1-1.1,2.7-1.5,5c-0.1,0.8-0.3,1.5-0.4,2.3
			c-6.7-6.5-23.4-20.3-45.5-21.3c-14.2-0.7-23,6.2-31.6,12.9c-8.1,6.3-15.9,12.4-27.7,10.9C-1225.5,55.3-1224.9,54.2-1224.2,53.2z
			 M-1181.9,117c-11.6-4.3-21.3-10.7-28.6-19c-8.7-9.9-14.2-22.6-16.5-37.8c1.6,0.2,3.1,0.3,4.5,0.3c11.2,0,18.9-6.1,26.5-11.9
			c8.4-6.5,16.3-12.7,29-12.1c24.4,1.2,42.3,19.4,45.4,22.8c0,3.9,0.5,8.2,1.4,13c0.9,4.6-0.1,10-3.2,16.4c-1.5-1.3-3.4-2-5.5-2
			c-1.5,0-3,0.4-4.3,1.2c-4.1,2.5-10,6.6-14.7,12.1c-0.4,0.4-0.5,1-0.5,1.5c0.1,0.5,0.4,1,0.8,1.4c4.2,3.1,8,5,11.5,5.8
			c-3.9,5.5-7.2,10.4-8.3,14.4C-1149,123.1-1165.2,123.2-1181.9,117z M-1131.7,109.5l0.4-0.6c2.8-0.1,5.5-0.9,8.2-2.5
			c1.6-0.9,2.8-2.3,3.6-3.9c10.9,5.4,20.6,11.8,28.5,17.7c-4.5,6.2-9.9,9.1-11.5,9.8c-16-1.8-32.1-4.1-37.8-6.3
			C-1139.1,120.1-1135.5,115-1131.7,109.5z M-1095.8,130.7c2.5-1.8,5.4-4.4,8.1-8.1c5.2,4,9.4,7.5,12.2,10
			C-1081.2,132.2-1088.3,131.5-1095.8,130.7z"/>
		<path id="XMLID_355_" class="st0" d="M-1156.3,43.5c-0.8,0.2-1.4,0.8-1.5,1.6c-1.9,9.4-7.5,15.9-16,18.5
			c-8.2-1.9-18.5-2.9-29.8-0.8c-1.1,0.2-1.8,1.2-1.6,2.3c0.2,1.1,1.3,1.8,2.3,1.6c9.5-1.8,18.4-1.2,25.8,0.3
			c0.5,0.1,4.6,1.1,5.3,1.2c9.4,2.6,15.4,6.1,15.5,6.2c0.3,0.2,0.7,0.3,1,0.3c0.5,0,1-0.2,1.4-0.6c0.1-0.1,12-12.7-0.5-29.9
			C-1154.7,43.7-1155.5,43.4-1156.3,43.5z M-1155.7,70.3c-2.1-1.1-6.2-3.1-11.9-4.9c1.1-0.6,2.1-1.2,3-1.9c2.9,3.5,7.3,4.4,10.2,4.6
			C-1154.8,68.9-1155.3,69.7-1155.7,70.3z M-1152.9,64c-2.1,0-6.1-0.3-8.6-3.3c2.8-2.8,4.9-6.3,6.4-10.4
			C-1152.3,55.8-1152.2,60.5-1152.9,64z"/>
	</g>
	<text id="XMLID_353_" transform="matrix(1 0 0 1 -1023.1922 79.7049)"><tspan x="0" y="0" class="st13" style="font-family:'Sacramento-Regular';">The</tspan><tspan x="0" y="44.4" class="st13" style="font-family:'Sacramento-Regular';">Traveling Maude</tspan></text>
</g>
<g id="XMLID_462_">
	<g id="XMLID_421_">
		<path id="XMLID_448_" class="st1" d="M76.8-417.8c0,0-0.9,4.7-1,11.7c-0.2,11.9,0.5,29.7,3.1,37.2c4,11.9,18.5,18.6,18.5,18.6
			l1.6-5.5c-22.8-6.5-15.7-44.4-14.7-62.2L76.8-417.8z"/>
		<g id="XMLID_445_">
			<path id="XMLID_447_" class="st2" d="M107.2-471.6c0,0-3.4-0.9-8.9,9.2c-5.5,10.1-9.4,44.7-10.2,46.4c-0.7,1.7-4.9,10-4.9,10
				s-7.4,0.4-7.5-0.1c-0.1-0.5-4.3-8.8-4.5-11.6c-0.3-2.8,9.7-39.3,9.8-40c0.1-0.7,2.8-9.3,6.3-12.2
				C90.7-472.8,106.8-471.6,107.2-471.6z"/>
			<path id="XMLID_446_" class="st3" d="M107.2-471.6c0,0-3.4-0.9-8.9,9.2c-5.5,10.1-9.4,44.7-10.2,46.4c-0.7,1.7-4.9,10-4.9,10
				s-7.4,0.4-7.5-0.1c-0.1-0.5-4.3-8.8-4.5-11.6c-0.3-2.8,9.7-39.3,9.8-40c0.1-0.7,2.8-9.3,6.3-12.2
				C90.7-472.8,106.8-471.6,107.2-471.6z"/>
		</g>
		<path id="XMLID_444_" class="st4" d="M108.9-462.9c-9.5-5.5-21.5-14.9-27.9,5.3c0.9-5.5,3.6-9.8,6.3-13.2c2.7-3.4,7-3.7,14.9-3.6
			c7.9,0.1,9.7-0.3,12.8,2c3.1,2.3,11.6,8.8,10,9.4C123.5-462.3,108.9-462.9,108.9-462.9z"/>
		<path id="XMLID_443_" class="st1" d="M36.7-408.5c0,0-0.7,4.8-0.5,12.1c0.3,12.2,1.8,30.4,4.7,38c4.7,12.1,19.8,18.3,19.8,18.3
			l1.4-5.7c-23.7-5.8-18-44.9-17.8-63.2L36.7-408.5z"/>
		<g id="XMLID_440_">
			<path id="XMLID_442_" class="st2" d="M65.5-464.9c0,0-3.5-0.7-8.7,9.8c-5.2,10.6-7.8,46.2-8.4,48c-0.7,1.8-4.6,10.5-4.6,10.5
				s-7.6,0.6-7.7,0.2c-0.1-0.5-4.8-8.8-5.1-11.7c-0.4-2.9,8.3-40.7,8.3-41.4c0.1-0.7,2.5-9.6,5.9-12.8
				C48.6-465.4,65.1-464.9,65.5-464.9z"/>
			<path id="XMLID_441_" class="st3" d="M65.5-464.9c0,0-3.5-0.7-8.7,9.8c-5.2,10.6-7.8,46.2-8.4,48c-0.7,1.8-4.6,10.5-4.6,10.5
				s-7.6,0.6-7.7,0.2c-0.1-0.5-4.8-8.8-5.1-11.7c-0.4-2.9,8.3-40.7,8.3-41.4c0.1-0.7,2.5-9.6,5.9-12.8
				C48.6-465.4,65.1-464.9,65.5-464.9z"/>
		</g>
		<path id="XMLID_439_" class="st4" d="M67.7-456c-10-5.3-22.6-14.4-28.3,6.5c0.7-5.7,3.3-10.2,5.9-13.8c2.6-3.6,7-4.1,15.1-4.3
			c8.2-0.2,9.9-0.6,13.2,1.6c3.3,2.2,12.2,8.5,10.7,9.3C82.7-456,67.7-456,67.7-456z"/>
		<path id="XMLID_438_" class="st2" d="M76.4-463.9c-3.5,1.1-8.2,2.2-14.4,18.9c-6.2,16.7,1.7,65.9,1.6,75.7
			c-0.2,9.8-4.5,15.8-4.7,23.6c-0.2,7.8,6.2,12.1,10.9,13.4c4.7,1.3,52.2,1.9,59.6-4.5c7.4-6.3,8.5-15.4,8.5-20.6
			c0-5.2,3.5-66.4,0.4-82.7C132-473,104.3-464.9,76.4-463.9z"/>
		<path id="XMLID_437_" class="st1" d="M87.4-435.2c-3.8,0.5-7,10.4-8.7,17.1c-1.7,6.7-1.7,54-0.2,58.6c1.6,4.6,5.2,6.1,13.6,8.2
			c8.3,2,43.6-4,45.9-6c2.3-2,5.5-61.3,2.7-66.8c-2.8-5.5-21-11.6-29-11.5C103.7-435.4,87.4-435.2,87.4-435.2z"/>
		<path id="XMLID_436_" class="st5" d="M124.8-349.7c0.8-5.3,4.6-22.5,4.4-50.2c0.6,0,9.1-0.4,9.1-0.4c-1,14.6-0.8,35.9-4.4,49.6
			L124.8-349.7z"/>
		<path id="XMLID_435_" class="st6" d="M126.9-421.4c2.5,10.3,1.4,17.6,2.9,25.8c0.6,3.3,4.7,6.8,5.1,6.7c0.4-0.1,3.2-7.1,3.3-7.7
			c0.4-4.2,0-13.5-1.9-25.6L126.9-421.4z"/>
		<path id="XMLID_432_" class="st7" d="M129-410h8.8c0.5,0,0.9,0.4,0.9,0.8l0.2,8.2c0,0.5-0.4,0.8-0.9,0.8h-8.8
			c-0.5,0-0.9-0.4-0.9-0.8l-0.2-8.2C128.1-409.6,128.5-410,129-410L129-410z M129.8-409.2c-0.4,0-0.7,0.3-0.7,0.7l0.2,6.8
			c0,0.4,0.3,0.7,0.7,0.7h7.3c0.4,0,0.7-0.3,0.7-0.7l-0.2-6.8c0-0.4-0.3-0.7-0.7-0.7H129.8z"/>
		<path id="XMLID_431_" class="st5" d="M92.1-348.7c0.9-5.3,4.8-21.6,5.4-49.2c0.6,0,9.1-0.4,9.1-0.4c-1.5,14.6-1.8,35.9-5.8,49.6
			L92.1-348.7z"/>
		<path id="XMLID_430_" class="st6" d="M95.8-419.6c2.2,10.3,0.9,17.6,2.2,25.8c0.5,3.3,4.5,6.8,4.9,6.7c0.5-0.1,3.4-7.1,3.5-7.7
			c0.6-4.2,0.3-13.5-1.2-25.6L95.8-419.6z"/>
		<path id="XMLID_429_" class="st8" d="M64.9-451.9c0.2,1.8,2.1-5.2,10.7-1.3c8.5,3.9,4.3,23.3,10.3,33.1c6.1,10,48.1,14,54.7-4.1
			c2.5-6.9-1.6-25.8-6.2-31.7c-4.7-5.9-7.1-7.7-19.3-9.2C102.1-466.6,62.6-471.6,64.9-451.9z"/>
		<path id="XMLID_428_" class="st6" d="M65.1-452.3c1.8-0.5,2.3-7.7,10.9-3.8c8.5,3.9,5.4,24.5,11.5,34.3c6.1,10,46.4,13.8,53-4.3
			c2.5-6.9-1.6-25.8-6.2-31.7c-4.7-5.9-7.1-7.7-19.3-9.2C101.9-468.5,64.6-472.1,65.1-452.3z"/>
		<path id="XMLID_425_" class="st7" d="M97.5-408.2h8.8c0.5,0,0.9,0.4,0.9,0.8v8.2c0,0.5-0.4,0.8-0.9,0.8h-8.8
			c-0.5,0-0.9-0.4-0.9-0.8v-8.2C96.6-407.8,97-408.2,97.5-408.2L97.5-408.2z M98.3-407.3c-0.4,0-0.7,0.3-0.7,0.7v6.8
			c0,0.4,0.3,0.7,0.7,0.7h7.3c0.4,0,0.7-0.3,0.7-0.7v-6.8c0-0.4-0.3-0.7-0.7-0.7H98.3z"/>
		<path id="XMLID_424_" class="st9" d="M60-340.1c2,4.3,6.4,6.9,9.8,7.8c4.7,1.3,52.2,1.9,59.6-4.5c5-4.3,7.1-9.8,8-14.5
			c-2.4-3.5-1.5-0.8-5.5,0.3c-4.1,1.1-41.2,2.4-45.6,2.4s-10.9,5.9-16.9,8C66.3-339.6,62.9-339.7,60-340.1z"/>
		<g id="XMLID_422_">
			<path id="XMLID_423_" class="st10" d="M140.6-424.2c0.9-2.5,1-6.6,0.4-11.1c-0.7-8.2-3.6-18.4-6.8-22.5
				c-3.2-4.1-5.4-6.2-10.6-7.6c-2.3-2.3-6.6-5.5-8.6-7c-3.1-2.3-4.8-1.9-12.8-2c-1.1,0-2.2,0-3.2,0c16.2,12.9,27,35.8,27,61.9
				c0,40.3-25.6,72.9-57.3,72.9c-3.2,0-6.3-0.3-9.3-1c0.2,0.1,0.3,0.1,0.4,0.2c0,0.1,0.1,0.2,0.1,0.2c0,0,0,0,0,0c0,0,0,0,0,0.1
				c0.1,0.2,0.2,0.5,0.4,0.7c0,0,0,0,0,0c0.1,0.2,0.3,0.4,0.4,0.7c0,0,0.1,0.1,0.1,0.1c0.3,0.4,0.6,0.9,0.9,1.2c0,0,0.1,0.1,0.1,0.1
				c0.2,0.2,0.3,0.4,0.5,0.5c0,0,0,0,0,0c0.2,0.2,0.4,0.4,0.6,0.5c0,0,0.1,0.1,0.1,0.1c0.2,0.2,0.3,0.3,0.5,0.4c0,0,0,0,0.1,0.1
				c0.2,0.2,0.4,0.3,0.6,0.5c0,0,0.1,0.1,0.1,0.1c0.2,0.1,0.3,0.2,0.5,0.4c0,0,0.1,0,0.1,0.1c0.2,0.1,0.4,0.3,0.6,0.4
				c0,0,0.1,0,0.1,0.1c0.2,0.1,0.3,0.2,0.5,0.3c0,0,0.1,0,0.1,0.1c0.2,0.1,0.4,0.2,0.6,0.3c0,0,0.1,0,0.1,0c0.2,0.1,0.4,0.2,0.5,0.2
				c0,0,0.1,0,0.1,0.1c0.2,0.1,0.4,0.2,0.6,0.2c0,0,0,0,0.1,0c0.2,0.1,0.4,0.1,0.5,0.2c0.1,0,0.1,0,0.2,0c0.2,0.1,0.4,0.1,0.6,0.2
				c4.7,1.3,52.2,1.9,59.6-4.5c0.4-0.4,0.8-0.7,1.2-1.1c0.1-0.1,0.2-0.2,0.3-0.3c0.3-0.3,0.7-0.7,1-1.1c0,0,0,0,0.1-0.1
				c0.3-0.4,0.6-0.8,0.9-1.2c0.1-0.1,0.1-0.2,0.2-0.3c0.3-0.4,0.5-0.7,0.7-1.1c0,0,0.1-0.1,0.1-0.1c0.3-0.4,0.5-0.8,0.7-1.2
				c0.1-0.1,0.1-0.2,0.2-0.3c0.2-0.4,0.4-0.7,0.5-1.1c0-0.1,0.1-0.1,0.1-0.2c0.2-0.4,0.4-0.8,0.5-1.2c0-0.1,0.1-0.2,0.1-0.3
				c0.1-0.3,0.3-0.7,0.4-1c0-0.1,0.1-0.2,0.1-0.2c0.1-0.4,0.2-0.8,0.4-1.2c0-0.1,0.1-0.2,0.1-0.3c0.1-0.3,0.2-0.7,0.2-1
				c0-0.1,0-0.2,0.1-0.3c0.1-0.3,0.1-0.7,0.2-1c0,0,0,0,0,0c0.4-2.3,0.5-4.4,0.5-6C140.2-359.4,143.4-418.6,140.6-424.2z"/>
		</g>
	</g>
	<text id="XMLID_461_" transform="matrix(1 0 0 1 171.9803 -407.3134)"><tspan x="0" y="0" class="st12 st13" style="fill:#3B1415;">The</tspan><tspan x="0" y="44.4" class="st12 st13" style="fill:#3B1415;">Traveling Maude</tspan></text>
</g>
<g id="XMLID_476_">
	<g id="XMLID_478_">
		<path id="XMLID_505_" class="st1" d="M82.5-231.6c0,0-0.9,4.7-1,11.7c-0.2,11.9,0.5,29.7,3.1,37.2c4,11.9,18.5,18.6,18.5,18.6
			l1.6-5.5c-22.8-6.5-15.7-44.4-14.7-62.2L82.5-231.6z"/>
		<g id="XMLID_502_">
			<path id="XMLID_504_" class="st2" d="M112.9-285.4c0,0-3.4-0.9-8.9,9.2c-5.5,10.1-9.4,44.7-10.2,46.4c-0.7,1.7-4.9,10-4.9,10
				s-7.4,0.4-7.5-0.1c-0.1-0.5-4.3-8.8-4.5-11.6c-0.3-2.8,9.7-39.3,9.8-40c0.1-0.7,2.8-9.3,6.3-12.2
				C96.5-286.6,112.5-285.4,112.9-285.4z"/>
			<path id="XMLID_503_" class="st3" d="M112.9-285.4c0,0-3.4-0.9-8.9,9.2c-5.5,10.1-9.4,44.7-10.2,46.4c-0.7,1.7-4.9,10-4.9,10
				s-7.4,0.4-7.5-0.1c-0.1-0.5-4.3-8.8-4.5-11.6c-0.3-2.8,9.7-39.3,9.8-40c0.1-0.7,2.8-9.3,6.3-12.2
				C96.5-286.6,112.5-285.4,112.9-285.4z"/>
		</g>
		<path id="XMLID_501_" class="st4" d="M114.6-276.7c-9.5-5.5-21.5-14.9-27.9,5.3c0.9-5.5,3.6-9.8,6.3-13.2c2.7-3.4,7-3.7,14.9-3.6
			c7.9,0.1,9.7-0.3,12.8,2c3.1,2.3,11.6,8.8,10,9.4C129.3-276.1,114.6-276.7,114.6-276.7z"/>
		<path id="XMLID_500_" class="st1" d="M42.4-222.3c0,0-0.7,4.8-0.5,12.1c0.3,12.2,1.8,30.4,4.7,38c4.7,12.1,19.8,18.3,19.8,18.3
			l1.4-5.7c-23.7-5.8-18-44.9-17.8-63.2L42.4-222.3z"/>
		<g id="XMLID_497_">
			<path id="XMLID_499_" class="st2" d="M71.3-278.7c0,0-3.5-0.7-8.7,9.8c-5.2,10.6-7.8,46.2-8.4,48c-0.7,1.8-4.6,10.5-4.6,10.5
				s-7.6,0.6-7.7,0.2c-0.1-0.5-4.8-8.8-5.1-11.7c-0.4-2.9,8.3-40.7,8.3-41.4c0.1-0.7,2.5-9.6,5.9-12.8
				C54.4-279.2,70.9-278.7,71.3-278.7z"/>
			<path id="XMLID_498_" class="st3" d="M71.3-278.7c0,0-3.5-0.7-8.7,9.8c-5.2,10.6-7.8,46.2-8.4,48c-0.7,1.8-4.6,10.5-4.6,10.5
				s-7.6,0.6-7.7,0.2c-0.1-0.5-4.8-8.8-5.1-11.7c-0.4-2.9,8.3-40.7,8.3-41.4c0.1-0.7,2.5-9.6,5.9-12.8
				C54.4-279.2,70.9-278.7,71.3-278.7z"/>
		</g>
		<path id="XMLID_496_" class="st4" d="M73.4-269.8c-10-5.3-22.6-14.4-28.3,6.5c0.7-5.7,3.3-10.2,5.9-13.8c2.6-3.6,7-4.1,15.1-4.3
			c8.2-0.2,9.9-0.6,13.2,1.6c3.3,2.2,12.2,8.5,10.7,9.3C88.4-269.8,73.4-269.8,73.4-269.8z"/>
		<path id="XMLID_495_" class="st2" d="M82.1-277.7c-3.5,1.1-8.2,2.2-14.4,18.9c-6.2,16.7,1.7,65.9,1.6,75.7
			c-0.2,9.8-4.5,15.8-4.7,23.6c-0.2,7.8,6.2,12.1,10.9,13.4c4.7,1.3,52.2,1.9,59.6-4.5c7.4-6.3,8.5-15.4,8.5-20.6
			c0-5.2,3.5-66.4,0.4-82.7C137.8-286.8,110-278.8,82.1-277.7z"/>
		<path id="XMLID_494_" class="st1" d="M93.1-249.1c-3.8,0.5-7,10.4-8.7,17.1c-1.7,6.7-1.7,54-0.2,58.6c1.6,4.6,5.2,6.1,13.6,8.2
			c8.3,2,43.6-4,45.9-6c2.3-2,5.5-61.3,2.7-66.8c-2.8-5.5-21-11.6-29-11.5C109.4-249.2,93.1-249.1,93.1-249.1z"/>
		<path id="XMLID_493_" class="st5" d="M130.6-163.5c0.8-5.3,4.6-22.5,4.4-50.2c0.6,0,9.1-0.4,9.1-0.4c-1,14.6-0.8,35.9-4.4,49.6
			L130.6-163.5z"/>
		<path id="XMLID_492_" class="st6" d="M132.6-235.3c2.5,10.3,1.4,17.6,2.9,25.8c0.6,3.3,4.7,6.8,5.1,6.7c0.4-0.1,3.2-7.1,3.3-7.7
			c0.4-4.2,0-13.5-1.9-25.6L132.6-235.3z"/>
		<path id="XMLID_489_" class="st7" d="M134.7-223.8h8.8c0.5,0,0.9,0.4,0.9,0.8l0.2,8.2c0,0.5-0.4,0.8-0.9,0.8H135
			c-0.5,0-0.9-0.4-0.9-0.8l-0.2-8.2C133.9-223.4,134.2-223.8,134.7-223.8L134.7-223.8z M135.5-223c-0.4,0-0.7,0.3-0.7,0.7l0.2,6.8
			c0,0.4,0.3,0.7,0.7,0.7h7.3c0.4,0,0.7-0.3,0.7-0.7l-0.2-6.8c0-0.4-0.3-0.7-0.7-0.7H135.5z"/>
		<path id="XMLID_488_" class="st5" d="M97.8-162.6c0.9-5.3,4.8-21.6,5.4-49.2c0.6,0,9.1-0.4,9.1-0.4c-1.5,14.6-1.8,35.9-5.8,49.6
			L97.8-162.6z"/>
		<path id="XMLID_487_" class="st6" d="M101.5-233.4c2.2,10.3,0.9,17.6,2.2,25.8c0.5,3.3,4.5,6.8,4.9,6.7c0.5-0.1,3.4-7.1,3.5-7.7
			c0.6-4.2,0.3-13.5-1.2-25.6L101.5-233.4z"/>
		<path id="XMLID_486_" class="st8" d="M70.7-265.7c0.2,1.8,2.1-5.2,10.7-1.3c8.5,3.9,4.3,23.3,10.3,33.1c6.1,10,48.1,14,54.7-4.1
			c2.5-6.9-1.6-25.8-6.2-31.7c-4.7-5.9-7.1-7.7-19.3-9.2C107.9-280.5,68.3-285.4,70.7-265.7z"/>
		<path id="XMLID_485_" class="st6" d="M70.8-266.1c1.8-0.5,2.3-7.7,10.9-3.8c8.5,3.9,5.4,24.5,11.5,34.3c6.1,10,46.4,13.8,53-4.3
			c2.5-6.9-1.6-25.8-6.2-31.7c-4.7-5.9-7.1-7.7-19.3-9.2C107.7-282.3,70.3-285.9,70.8-266.1z"/>
		<path id="XMLID_482_" class="st7" d="M103.3-222h8.8c0.5,0,0.9,0.4,0.9,0.8v8.2c0,0.5-0.4,0.8-0.9,0.8h-8.8
			c-0.5,0-0.9-0.4-0.9-0.8v-8.2C102.4-221.6,102.8-222,103.3-222L103.3-222z M104-221.1c-0.4,0-0.7,0.3-0.7,0.7v6.8
			c0,0.4,0.3,0.7,0.7,0.7h7.3c0.4,0,0.7-0.3,0.7-0.7v-6.8c0-0.4-0.3-0.7-0.7-0.7H104z"/>
		<path id="XMLID_481_" class="st9" d="M65.7-154c2,4.3,6.4,6.9,9.8,7.8c4.7,1.3,52.2,1.9,59.6-4.5c5-4.3,7.1-9.8,8-14.5
			c-2.4-3.5-1.5-0.8-5.5,0.3c-4.1,1.1-41.2,2.4-45.6,2.4s-10.9,5.9-16.9,8C72-153.4,68.6-153.6,65.7-154z"/>
		<g id="XMLID_479_">
			<path id="XMLID_480_" class="st10" d="M146.3-238c0.9-2.5,1-6.6,0.4-11.1c-0.7-8.2-3.6-18.4-6.8-22.5c-3.2-4.1-5.4-6.2-10.6-7.6
				c-2.3-2.3-6.6-5.5-8.6-7c-3.1-2.3-4.8-1.9-12.8-2c-1.1,0-2.2,0-3.2,0c16.2,12.9,27,35.8,27,61.9c0,40.3-25.6,72.9-57.3,72.9
				c-3.2,0-6.3-0.3-9.3-1c0.2,0.1,0.3,0.1,0.4,0.2c0,0.1,0.1,0.2,0.1,0.2c0,0,0,0,0,0c0,0,0,0,0,0.1c0.1,0.2,0.2,0.5,0.4,0.7
				c0,0,0,0,0,0c0.1,0.2,0.3,0.4,0.4,0.7c0,0,0.1,0.1,0.1,0.1c0.3,0.4,0.6,0.9,0.9,1.2c0,0,0.1,0.1,0.1,0.1c0.2,0.2,0.3,0.4,0.5,0.5
				c0,0,0,0,0,0c0.2,0.2,0.4,0.4,0.6,0.5c0,0,0.1,0.1,0.1,0.1c0.2,0.2,0.3,0.3,0.5,0.4c0,0,0,0,0.1,0.1c0.2,0.2,0.4,0.3,0.6,0.5
				c0,0,0.1,0.1,0.1,0.1c0.2,0.1,0.3,0.2,0.5,0.4c0,0,0.1,0,0.1,0.1c0.2,0.1,0.4,0.3,0.6,0.4c0,0,0.1,0,0.1,0.1
				c0.2,0.1,0.3,0.2,0.5,0.3c0,0,0.1,0,0.1,0.1c0.2,0.1,0.4,0.2,0.6,0.3c0,0,0.1,0,0.1,0c0.2,0.1,0.4,0.2,0.5,0.2c0,0,0.1,0,0.1,0.1
				c0.2,0.1,0.4,0.2,0.6,0.2c0,0,0,0,0.1,0c0.2,0.1,0.4,0.1,0.5,0.2c0.1,0,0.1,0,0.2,0c0.2,0.1,0.4,0.1,0.6,0.2
				c4.7,1.3,52.2,1.9,59.6-4.5c0.4-0.4,0.8-0.7,1.2-1.1c0.1-0.1,0.2-0.2,0.3-0.3c0.3-0.3,0.7-0.7,1-1.1c0,0,0,0,0.1-0.1
				c0.3-0.4,0.6-0.8,0.9-1.2c0.1-0.1,0.1-0.2,0.2-0.3c0.3-0.4,0.5-0.7,0.7-1.1c0,0,0.1-0.1,0.1-0.1c0.3-0.4,0.5-0.8,0.7-1.2
				c0.1-0.1,0.1-0.2,0.2-0.3c0.2-0.4,0.4-0.7,0.5-1.1c0-0.1,0.1-0.1,0.1-0.2c0.2-0.4,0.4-0.8,0.5-1.2c0-0.1,0.1-0.2,0.1-0.3
				c0.1-0.3,0.3-0.7,0.4-1c0-0.1,0.1-0.2,0.1-0.2c0.1-0.4,0.2-0.8,0.4-1.2c0-0.1,0.1-0.2,0.1-0.3c0.1-0.3,0.2-0.7,0.2-1
				c0-0.1,0-0.2,0.1-0.3c0.1-0.3,0.1-0.7,0.2-1c0,0,0,0,0,0c0.4-2.3,0.5-4.4,0.5-6C145.9-173.2,149.1-232.5,146.3-238z"/>
		</g>
	</g>
	<text id="XMLID_477_" transform="matrix(1 0 0 1 36.0859 -95.1814)"><tspan x="0" y="0" class="st12 st13" style="fill:#3B1415;">The</tspan><tspan x="0" y="44.4" class="st12 st13" style="fill:#3B1415;">Traveling Maude</tspan></text>
</g>
<g id="XMLID_519_">
	<g id="XMLID_521_">
		<path id="XMLID_548_" class="st1" d="M558-223.4c0,0-0.9,4.7-1,11.7c-0.2,11.9,0.5,29.7,3.1,37.2c4,11.9,18.5,18.6,18.5,18.6
			l1.6-5.5c-22.8-6.5-15.7-44.4-14.7-62.2L558-223.4z"/>
		<g id="XMLID_545_">
			<path id="XMLID_547_" class="st2" d="M588.4-277.2c0,0-3.4-0.9-8.9,9.2c-5.5,10.1-9.4,44.7-10.2,46.4c-0.7,1.7-4.9,10-4.9,10
				s-7.4,0.4-7.5-0.1c-0.1-0.5-4.3-8.8-4.5-11.6c-0.3-2.8,9.7-39.3,9.8-40c0.1-0.7,2.8-9.3,6.3-12.2
				C572-278.3,588-277.2,588.4-277.2z"/>
			<path id="XMLID_546_" class="st3" d="M588.4-277.2c0,0-3.4-0.9-8.9,9.2c-5.5,10.1-9.4,44.7-10.2,46.4c-0.7,1.7-4.9,10-4.9,10
				s-7.4,0.4-7.5-0.1c-0.1-0.5-4.3-8.8-4.5-11.6c-0.3-2.8,9.7-39.3,9.8-40c0.1-0.7,2.8-9.3,6.3-12.2
				C572-278.3,588-277.2,588.4-277.2z"/>
		</g>
		<path id="XMLID_544_" class="st4" d="M590.1-268.4c-9.5-5.5-21.5-14.9-27.9,5.3c0.9-5.5,3.6-9.8,6.3-13.2c2.7-3.4,7-3.7,14.9-3.6
			c7.9,0.1,9.7-0.3,12.8,2c3.1,2.3,11.6,8.8,10,9.4C604.7-267.9,590.1-268.4,590.1-268.4z"/>
		<path id="XMLID_543_" class="st1" d="M517.9-214c0,0-0.7,4.8-0.5,12.1c0.3,12.2,1.8,30.4,4.7,38c4.7,12.1,19.8,18.3,19.8,18.3
			l1.4-5.7c-23.7-5.8-18-44.9-17.8-63.2L517.9-214z"/>
		<g id="XMLID_540_">
			<path id="XMLID_542_" class="st2" d="M546.7-270.4c0,0-3.5-0.7-8.7,9.8c-5.2,10.6-7.8,46.2-8.4,48c-0.7,1.8-4.6,10.5-4.6,10.5
				s-7.6,0.6-7.7,0.2c-0.1-0.5-4.8-8.8-5.1-11.7c-0.4-2.9,8.3-40.7,8.3-41.4c0.1-0.7,2.5-9.6,5.9-12.8
				C529.9-271,546.4-270.4,546.7-270.4z"/>
			<path id="XMLID_541_" class="st3" d="M546.7-270.4c0,0-3.5-0.7-8.7,9.8c-5.2,10.6-7.8,46.2-8.4,48c-0.7,1.8-4.6,10.5-4.6,10.5
				s-7.6,0.6-7.7,0.2c-0.1-0.5-4.8-8.8-5.1-11.7c-0.4-2.9,8.3-40.7,8.3-41.4c0.1-0.7,2.5-9.6,5.9-12.8
				C529.9-271,546.4-270.4,546.7-270.4z"/>
		</g>
		<path id="XMLID_539_" class="st4" d="M548.9-261.5c-10-5.3-22.6-14.4-28.3,6.5c0.7-5.7,3.3-10.2,5.9-13.8c2.6-3.6,7-4.1,15.1-4.3
			c8.2-0.2,9.9-0.6,13.2,1.6c3.3,2.2,12.2,8.5,10.7,9.3C563.9-261.5,548.9-261.5,548.9-261.5z"/>
		<path id="XMLID_538_" class="st2" d="M557.6-269.4c-3.5,1.1-8.2,2.2-14.4,18.9c-6.2,16.7,1.7,65.9,1.6,75.7
			c-0.2,9.8-4.5,15.8-4.7,23.6c-0.2,7.8,6.2,12.1,10.9,13.4s52.2,1.9,59.6-4.5c7.4-6.3,8.5-15.4,8.5-20.6c0-5.2,3.5-66.4,0.4-82.7
			C613.3-278.6,585.5-270.5,557.6-269.4z"/>
		<path id="XMLID_537_" class="st1" d="M568.6-240.8c-3.8,0.5-7,10.4-8.7,17.1c-1.7,6.7-1.7,54-0.2,58.6c1.6,4.6,5.2,6.1,13.6,8.2
			c8.3,2,43.6-4,45.9-6c2.3-2,5.5-61.3,2.7-66.8c-2.8-5.5-21-11.6-29-11.5C584.9-241,568.6-240.8,568.6-240.8z"/>
		<path id="XMLID_536_" class="st5" d="M606.1-155.2c0.8-5.3,4.6-22.5,4.4-50.2c0.6,0,9.1-0.4,9.1-0.4c-1,14.6-0.8,35.9-4.4,49.6
			L606.1-155.2z"/>
		<path id="XMLID_535_" class="st6" d="M608.1-227c2.5,10.3,1.4,17.6,2.9,25.8c0.6,3.3,4.7,6.8,5.1,6.7c0.4-0.1,3.2-7.1,3.3-7.7
			c0.4-4.2,0-13.5-1.9-25.6L608.1-227z"/>
		<path id="XMLID_532_" class="st7" d="M610.2-215.6h8.8c0.5,0,0.9,0.4,0.9,0.8l0.2,8.2c0,0.5-0.4,0.8-0.9,0.8h-8.8
			c-0.5,0-0.9-0.4-0.9-0.8l-0.2-8.2C609.3-215.2,609.7-215.6,610.2-215.6L610.2-215.6z M611-214.7c-0.4,0-0.7,0.3-0.7,0.7l0.2,6.8
			c0,0.4,0.3,0.7,0.7,0.7h7.3c0.4,0,0.7-0.3,0.7-0.7L619-214c0-0.4-0.3-0.7-0.7-0.7H611z"/>
		<path id="XMLID_531_" class="st5" d="M573.3-154.3c0.9-5.3,4.8-21.6,5.4-49.2c0.6,0,9.1-0.4,9.1-0.4c-1.5,14.6-1.8,35.9-5.8,49.6
			L573.3-154.3z"/>
		<path id="XMLID_530_" class="st6" d="M577-225.1c2.2,10.3,0.9,17.6,2.2,25.8c0.5,3.3,4.5,6.8,4.9,6.7c0.5-0.1,3.4-7.1,3.5-7.7
			c0.6-4.2,0.3-13.5-1.2-25.6L577-225.1z"/>
		<path id="XMLID_529_" class="st8" d="M546.1-257.5c0.2,1.8,2.1-5.2,10.7-1.3c8.5,3.9,4.3,23.3,10.3,33.1c6.1,10,48.1,14,54.7-4.1
			c2.5-6.9-1.6-25.8-6.2-31.7c-4.7-5.9-7.1-7.7-19.3-9.2C583.3-272.2,543.8-277.2,546.1-257.5z"/>
		<path id="XMLID_528_" class="st6" d="M546.3-257.8c1.8-0.5,2.3-7.7,10.9-3.8c8.5,3.9,5.4,24.5,11.5,34.3c6.1,10,46.4,13.8,53-4.3
			c2.5-6.9-1.6-25.8-6.2-31.7c-4.7-5.9-7.1-7.7-19.3-9.2C583.2-274,545.8-277.6,546.3-257.8z"/>
		<path id="XMLID_525_" class="st7" d="M578.7-213.7h8.8c0.5,0,0.9,0.4,0.9,0.8v8.2c0,0.5-0.4,0.8-0.9,0.8h-8.8
			c-0.5,0-0.9-0.4-0.9-0.8v-8.2C577.9-213.3,578.3-213.7,578.7-213.7L578.7-213.7z M579.5-212.9c-0.4,0-0.7,0.3-0.7,0.7v6.8
			c0,0.4,0.3,0.7,0.7,0.7h7.3c0.4,0,0.7-0.3,0.7-0.7v-6.8c0-0.4-0.3-0.7-0.7-0.7H579.5z"/>
		<path id="XMLID_524_" class="st9" d="M541.2-145.7c2,4.3,6.4,6.9,9.8,7.8c4.7,1.3,52.2,1.9,59.6-4.5c5-4.3,7.1-9.8,8-14.5
			c-2.4-3.5-1.5-0.8-5.5,0.3c-4.1,1.1-41.2,2.4-45.6,2.4s-10.9,5.9-16.9,8C547.5-145.2,544.1-145.3,541.2-145.7z"/>
		<g id="XMLID_522_">
			<path id="XMLID_523_" class="st10" d="M621.8-229.7c0.9-2.5,1-6.6,0.4-11.1c-0.7-8.2-3.6-18.4-6.8-22.5
				c-3.2-4.1-5.4-6.2-10.6-7.6c-2.3-2.3-6.6-5.5-8.6-7c-3.1-2.3-4.8-1.9-12.8-2c-1.1,0-2.2,0-3.2,0c16.2,12.9,27,35.8,27,61.9
				c0,40.3-25.6,72.9-57.3,72.9c-3.2,0-6.3-0.3-9.3-1c0.2,0.1,0.3,0.1,0.4,0.2c0,0.1,0.1,0.2,0.1,0.2c0,0,0,0,0,0c0,0,0,0,0,0.1
				c0.1,0.2,0.2,0.5,0.4,0.7c0,0,0,0,0,0c0.1,0.2,0.3,0.4,0.4,0.7c0,0,0.1,0.1,0.1,0.1c0.3,0.4,0.6,0.9,0.9,1.2c0,0,0.1,0.1,0.1,0.1
				c0.2,0.2,0.3,0.4,0.5,0.5c0,0,0,0,0,0c0.2,0.2,0.4,0.4,0.6,0.5c0,0,0.1,0.1,0.1,0.1c0.2,0.2,0.3,0.3,0.5,0.4c0,0,0,0,0.1,0.1
				c0.2,0.2,0.4,0.3,0.6,0.5c0,0,0.1,0.1,0.1,0.1c0.2,0.1,0.3,0.2,0.5,0.4c0,0,0.1,0,0.1,0.1c0.2,0.1,0.4,0.3,0.6,0.4
				c0,0,0.1,0,0.1,0.1c0.2,0.1,0.3,0.2,0.5,0.3c0,0,0.1,0,0.1,0.1c0.2,0.1,0.4,0.2,0.6,0.3c0,0,0.1,0,0.1,0c0.2,0.1,0.4,0.2,0.5,0.2
				c0,0,0.1,0,0.1,0.1c0.2,0.1,0.4,0.2,0.6,0.2c0,0,0,0,0.1,0c0.2,0.1,0.4,0.1,0.5,0.2c0.1,0,0.1,0,0.2,0c0.2,0.1,0.4,0.1,0.6,0.2
				c4.7,1.3,52.2,1.9,59.6-4.5c0.4-0.4,0.8-0.7,1.2-1.1c0.1-0.1,0.2-0.2,0.3-0.3c0.3-0.3,0.7-0.7,1-1.1c0,0,0,0,0.1-0.1
				c0.3-0.4,0.6-0.8,0.9-1.2c0.1-0.1,0.1-0.2,0.2-0.3c0.3-0.4,0.5-0.7,0.7-1.1c0,0,0.1-0.1,0.1-0.1c0.3-0.4,0.5-0.8,0.7-1.2
				c0.1-0.1,0.1-0.2,0.2-0.3c0.2-0.4,0.4-0.7,0.5-1.1c0-0.1,0.1-0.1,0.1-0.2c0.2-0.4,0.4-0.8,0.5-1.2c0-0.1,0.1-0.2,0.1-0.3
				c0.1-0.3,0.3-0.7,0.4-1c0-0.1,0.1-0.2,0.1-0.2c0.1-0.4,0.2-0.8,0.4-1.2c0-0.1,0.1-0.2,0.1-0.3c0.1-0.3,0.2-0.7,0.2-1
				c0-0.1,0-0.2,0.1-0.3c0.1-0.3,0.1-0.7,0.2-1c0,0,0,0,0,0c0.4-2.3,0.5-4.4,0.5-6C621.4-164.9,624.6-224.2,621.8-229.7z"/>
		</g>
	</g>
	<text id="XMLID_520_" transform="matrix(1 0 0 1 436.9801 -90.8404)"><tspan x="0" y="0" class="st12 st13" style="fill:#3B1415;">The</tspan><tspan x="0" y="44.4" class="st12 st13" style="fill:#3B1415;">Traveling Maude</tspan></text>
</g>
<g id="XMLID_1_">
	<g id="XMLID_17_">
		<path id="XMLID_46_" class="st1" d="M145,56.6c0,0-0.9,4.7-1,11.7c-0.2,11.9,0.5,29.7,3.1,37.2c4,11.9,18.5,18.6,18.5,18.6
			l1.6-5.5c-22.8-6.5-15.7-44.4-14.7-62.2L145,56.6z"/>
		<g id="XMLID_43_">
			<path id="XMLID_45_" class="st2" d="M175.4,2.8c0,0-3.4-0.9-8.9,9.2c-5.5,10.1-9.4,44.7-10.2,46.4c-0.7,1.7-4.9,10-4.9,10
				s-7.4,0.4-7.5-0.1c-0.1-0.5-4.3-8.8-4.5-11.6c-0.3-2.8,9.7-39.3,9.8-40c0.1-0.7,2.8-9.3,6.3-12.2C159,1.7,175,2.8,175.4,2.8z"/>
			<path id="XMLID_44_" class="st3" d="M175.4,2.8c0,0-3.4-0.9-8.9,9.2c-5.5,10.1-9.4,44.7-10.2,46.4c-0.7,1.7-4.9,10-4.9,10
				s-7.4,0.4-7.5-0.1c-0.1-0.5-4.3-8.8-4.5-11.6c-0.3-2.8,9.7-39.3,9.8-40c0.1-0.7,2.8-9.3,6.3-12.2C159,1.7,175,2.8,175.4,2.8z"/>
		</g>
		<path id="XMLID_42_" class="st4" d="M177.1,11.6c-9.5-5.5-21.5-14.9-27.9,5.3c0.9-5.5,3.6-9.8,6.3-13.2c2.7-3.4,7-3.7,14.9-3.6
			c7.9,0.1,9.7-0.3,12.8,2c3.1,2.3,11.6,8.8,10,9.4C191.8,12.1,177.1,11.6,177.1,11.6z"/>
		<path id="XMLID_41_" class="st1" d="M104.9,66c0,0-0.7,4.8-0.5,12.1c0.3,12.2,1.8,30.4,4.7,38c4.7,12.1,19.8,18.3,19.8,18.3
			l1.4-5.7c-23.7-5.8-18-44.9-17.8-63.2L104.9,66z"/>
		<g id="XMLID_38_">
			<path id="XMLID_40_" class="st2" d="M133.8,9.6c0,0-3.5-0.7-8.7,9.8c-5.2,10.6-7.8,46.2-8.4,48c-0.7,1.8-4.6,10.5-4.6,10.5
				s-7.6,0.6-7.7,0.2c-0.1-0.5-4.8-8.8-5.1-11.7c-0.4-2.9,8.3-40.7,8.3-41.4c0.1-0.7,2.5-9.6,5.9-12.8C116.9,9,133.4,9.6,133.8,9.6z
				"/>
			<path id="XMLID_39_" class="st3" d="M133.8,9.6c0,0-3.5-0.7-8.7,9.8c-5.2,10.6-7.8,46.2-8.4,48c-0.7,1.8-4.6,10.5-4.6,10.5
				s-7.6,0.6-7.7,0.2c-0.1-0.5-4.8-8.8-5.1-11.7c-0.4-2.9,8.3-40.7,8.3-41.4c0.1-0.7,2.5-9.6,5.9-12.8C116.9,9,133.4,9.6,133.8,9.6z
				"/>
		</g>
		<path id="XMLID_37_" class="st4" d="M135.9,18.5c-10-5.3-22.6-14.4-28.3,6.5c0.7-5.7,3.3-10.2,5.9-13.8c2.6-3.6,7-4.1,15.1-4.3
			c8.2-0.2,9.9-0.6,13.2,1.6c3.3,2.2,12.2,8.5,10.7,9.3C150.9,18.5,135.9,18.5,135.9,18.5z"/>
		<path id="XMLID_36_" class="st2" d="M144.6,10.6c-3.5,1.1-8.2,2.2-14.4,18.9c-6.2,16.7,1.7,65.9,1.6,75.7
			c-0.2,9.8-4.5,15.8-4.7,23.6c-0.2,7.8,6.2,12.1,10.9,13.4c4.7,1.3,52.2,1.9,59.6-4.5c7.4-6.3,8.5-15.4,8.5-20.6
			c0-5.2,3.5-66.4,0.4-82.7C200.3,1.4,172.5,9.5,144.6,10.6z"/>
		<path id="XMLID_35_" class="st1" d="M155.6,39.2c-3.8,0.5-7,10.4-8.7,17.1c-1.7,6.7-1.7,54-0.2,58.6c1.6,4.6,5.2,6.1,13.6,8.2
			c8.3,2,43.6-4,45.9-6c2.3-2,5.5-61.3,2.7-66.8c-2.8-5.5-21-11.6-29-11.5C171.9,39,155.6,39.2,155.6,39.2z"/>
		<path id="XMLID_34_" class="st5" d="M193.1,124.8c0.8-5.3,4.6-22.5,4.4-50.2c0.6,0,9.1-0.4,9.1-0.4c-1,14.6-0.8,35.9-4.4,49.6
			L193.1,124.8z"/>
		<path id="XMLID_33_" class="st6" d="M195.1,53c2.5,10.3,1.4,17.6,2.9,25.8c0.6,3.3,4.7,6.8,5.1,6.7c0.4-0.1,3.2-7.1,3.3-7.7
			c0.4-4.2,0-13.5-1.9-25.6L195.1,53z"/>
		<path id="XMLID_30_" class="st7" d="M197.2,64.4h8.8c0.5,0,0.9,0.4,0.9,0.8l0.2,8.2c0,0.5-0.4,0.8-0.9,0.8h-8.8
			c-0.5,0-0.9-0.4-0.9-0.8l-0.2-8.2C196.4,64.8,196.7,64.4,197.2,64.4L197.2,64.4z M198,65.3c-0.4,0-0.7,0.3-0.7,0.7l0.2,6.8
			c0,0.4,0.3,0.7,0.7,0.7h7.3c0.4,0,0.7-0.3,0.7-0.7L206,66c0-0.4-0.3-0.7-0.7-0.7H198z"/>
		<path id="XMLID_27_" class="st5" d="M160.3,125.7c0.9-5.3,4.8-21.6,5.4-49.2c0.6,0,9.1-0.4,9.1-0.4c-1.5,14.6-1.8,35.9-5.8,49.6
			L160.3,125.7z"/>
		<path id="XMLID_26_" class="st6" d="M164,54.9c2.2,10.3,0.9,17.6,2.2,25.8c0.5,3.3,4.5,6.8,4.9,6.7c0.5-0.1,3.4-7.1,3.5-7.7
			c0.6-4.2,0.3-13.5-1.2-25.6L164,54.9z"/>
		<path id="XMLID_25_" class="st8" d="M133.2,22.5c0.2,1.8,2.1-5.2,10.7-1.3c8.5,3.9,4.3,23.3,10.3,33.1c6.1,10,48.1,14,54.7-4.1
			c2.5-6.9-1.6-25.8-6.2-31.7c-4.7-5.9-7.1-7.7-19.3-9.2C170.4,7.8,130.8,2.8,133.2,22.5z"/>
		<path id="XMLID_24_" class="st6" d="M133.3,22.2c1.8-0.5,2.3-7.7,10.9-3.8c8.5,3.9,5.4,24.5,11.5,34.3c6.1,10,46.4,13.8,53-4.3
			c2.5-6.9-1.6-25.8-6.2-31.7c-4.7-5.9-7.1-7.7-19.3-9.2C170.2,6,132.8,2.4,133.3,22.2z"/>
		<path id="XMLID_21_" class="st7" d="M165.8,66.3h8.8c0.5,0,0.9,0.4,0.9,0.8v8.2c0,0.5-0.4,0.8-0.9,0.8h-8.8
			c-0.5,0-0.9-0.4-0.9-0.8v-8.2C164.9,66.7,165.3,66.3,165.8,66.3L165.8,66.3z M166.5,67.1c-0.4,0-0.7,0.3-0.7,0.7v6.8
			c0,0.4,0.3,0.7,0.7,0.7h7.3c0.4,0,0.7-0.3,0.7-0.7v-6.8c0-0.4-0.3-0.7-0.7-0.7H166.5z"/>
		<path id="XMLID_20_" class="st9" d="M128.3,134.3c2,4.3,6.4,6.9,9.8,7.8c4.7,1.3,52.2,1.9,59.6-4.5c5-4.3,7.1-9.8,8-14.5
			c-2.4-3.5-1.5-0.8-5.5,0.3c-4.1,1.1-41.2,2.4-45.6,2.4c-4.5,0-10.9,5.9-16.9,8C134.5,134.8,131.1,134.7,128.3,134.3z"/>
		<g id="XMLID_18_">
			<path id="XMLID_19_" class="st10" d="M208.8,50.3c0.9-2.5,1-6.6,0.4-11.1c-0.7-8.2-3.6-18.4-6.8-22.5c-3.2-4.1-5.4-6.2-10.6-7.6
				c-2.3-2.3-6.6-5.5-8.6-7c-3.1-2.3-4.8-1.9-12.8-2c-1.1,0-2.2,0-3.2,0c16.2,12.9,27,35.8,27,61.9c0,40.3-25.6,72.9-57.3,72.9
				c-3.2,0-6.3-0.3-9.3-1c0.2,0.1,0.3,0.1,0.4,0.2c0,0.1,0.1,0.2,0.1,0.2c0,0,0,0,0,0c0,0,0,0,0,0.1c0.1,0.2,0.2,0.5,0.4,0.7
				c0,0,0,0,0,0c0.1,0.2,0.3,0.4,0.4,0.7c0,0,0.1,0.1,0.1,0.1c0.3,0.4,0.6,0.9,0.9,1.2c0,0,0.1,0.1,0.1,0.1c0.2,0.2,0.3,0.4,0.5,0.5
				c0,0,0,0,0,0c0.2,0.2,0.4,0.4,0.6,0.5c0,0,0.1,0.1,0.1,0.1c0.2,0.2,0.3,0.3,0.5,0.4c0,0,0,0,0.1,0.1c0.2,0.2,0.4,0.3,0.6,0.5
				c0,0,0.1,0.1,0.1,0.1c0.2,0.1,0.3,0.2,0.5,0.4c0,0,0.1,0,0.1,0.1c0.2,0.1,0.4,0.3,0.6,0.4c0,0,0.1,0,0.1,0.1
				c0.2,0.1,0.3,0.2,0.5,0.3c0,0,0.1,0,0.1,0.1c0.2,0.1,0.4,0.2,0.6,0.3c0,0,0.1,0,0.1,0c0.2,0.1,0.4,0.2,0.5,0.2c0,0,0.1,0,0.1,0.1
				c0.2,0.1,0.4,0.2,0.6,0.2c0,0,0,0,0.1,0c0.2,0.1,0.4,0.1,0.5,0.2c0.1,0,0.1,0,0.2,0c0.2,0.1,0.4,0.1,0.6,0.2
				c4.7,1.3,52.2,1.9,59.6-4.5c0.4-0.4,0.8-0.7,1.2-1.1c0.1-0.1,0.2-0.2,0.3-0.3c0.3-0.3,0.7-0.7,1-1.1c0,0,0,0,0.1-0.1
				c0.3-0.4,0.6-0.8,0.9-1.2c0.1-0.1,0.1-0.2,0.2-0.3c0.3-0.4,0.5-0.7,0.7-1.1c0,0,0.1-0.1,0.1-0.1c0.3-0.4,0.5-0.8,0.7-1.2
				c0.1-0.1,0.1-0.2,0.2-0.3c0.2-0.4,0.4-0.7,0.5-1.1c0-0.1,0.1-0.1,0.1-0.2c0.2-0.4,0.4-0.8,0.5-1.2c0-0.1,0.1-0.2,0.1-0.3
				c0.1-0.3,0.3-0.7,0.4-1c0-0.1,0.1-0.2,0.1-0.2c0.1-0.4,0.2-0.8,0.4-1.2c0-0.1,0.1-0.2,0.1-0.3c0.1-0.3,0.2-0.7,0.2-1
				c0-0.1,0-0.2,0.1-0.3c0.1-0.3,0.1-0.7,0.2-1c0,0,0,0,0,0c0.4-2.3,0.5-4.4,0.5-6C208.4,115.1,211.6,55.8,208.8,50.3z"/>
		</g>
	</g>
	<text id="XMLID_16_" transform="matrix(1 0 0 1 4.272461e-004 189.1596)" class="st11 st12 st13">The Traveling Maude</text>
</g>
<g id="XMLID_76_">
	<path id="XMLID_103_" class="st1" d="M638.8-472.4c0,0-0.9,4.7-1,11.7c-0.2,11.9,0.5,29.7,3.1,37.2c4,11.9,18.5,18.6,18.5,18.6
		l1.6-5.5c-22.8-6.5-15.7-44.4-14.7-62.2L638.8-472.4z"/>
	<g id="XMLID_100_">
		<path id="XMLID_102_" class="st2" d="M669.2-526.2c0,0-3.4-0.9-8.9,9.2c-5.5,10.1-9.4,44.7-10.2,46.4c-0.7,1.7-4.9,10-4.9,10
			s-7.4,0.4-7.5-0.1c-0.1-0.5-4.3-8.8-4.5-11.6c-0.3-2.8,9.7-39.3,9.8-40c0.1-0.7,2.8-9.3,6.3-12.2
			C652.8-527.4,668.8-526.2,669.2-526.2z"/>
		<path id="XMLID_101_" class="st3" d="M669.2-526.2c0,0-3.4-0.9-8.9,9.2c-5.5,10.1-9.4,44.7-10.2,46.4c-0.7,1.7-4.9,10-4.9,10
			s-7.4,0.4-7.5-0.1c-0.1-0.5-4.3-8.8-4.5-11.6c-0.3-2.8,9.7-39.3,9.8-40c0.1-0.7,2.8-9.3,6.3-12.2
			C652.8-527.4,668.8-526.2,669.2-526.2z"/>
	</g>
	<path id="XMLID_99_" class="st4" d="M670.9-517.5c-9.5-5.5-21.5-14.9-27.9,5.3c0.9-5.5,3.6-9.8,6.3-13.2c2.7-3.4,7-3.7,14.9-3.6
		c7.9,0.1,9.7-0.3,12.8,2c3.1,2.3,11.6,8.8,10,9.4C685.6-516.9,670.9-517.5,670.9-517.5z"/>
	<path id="XMLID_98_" class="st1" d="M598.7-463.1c0,0-0.7,4.8-0.5,12.1c0.3,12.2,1.8,30.4,4.7,38c4.7,12.1,19.8,18.3,19.8,18.3
		l1.4-5.7c-23.7-5.8-18-44.9-17.8-63.2L598.7-463.1z"/>
	<g id="XMLID_95_">
		<path id="XMLID_97_" class="st2" d="M627.6-519.5c0,0-3.5-0.7-8.7,9.8c-5.2,10.6-7.8,46.2-8.4,48c-0.7,1.8-4.6,10.5-4.6,10.5
			s-7.6,0.6-7.7,0.2c-0.1-0.5-4.8-8.8-5.1-11.7c-0.4-2.9,8.3-40.7,8.3-41.4c0.1-0.7,2.5-9.6,5.9-12.8
			C610.7-520,627.2-519.5,627.6-519.5z"/>
		<path id="XMLID_96_" class="st3" d="M627.6-519.5c0,0-3.5-0.7-8.7,9.8c-5.2,10.6-7.8,46.2-8.4,48c-0.7,1.8-4.6,10.5-4.6,10.5
			s-7.6,0.6-7.7,0.2c-0.1-0.5-4.8-8.8-5.1-11.7c-0.4-2.9,8.3-40.7,8.3-41.4c0.1-0.7,2.5-9.6,5.9-12.8
			C610.7-520,627.2-519.5,627.6-519.5z"/>
	</g>
	<path id="XMLID_94_" class="st4" d="M629.7-510.6c-10-5.3-22.6-14.4-28.3,6.5c0.7-5.7,3.3-10.2,5.9-13.8c2.6-3.6,7-4.1,15.1-4.3
		c8.2-0.2,9.9-0.6,13.2,1.6c3.3,2.2,12.2,8.5,10.7,9.3C644.7-510.6,629.7-510.6,629.7-510.6z"/>
	<path id="XMLID_93_" class="st2" d="M638.4-518.5c-3.5,1.1-8.2,2.2-14.4,18.9c-6.2,16.7,1.7,65.9,1.6,75.7
		c-0.2,9.8-4.5,15.8-4.7,23.6c-0.2,7.8,6.2,12.1,10.9,13.4c4.7,1.3,52.2,1.9,59.6-4.5c7.4-6.3,8.5-15.4,8.5-20.6
		c0-5.2,3.5-66.4,0.4-82.7C694.1-527.7,666.3-519.6,638.4-518.5z"/>
	<path id="XMLID_92_" class="st1" d="M649.4-489.9c-3.8,0.5-7,10.4-8.7,17.1c-1.7,6.7-1.7,54-0.2,58.6c1.6,4.6,5.2,6.1,13.6,8.2
		c8.3,2,43.6-4,45.9-6c2.3-2,5.5-61.3,2.7-66.8c-2.8-5.5-21-11.6-29-11.5C665.7-490.1,649.4-489.9,649.4-489.9z"/>
	<path id="XMLID_91_" class="st5" d="M686.9-404.3c0.8-5.3,4.6-22.5,4.4-50.2c0.6,0,9.1-0.4,9.1-0.4c-1,14.6-0.8,35.9-4.4,49.6
		L686.9-404.3z"/>
	<path id="XMLID_90_" class="st6" d="M688.9-476.1c2.5,10.3,1.4,17.6,2.9,25.8c0.6,3.3,4.7,6.8,5.1,6.7c0.4-0.1,3.2-7.1,3.3-7.7
		c0.4-4.2,0-13.5-1.9-25.6L688.9-476.1z"/>
	<path id="XMLID_87_" class="st7" d="M691-464.6h8.8c0.5,0,0.9,0.4,0.9,0.8l0.2,8.2c0,0.5-0.4,0.8-0.9,0.8h-8.8
		c-0.5,0-0.9-0.4-0.9-0.8l-0.2-8.2C690.2-464.3,690.5-464.6,691-464.6L691-464.6z M691.8-463.8c-0.4,0-0.7,0.3-0.7,0.7l0.2,6.8
		c0,0.4,0.3,0.7,0.7,0.7h7.3c0.4,0,0.7-0.3,0.7-0.7l-0.2-6.8c0-0.4-0.3-0.7-0.7-0.7H691.8z"/>
	<path id="XMLID_86_" class="st5" d="M654.1-403.4c0.9-5.3,4.8-21.6,5.4-49.2c0.6,0,9.1-0.4,9.1-0.4c-1.5,14.6-1.8,35.9-5.8,49.6
		L654.1-403.4z"/>
	<path id="XMLID_85_" class="st6" d="M657.8-474.2c2.2,10.3,0.9,17.6,2.2,25.8c0.5,3.3,4.5,6.8,4.9,6.7c0.5-0.1,3.4-7.1,3.5-7.7
		c0.6-4.2,0.3-13.5-1.2-25.6L657.8-474.2z"/>
	<path id="XMLID_84_" class="st8" d="M627-506.6c0.2,1.8,2.1-5.2,10.7-1.3c8.5,3.9,4.3,23.3,10.3,33.1c6.1,10,48.1,14,54.7-4.1
		c2.5-6.9-1.6-25.8-6.2-31.7c-4.7-5.9-7.1-7.7-19.3-9.2C664.2-521.3,624.6-526.2,627-506.6z"/>
	<path id="XMLID_83_" class="st6" d="M627.1-506.9c1.8-0.5,2.3-7.7,10.9-3.8c8.5,3.9,5.4,24.5,11.5,34.3c6.1,10,46.4,13.8,53-4.3
		c2.5-6.9-1.6-25.8-6.2-31.7c-4.7-5.9-7.1-7.7-19.3-9.2C664-523.1,626.6-526.7,627.1-506.9z"/>
	<path id="XMLID_80_" class="st7" d="M659.6-462.8h8.8c0.5,0,0.9,0.4,0.9,0.8v8.2c0,0.5-0.4,0.8-0.9,0.8h-8.8
		c-0.5,0-0.9-0.4-0.9-0.8v-8.2C658.7-462.4,659.1-462.8,659.6-462.8L659.6-462.8z M660.3-461.9c-0.4,0-0.7,0.3-0.7,0.7v6.8
		c0,0.4,0.3,0.7,0.7,0.7h7.3c0.4,0,0.7-0.3,0.7-0.7v-6.8c0-0.4-0.3-0.7-0.7-0.7H660.3z"/>
	<path id="XMLID_79_" class="st9" d="M622.1-394.8c2,4.3,6.4,6.9,9.8,7.8c4.7,1.3,52.2,1.9,59.6-4.5c5-4.3,7.1-9.8,8-14.5
		c-2.4-3.5-1.5-0.8-5.5,0.3c-4.1,1.1-41.2,2.4-45.6,2.4s-10.9,5.9-16.9,8C628.3-394.2,624.9-394.4,622.1-394.8z"/>
	<g id="XMLID_77_">
		<path id="XMLID_78_" class="st10" d="M702.6-478.8c0.9-2.5,1-6.6,0.4-11.1c-0.7-8.2-3.6-18.4-6.8-22.5c-3.2-4.1-5.4-6.2-10.6-7.6
			c-2.3-2.3-6.6-5.5-8.6-7c-3.1-2.3-4.8-1.9-12.8-2c-1.1,0-2.2,0-3.2,0c16.2,12.9,27,35.8,27,61.9c0,40.3-25.6,72.9-57.3,72.9
			c-3.2,0-6.3-0.3-9.3-1c0.2,0.1,0.3,0.1,0.4,0.2c0,0.1,0.1,0.2,0.1,0.2c0,0,0,0,0,0c0,0,0,0,0,0.1c0.1,0.2,0.2,0.5,0.4,0.7
			c0,0,0,0,0,0c0.1,0.2,0.3,0.4,0.4,0.7c0,0,0.1,0.1,0.1,0.1c0.3,0.4,0.6,0.9,0.9,1.2c0,0,0.1,0.1,0.1,0.1c0.2,0.2,0.3,0.4,0.5,0.5
			c0,0,0,0,0,0c0.2,0.2,0.4,0.4,0.6,0.5c0,0,0.1,0.1,0.1,0.1c0.2,0.2,0.3,0.3,0.5,0.4c0,0,0,0,0.1,0.1c0.2,0.2,0.4,0.3,0.6,0.5
			c0,0,0.1,0.1,0.1,0.1c0.2,0.1,0.3,0.2,0.5,0.4c0,0,0.1,0,0.1,0.1c0.2,0.1,0.4,0.3,0.6,0.4c0,0,0.1,0,0.1,0.1
			c0.2,0.1,0.3,0.2,0.5,0.3c0,0,0.1,0,0.1,0.1c0.2,0.1,0.4,0.2,0.6,0.3c0,0,0.1,0,0.1,0c0.2,0.1,0.4,0.2,0.5,0.2c0,0,0.1,0,0.1,0.1
			c0.2,0.1,0.4,0.2,0.6,0.2c0,0,0,0,0.1,0c0.2,0.1,0.4,0.1,0.5,0.2c0.1,0,0.1,0,0.2,0c0.2,0.1,0.4,0.1,0.6,0.2
			c4.7,1.3,52.2,1.9,59.6-4.5c0.4-0.4,0.8-0.7,1.2-1.1c0.1-0.1,0.2-0.2,0.3-0.3c0.3-0.3,0.7-0.7,1-1.1c0,0,0,0,0.1-0.1
			c0.3-0.4,0.6-0.8,0.9-1.2c0.1-0.1,0.1-0.2,0.2-0.3c0.3-0.4,0.5-0.7,0.7-1.1c0,0,0.1-0.1,0.1-0.1c0.3-0.4,0.5-0.8,0.7-1.2
			c0.1-0.1,0.1-0.2,0.2-0.3c0.2-0.4,0.4-0.7,0.5-1.1c0-0.1,0.1-0.1,0.1-0.2c0.2-0.4,0.4-0.8,0.5-1.2c0-0.1,0.1-0.2,0.1-0.3
			c0.1-0.3,0.3-0.7,0.4-1c0-0.1,0.1-0.2,0.1-0.2c0.1-0.4,0.2-0.8,0.4-1.2c0-0.1,0.1-0.2,0.1-0.3c0.1-0.3,0.2-0.7,0.2-1
			c0-0.1,0-0.2,0.1-0.3c0.1-0.3,0.1-0.7,0.2-1c0,0,0,0,0,0c0.4-2.3,0.5-4.4,0.5-6C702.2-414,705.4-473.3,702.6-478.8z"/>
	</g>
</g>
</svg>
