<?xml version="1.0" encoding="utf-8"?>
<!-- Generator: Adobe Illustrator 19.0.0, SVG Export Plug-In . SVG Version: 6.00 Build 0)  -->
<svg version="1.1" id="Capa_1" xmlns="http://www.w3.org/2000/svg" xmlns:xlink="http://www.w3.org/1999/xlink" x="0px" y="0px"
	 viewBox="-513.3 201.6 406 143" style="enable-background:new -513.3 201.6 406 143;" xml:space="preserve">
<style type="text/css">
	.st0{fill-rule:evenodd;clip-rule:evenodd;fill:#BEB3B3;}
	.st1{fill-rule:evenodd;clip-rule:evenodd;fill:#801C1F;}
	.st2{fill:none;stroke:#373334;stroke-width:0.5;stroke-miterlimit:2.6131;}
	.st3{fill-rule:evenodd;clip-rule:evenodd;fill:#C34846;}
	.st4{fill-rule:evenodd;clip-rule:evenodd;fill:#C44846;}
	.st5{fill-rule:evenodd;clip-rule:evenodd;fill:#BC3C3C;}
	.st6{fill-rule:evenodd;clip-rule:evenodd;fill:#AEAFB1;}
	.st7{fill-rule:evenodd;clip-rule:evenodd;fill:#7F2026;}
	.st8{fill-rule:evenodd;clip-rule:evenodd;fill:#7A1317;}
	.st9{fill-rule:evenodd;clip-rule:evenodd;fill:#E8E8E9;}
	.st10{fill:#3B1314;}
	.st11{font-family:'PoiretOne-Regular';}
	.st12{font-size:37px;}
</style>
<g id="XMLID_462_">
	<g id="XMLID_421_">
		<path id="XMLID_448_" class="st0" d="M-467.2,258.2c0,0-0.9,4.7-1,11.7c-0.2,11.9,0.5,29.7,3.1,37.2c4,11.9,18.5,18.6,18.5,18.6
			l1.6-5.5c-22.8-6.5-15.7-44.4-14.7-62.2L-467.2,258.2z"/>
		<g id="XMLID_445_">
			<path id="XMLID_447_" class="st1" d="M-436.8,204.4c0,0-3.4-0.9-8.9,9.2c-5.5,10.1-9.4,44.7-10.2,46.4c-0.7,1.7-4.9,10-4.9,10
				s-7.4,0.4-7.5-0.1c-0.1-0.5-4.3-8.8-4.5-11.6c-0.3-2.8,9.7-39.3,9.8-40c0.1-0.7,2.8-9.3,6.3-12.2
				C-453.3,203.3-437.2,204.4-436.8,204.4z"/>
			<path id="XMLID_446_" class="st2" d="M-436.8,204.4c0,0-3.4-0.9-8.9,9.2c-5.5,10.1-9.4,44.7-10.2,46.4c-0.7,1.7-4.9,10-4.9,10
				s-7.4,0.4-7.5-0.1c-0.1-0.5-4.3-8.8-4.5-11.6c-0.3-2.8,9.7-39.3,9.8-40c0.1-0.7,2.8-9.3,6.3-12.2
				C-453.3,203.3-437.2,204.4-436.8,204.4z"/>
		</g>
		<path id="XMLID_444_" class="st3" d="M-435.1,213.2c-9.5-5.5-21.5-14.9-27.9,5.3c0.9-5.5,3.6-9.8,6.3-13.2c2.7-3.4,7-3.7,14.9-3.6
			c7.9,0.1,9.7-0.3,12.8,2c3.1,2.3,11.6,8.8,10,9.4C-420.5,213.7-435.1,213.2-435.1,213.2z"/>
		<path id="XMLID_443_" class="st0" d="M-507.3,267.6c0,0-0.7,4.8-0.5,12.1c0.3,12.2,1.8,30.4,4.7,38c4.7,12.1,19.8,18.3,19.8,18.3
			l1.4-5.7c-23.7-5.8-18-44.9-17.8-63.2L-507.3,267.6z"/>
		<g id="XMLID_440_">
			<path id="XMLID_442_" class="st1" d="M-478.5,211.2c0,0-3.5-0.7-8.7,9.8c-5.2,10.6-7.8,46.2-8.4,48c-0.7,1.8-4.6,10.5-4.6,10.5
				s-7.6,0.6-7.7,0.2c-0.1-0.5-4.8-8.8-5.1-11.7c-0.4-2.9,8.3-40.7,8.3-41.4c0.1-0.7,2.5-9.6,5.9-12.8
				C-495.4,210.6-478.9,211.2-478.5,211.2z"/>
			<path id="XMLID_441_" class="st2" d="M-478.5,211.2c0,0-3.5-0.7-8.7,9.8c-5.2,10.6-7.8,46.2-8.4,48c-0.7,1.8-4.6,10.5-4.6,10.5
				s-7.6,0.6-7.7,0.2c-0.1-0.5-4.8-8.8-5.1-11.7c-0.4-2.9,8.3-40.7,8.3-41.4c0.1-0.7,2.5-9.6,5.9-12.8
				C-495.4,210.6-478.9,211.2-478.5,211.2z"/>
		</g>
		<path id="XMLID_439_" class="st3" d="M-476.3,220.1c-10-5.3-22.6-14.4-28.3,6.5c0.7-5.7,3.3-10.2,5.9-13.8c2.6-3.6,7-4.1,15.1-4.3
			c8.2-0.2,9.9-0.6,13.2,1.6c3.3,2.2,12.2,8.5,10.7,9.3C-461.3,220.1-476.3,220.1-476.3,220.1z"/>
		<path id="XMLID_438_" class="st1" d="M-467.6,212.2c-3.5,1.1-8.2,2.2-14.4,18.9c-6.2,16.7,1.7,65.9,1.6,75.7
			c-0.2,9.8-4.5,15.8-4.7,23.6c-0.2,7.8,6.2,12.1,10.9,13.4c4.7,1.3,52.2,1.9,59.6-4.5c7.4-6.3,8.5-15.4,8.5-20.6
			c0-5.2,3.5-66.4,0.4-82.7C-412,203-439.7,211.1-467.6,212.2z"/>
		<path id="XMLID_437_" class="st0" d="M-456.6,240.8c-3.8,0.5-7,10.4-8.7,17.1c-1.7,6.7-1.7,54-0.2,58.6c1.6,4.6,5.2,6.1,13.6,8.2
			c8.3,2,43.6-4,45.9-6c2.3-2,5.5-61.3,2.7-66.8c-2.8-5.5-21-11.6-29-11.5C-440.3,240.6-456.6,240.8-456.6,240.8z"/>
		<path id="XMLID_436_" class="st4" d="M-419.2,326.4c0.8-5.3,4.6-22.5,4.4-50.2c0.6,0,9.1-0.4,9.1-0.4c-1,14.6-0.8,35.9-4.4,49.6
			L-419.2,326.4z"/>
		<path id="XMLID_435_" class="st5" d="M-417.1,254.6c2.5,10.3,1.4,17.6,2.9,25.8c0.6,3.3,4.7,6.8,5.1,6.7c0.4-0.1,3.2-7.1,3.3-7.7
			c0.4-4.2,0-13.5-1.9-25.6L-417.1,254.6z"/>
		<path id="XMLID_432_" class="st6" d="M-415,266h8.8c0.5,0,0.9,0.4,0.9,0.8l0.2,8.2c0,0.5-0.4,0.8-0.9,0.8h-8.8
			c-0.5,0-0.9-0.4-0.9-0.8l-0.2-8.2C-415.9,266.4-415.5,266-415,266L-415,266z M-414.2,266.9c-0.4,0-0.7,0.3-0.7,0.7l0.2,6.8
			c0,0.4,0.3,0.7,0.7,0.7h7.3c0.4,0,0.7-0.3,0.7-0.7l-0.2-6.8c0-0.4-0.3-0.7-0.7-0.7H-414.2z"/>
		<path id="XMLID_431_" class="st4" d="M-451.9,327.3c0.9-5.3,4.8-21.6,5.4-49.2c0.6,0,9.1-0.4,9.1-0.4c-1.5,14.6-1.8,35.9-5.8,49.6
			L-451.9,327.3z"/>
		<path id="XMLID_430_" class="st5" d="M-448.2,256.5c2.2,10.3,0.9,17.6,2.2,25.8c0.5,3.3,4.5,6.8,4.9,6.7c0.5-0.1,3.4-7.1,3.5-7.7
			c0.6-4.2,0.3-13.5-1.2-25.6L-448.2,256.5z"/>
		<path id="XMLID_429_" class="st7" d="M-479.1,224.1c0.2,1.8,2.1-5.2,10.7-1.3c8.5,3.9,4.3,23.3,10.3,33.1c6.1,10,48.1,14,54.7-4.1
			c2.5-6.9-1.6-25.8-6.2-31.7c-4.7-5.9-7.1-7.7-19.3-9.2C-441.9,209.4-481.4,204.4-479.1,224.1z"/>
		<path id="XMLID_428_" class="st5" d="M-478.9,223.8c1.8-0.5,2.3-7.7,10.9-3.8c8.5,3.9,5.4,24.5,11.5,34.3c6.1,10,46.4,13.8,53-4.3
			c2.5-6.9-1.6-25.8-6.2-31.7c-4.7-5.9-7.1-7.7-19.3-9.2C-442.1,207.6-479.4,204-478.9,223.8z"/>
		<path id="XMLID_425_" class="st6" d="M-446.5,267.9h8.8c0.5,0,0.9,0.4,0.9,0.8v8.2c0,0.5-0.4,0.8-0.9,0.8h-8.8
			c-0.5,0-0.9-0.4-0.9-0.8v-8.2C-447.4,268.3-447,267.9-446.5,267.9L-446.5,267.9z M-445.7,268.7c-0.4,0-0.7,0.3-0.7,0.7v6.8
			c0,0.4,0.3,0.7,0.7,0.7h7.3c0.4,0,0.7-0.3,0.7-0.7v-6.8c0-0.4-0.3-0.7-0.7-0.7H-445.7z"/>
		<path id="XMLID_424_" class="st8" d="M-484,335.9c2,4.3,6.4,6.9,9.8,7.8c4.7,1.3,52.2,1.9,59.6-4.5c5-4.3,7.1-9.8,8-14.5
			c-2.4-3.5-1.5-0.8-5.5,0.3c-4.1,1.1-41.2,2.4-45.6,2.4s-10.9,5.9-16.9,8C-477.7,336.5-481.1,336.3-484,335.9z"/>
		<g id="XMLID_422_">
			<path id="XMLID_423_" class="st9" d="M-403.4,251.9c0.9-2.5,1-6.6,0.4-11.1c-0.7-8.2-3.6-18.4-6.8-22.5
				c-3.2-4.1-5.4-6.2-10.6-7.6c-2.3-2.3-6.6-5.5-8.6-7c-3.1-2.3-4.8-1.9-12.8-2c-1.1,0-2.2,0-3.2,0c16.2,12.9,27,35.8,27,61.9
				c0,40.3-25.6,72.9-57.3,72.9c-3.2,0-6.3-0.3-9.3-1c0.2,0.1,0.3,0.1,0.4,0.2c0,0.1,0.1,0.2,0.1,0.2c0,0,0,0,0,0c0,0,0,0,0,0.1
				c0.1,0.2,0.2,0.5,0.4,0.7c0,0,0,0,0,0c0.1,0.2,0.3,0.4,0.4,0.7c0,0,0.1,0.1,0.1,0.1c0.3,0.4,0.6,0.9,0.9,1.2c0,0,0.1,0.1,0.1,0.1
				c0.2,0.2,0.3,0.4,0.5,0.5c0,0,0,0,0,0c0.2,0.2,0.4,0.4,0.6,0.5c0,0,0.1,0.1,0.1,0.1c0.2,0.2,0.3,0.3,0.5,0.4c0,0,0,0,0.1,0.1
				c0.2,0.2,0.4,0.3,0.6,0.5c0,0,0.1,0.1,0.1,0.1c0.2,0.1,0.3,0.2,0.5,0.4c0,0,0.1,0,0.1,0.1c0.2,0.1,0.4,0.3,0.6,0.4
				c0,0,0.1,0,0.1,0.1c0.2,0.1,0.3,0.2,0.5,0.3c0,0,0.1,0,0.1,0.1c0.2,0.1,0.4,0.2,0.6,0.3c0,0,0.1,0,0.1,0c0.2,0.1,0.4,0.2,0.5,0.2
				c0,0,0.1,0,0.1,0.1c0.2,0.1,0.4,0.2,0.6,0.2c0,0,0,0,0.1,0c0.2,0.1,0.4,0.1,0.5,0.2c0.1,0,0.1,0,0.2,0c0.2,0.1,0.4,0.1,0.6,0.2
				c4.7,1.3,52.2,1.9,59.6-4.5c0.4-0.4,0.8-0.7,1.2-1.1c0.1-0.1,0.2-0.2,0.3-0.3c0.3-0.3,0.7-0.7,1-1.1c0,0,0,0,0.1-0.1
				c0.3-0.4,0.6-0.8,0.9-1.2c0.1-0.1,0.1-0.2,0.2-0.3c0.3-0.4,0.5-0.7,0.7-1.1c0,0,0.1-0.1,0.1-0.1c0.3-0.4,0.5-0.8,0.7-1.2
				c0.1-0.1,0.1-0.2,0.2-0.3c0.2-0.4,0.4-0.7,0.5-1.1c0-0.1,0.1-0.1,0.1-0.2c0.2-0.4,0.4-0.8,0.5-1.2c0-0.1,0.1-0.2,0.1-0.3
				c0.1-0.3,0.3-0.7,0.4-1c0-0.1,0.1-0.2,0.1-0.2c0.1-0.4,0.2-0.8,0.4-1.2c0-0.1,0.1-0.2,0.1-0.3c0.1-0.3,0.2-0.7,0.2-1
				c0-0.1,0-0.2,0.1-0.3c0.1-0.3,0.1-0.7,0.2-1c0,0,0,0,0,0c0.4-2.3,0.5-4.4,0.5-6C-403.8,316.7-400.6,257.4-403.4,251.9z"/>
		</g>
	</g>
	<text id="XMLID_461_" transform="matrix(1 0 0 1 -372.0192 268.7418)"><tspan x="0" y="0" class="st10 st11 st12">The</tspan><tspan x="0" y="44.4" class="st10 st11 st12">Traveling Maude</tspan></text>
</g>
</svg>
