<?xml version="1.0" encoding="utf-8"?>
<!-- Generator: Adobe Illustrator 19.0.0, SVG Export Plug-In . SVG Version: 6.00 Build 0)  -->
<svg version="1.1" id="Layer_1" xmlns="http://www.w3.org/2000/svg" xmlns:xlink="http://www.w3.org/1999/xlink" x="0px" y="0px"
	 viewBox="0 0 150 150" style="enable-background:new 0 0 150 150;" xml:space="preserve">
<style type="text/css">
	.st0{fill:#010101;}
	.st1{fill-rule:evenodd;clip-rule:evenodd;fill:#BFB4B4;}
	.st2{fill-rule:evenodd;clip-rule:evenodd;fill:#801C1F;}
	.st3{fill:none;stroke:#383434;stroke-width:0.5;stroke-miterlimit:2.6131;}
	.st4{fill-rule:evenodd;clip-rule:evenodd;fill:#C44846;}
	.st5{fill-rule:evenodd;clip-rule:evenodd;fill:#C54846;}
	.st6{fill-rule:evenodd;clip-rule:evenodd;fill:#BD3C3C;}
	.st7{fill-rule:evenodd;clip-rule:evenodd;fill:#AFB0B3;}
	.st8{fill-rule:evenodd;clip-rule:evenodd;fill:#7F2126;}
	.st9{fill-rule:evenodd;clip-rule:evenodd;fill:#7A1317;}
	.st10{fill-rule:evenodd;clip-rule:evenodd;fill:#E9E9EA;}
	.st11{fill:none;stroke:#707071;stroke-width:2.2;stroke-miterlimit:10;}
</style>
<g id="XMLID_29_">
	<g id="XMLID_2_">
		<path id="XMLID_7_" class="st0" d="M-1680.2,400.5l-8.7-6.2l-10.9-11.3c-13-13.4-31.1-20.1-49.7-18.4
			c-18.6,1.7-35.2,11.6-45.5,27.2l-5.9,8.9c-13.8,20.8-19.8,46-16.9,70.8l0.4,3c-4.8,1.8-19.7,8-32.5,20.2c-0.8,0.8-0.8,2-0.1,2.8
			c0.4,0.4,0.9,0.6,1.4,0.6c0.5,0,1-0.2,1.4-0.6c14.5-13.8,32.4-19.8,32.6-19.9c0.9-0.3,1.5-1.2,1.4-2.1l-0.5-4.6
			c-2.3-19.7,1.2-39.7,10-57.3c2.6,14.5,8.3,26.8,16.9,36.6c7.8,8.9,18,15.7,30.2,20.2c14.6,5.4,28.6,6.2,35.8,6.2
			c2.2,0,3.7-0.1,4.5-0.1c1.1,0.5,2.7,1.1,4.7,1.6c2.4,2.8,16,19,25.6,37.3c0.4,0.7,1.1,1.1,1.8,1.1c0.3,0,0.6-0.1,0.9-0.2
			c1-0.5,1.4-1.7,0.8-2.7c-7.5-14.3-17.4-27.4-22.7-34c20,3.9,56.8,6.9,61.9,7.3c0.1,0,0.1,0,0.2,0c0.8,0,1.5-0.5,1.8-1.2
			c0.1-0.2,0.1-0.4,0.2-0.6c0,0,0,0,0,0C-1638.2,452.1-1653.1,419.7-1680.2,400.5z M-1644.9,480.5c-2.9-2.6-7.7-6.8-14-11.6
			c0.6-1,1.1-2.2,1.7-3.3c3.8-8.9,4.4-19.4,1.6-31.4C-1648,448.3-1644.2,464.2-1644.9,480.5z M-1663.7,421.7
			c6.7,16.9,7.7,31.1,2.9,42.2c-0.4,0.9-0.8,1.8-1.3,2.6c-8.2-6-18.4-12.7-29.7-18.2c0-1.5-0.3-3-1-4.5c-0.4-0.8-0.8-1.5-1.1-2
			c4.1-8,5.5-14.8,4.3-20.7c-2.2-11.5-1.2-18.8,0.1-22.3l6.9,4.9C-1675.3,408.9-1669,414.9-1663.7,421.7z M-1705.2,454.7
			C-1705.2,454.7-1705.2,454.7-1705.2,454.7c-3.4,0-7-1.3-11.2-4.2c4-4.3,8.7-7.5,12.2-9.6c0.7-0.4,1.5-0.6,2.3-0.6
			c1.4,0,2.7,0.6,3.5,1.7l0.8,1c0.2,0.3,0.7,1.3,1.4,2.6c1.3,2.6,0.4,5.7-2,7.1C-1700.6,454-1702.9,454.7-1705.2,454.7z
			 M-1797.4,403l5.9-8.9c9.6-14.5,25.1-23.8,42.5-25.4c17.4-1.6,34.3,4.7,46.4,17.2l10,10.3c-0.5,1.1-1.1,2.7-1.5,5
			c-0.1,0.8-0.3,1.5-0.4,2.3c-6.7-6.5-23.4-20.3-45.5-21.3c-14.2-0.7-23,6.2-31.6,12.9c-8.1,6.3-15.9,12.4-27.7,10.9
			C-1798.7,405-1798.1,404-1797.4,403z M-1755.2,466.7c-11.6-4.3-21.3-10.7-28.6-19c-8.7-9.9-14.2-22.6-16.5-37.8
			c1.6,0.2,3.1,0.3,4.5,0.3c11.2,0,18.9-6.1,26.5-11.9c8.4-6.5,16.3-12.7,29-12.1c24.4,1.2,42.3,19.4,45.4,22.8
			c0,3.9,0.5,8.2,1.4,13c0.9,4.6-0.1,10-3.2,16.4c-1.5-1.3-3.4-2-5.5-2c-1.5,0-3,0.4-4.3,1.2c-4.1,2.5-10,6.6-14.7,12.1
			c-0.4,0.4-0.5,1-0.5,1.5c0.1,0.5,0.4,1,0.8,1.4c4.2,3.1,8,5,11.5,5.8c-3.9,5.5-7.2,10.4-8.3,14.4
			C-1722.3,472.8-1738.4,472.9-1755.2,466.7z M-1704.9,459.2l0.4-0.6c2.8-0.1,5.5-0.9,8.2-2.5c1.6-0.9,2.8-2.3,3.6-3.9
			c10.9,5.4,20.6,11.8,28.5,17.7c-4.5,6.2-9.9,9.1-11.5,9.8c-16-1.8-32.1-4.1-37.8-6.3C-1712.4,469.8-1708.7,464.7-1704.9,459.2z
			 M-1669.1,480.5c2.5-1.8,5.4-4.4,8.1-8.1c5.2,4,9.4,7.5,12.2,10C-1654.4,481.9-1661.6,481.2-1669.1,480.5z"/>
		<path id="XMLID_3_" class="st0" d="M-1729.6,393.2c-0.8,0.2-1.4,0.8-1.5,1.6c-1.9,9.4-7.5,15.9-16,18.5
			c-8.2-1.9-18.5-2.9-29.8-0.8c-1.1,0.2-1.8,1.2-1.6,2.3c0.2,1.1,1.3,1.8,2.3,1.6c9.5-1.8,18.4-1.2,25.8,0.3
			c0.5,0.1,4.6,1.1,5.3,1.2c9.4,2.6,15.4,6.1,15.5,6.2c0.3,0.2,0.7,0.3,1,0.3c0.5,0,1-0.2,1.4-0.6c0.1-0.1,12-12.7-0.5-29.9
			C-1728,393.4-1728.8,393.1-1729.6,393.2z M-1729,420c-2.1-1.1-6.2-3.1-11.9-4.9c1.1-0.6,2.1-1.2,3-1.9c2.9,3.5,7.3,4.4,10.2,4.6
			C-1728.1,418.6-1728.6,419.4-1729,420z M-1726.2,413.7c-2.1,0-6.1-0.3-8.6-3.3c2.8-2.8,4.9-6.3,6.4-10.4
			C-1725.5,405.5-1725.4,410.2-1726.2,413.7z"/>
	</g>
	<text id="XMLID_28_" transform="matrix(1 0 0 1 -1596.4314 429.4132)"><tspan x="0" y="0" style="font-family:'DancingScript-Regular'; font-size:37px;">The</tspan><tspan x="0" y="44.4" style="font-family:'DancingScript-Regular'; font-size:37px;">Traveling Maude</tspan></text>
</g>
<g id="XMLID_56_">
	<g id="XMLID_58_">
		<path id="XMLID_63_" class="st0" d="M-1680.2,50.4l-8.7-6.2l-10.9-11.3c-13-13.4-31.1-20.1-49.7-18.4
			c-18.6,1.7-35.2,11.6-45.5,27.2l-5.9,8.9c-13.8,20.8-19.8,46-16.9,70.8l0.4,3c-4.8,1.8-19.7,8-32.5,20.2c-0.8,0.8-0.8,2-0.1,2.8
			c0.4,0.4,0.9,0.6,1.4,0.6c0.5,0,1-0.2,1.4-0.6c14.5-13.8,32.4-19.8,32.6-19.9c0.9-0.3,1.5-1.2,1.4-2.1l-0.5-4.6
			c-2.3-19.7,1.2-39.7,10-57.3c2.6,14.5,8.3,26.8,16.9,36.6c7.8,8.9,18,15.7,30.2,20.2c14.6,5.4,28.6,6.2,35.8,6.2
			c2.2,0,3.7-0.1,4.5-0.1c1.1,0.5,2.7,1.1,4.7,1.6c2.4,2.8,16,19,25.6,37.3c0.4,0.7,1.1,1.1,1.8,1.1c0.3,0,0.6-0.1,0.9-0.2
			c1-0.5,1.4-1.7,0.8-2.7c-7.5-14.3-17.4-27.4-22.7-34c20,3.9,56.8,6.9,61.9,7.3c0.1,0,0.1,0,0.2,0c0.8,0,1.5-0.5,1.8-1.2
			c0.1-0.2,0.1-0.4,0.2-0.6c0,0,0,0,0,0C-1638.2,102-1653.1,69.6-1680.2,50.4z M-1644.9,130.4c-2.9-2.6-7.7-6.8-14-11.6
			c0.6-1,1.1-2.2,1.7-3.3c3.8-8.9,4.4-19.4,1.6-31.4C-1648,98.2-1644.2,114.1-1644.9,130.4z M-1663.7,71.6
			c6.7,16.9,7.7,31.1,2.9,42.2c-0.4,0.9-0.8,1.8-1.3,2.6c-8.2-6-18.4-12.7-29.7-18.2c0-1.5-0.3-3-1-4.5c-0.4-0.8-0.8-1.5-1.1-2
			c4.1-8,5.5-14.8,4.3-20.7c-2.2-11.5-1.2-18.8,0.1-22.3l6.9,4.9C-1675.3,58.7-1669,64.8-1663.7,71.6z M-1705.2,104.6
			C-1705.2,104.6-1705.2,104.6-1705.2,104.6c-3.4,0-7-1.3-11.2-4.2c4-4.3,8.7-7.5,12.2-9.6c0.7-0.4,1.5-0.6,2.3-0.6
			c1.4,0,2.7,0.6,3.5,1.7l0.8,1c0.2,0.3,0.7,1.3,1.4,2.6c1.3,2.6,0.4,5.7-2,7.1C-1700.6,103.9-1702.9,104.6-1705.2,104.6z
			 M-1797.4,52.8l5.9-8.9c9.6-14.5,25.1-23.8,42.5-25.4c17.4-1.6,34.3,4.7,46.4,17.2l10,10.3c-0.5,1.1-1.1,2.7-1.5,5
			c-0.1,0.8-0.3,1.5-0.4,2.3c-6.7-6.5-23.4-20.3-45.5-21.3c-14.2-0.7-23,6.2-31.6,12.9c-8.1,6.3-15.9,12.4-27.7,10.9
			C-1798.7,54.9-1798.1,53.8-1797.4,52.8z M-1755.2,116.6c-11.6-4.3-21.3-10.7-28.6-19c-8.7-9.9-14.2-22.6-16.5-37.8
			c1.6,0.2,3.1,0.3,4.5,0.3c11.2,0,18.9-6.1,26.5-11.9c8.4-6.5,16.3-12.7,29-12.1c24.4,1.2,42.3,19.4,45.4,22.8
			c0,3.9,0.5,8.2,1.4,13c0.9,4.6-0.1,10-3.2,16.4c-1.5-1.3-3.4-2-5.5-2c-1.5,0-3,0.4-4.3,1.2c-4.1,2.5-10,6.6-14.7,12.1
			c-0.4,0.4-0.5,1-0.5,1.5c0.1,0.5,0.4,1,0.8,1.4c4.2,3.1,8,5,11.5,5.8c-3.9,5.5-7.2,10.4-8.3,14.4
			C-1722.3,122.7-1738.4,122.8-1755.2,116.6z M-1704.9,109.1l0.4-0.6c2.8-0.1,5.5-0.9,8.2-2.5c1.6-0.9,2.8-2.3,3.6-3.9
			c10.9,5.4,20.6,11.8,28.5,17.7c-4.5,6.2-9.9,9.1-11.5,9.8c-16-1.8-32.1-4.1-37.8-6.3C-1712.4,119.7-1708.7,114.6-1704.9,109.1z
			 M-1669.1,130.3c2.5-1.8,5.4-4.4,8.1-8.1c5.2,4,9.4,7.5,12.2,10C-1654.4,131.8-1661.6,131.1-1669.1,130.3z"/>
		<path id="XMLID_59_" class="st0" d="M-1729.6,43.1c-0.8,0.2-1.4,0.8-1.5,1.6c-1.9,9.4-7.5,15.9-16,18.5
			c-8.2-1.9-18.5-2.9-29.8-0.8c-1.1,0.2-1.8,1.2-1.6,2.3c0.2,1.1,1.3,1.8,2.3,1.6c9.5-1.8,18.4-1.2,25.8,0.3
			c0.5,0.1,4.6,1.1,5.3,1.2c9.4,2.6,15.4,6.1,15.5,6.2c0.3,0.2,0.7,0.3,1,0.3c0.5,0,1-0.2,1.4-0.6c0.1-0.1,12-12.7-0.5-29.9
			C-1728,43.3-1728.8,43-1729.6,43.1z M-1729,69.9c-2.1-1.1-6.2-3.1-11.9-4.9c1.1-0.6,2.1-1.2,3-1.9c2.9,3.5,7.3,4.4,10.2,4.6
			C-1728.1,68.5-1728.6,69.3-1729,69.9z M-1726.2,63.6c-2.1,0-6.1-0.3-8.6-3.3c2.8-2.8,4.9-6.3,6.4-10.4
			C-1725.5,55.4-1725.4,60.1-1726.2,63.6z"/>
	</g>
	<text id="XMLID_57_" transform="matrix(1 0 0 1 -1596.4314 79.3079)"><tspan x="0" y="0" style="font-family:'PoiretOne-Regular'; font-size:37px;">The</tspan><tspan x="0" y="44.4" style="font-family:'PoiretOne-Regular'; font-size:37px;">Traveling Maude</tspan></text>
</g>
<g id="XMLID_124_">
	<g id="XMLID_156_">
		<g id="XMLID_126_">
			<path id="XMLID_131_" class="st0" d="M-1110.5,50.4l-8.7-6.2l-10.9-11.3c-13-13.4-31.1-20.1-49.7-18.4
				c-18.6,1.7-35.2,11.6-45.5,27.2l-5.9,8.9c-13.8,20.8-19.8,46-16.9,70.8l0.4,3c-4.8,1.8-19.7,8-32.5,20.2c-0.8,0.8-0.8,2-0.1,2.8
				c0.4,0.4,0.9,0.6,1.4,0.6c0.5,0,1-0.2,1.4-0.6c14.5-13.8,32.4-19.8,32.6-19.9c0.9-0.3,1.5-1.2,1.4-2.1l-0.5-4.6
				c-2.3-19.7,1.2-39.7,10-57.3c2.6,14.6,8.3,26.8,16.9,36.6c7.8,8.9,18,15.7,30.2,20.2c14.6,5.4,28.6,6.2,35.8,6.2
				c2.2,0,3.7-0.1,4.5-0.1c1.1,0.5,2.7,1.1,4.7,1.6c2.4,2.8,16,19,25.6,37.3c0.4,0.7,1.1,1.1,1.8,1.1c0.3,0,0.6-0.1,0.9-0.2
				c1-0.5,1.4-1.7,0.8-2.7c-7.5-14.3-17.4-27.4-22.7-34c20,3.9,56.8,6.9,61.9,7.3c0.1,0,0.1,0,0.2,0c0.8,0,1.5-0.5,1.8-1.2
				c0.1-0.2,0.1-0.4,0.2-0.6c0,0,0,0,0,0C-1068.5,102-1083.5,69.6-1110.5,50.4z M-1075.2,130.4c-2.9-2.6-7.7-6.8-14-11.6
				c0.6-1,1.1-2.2,1.7-3.3c3.8-8.9,4.4-19.4,1.6-31.4C-1078.3,98.2-1074.5,114.1-1075.2,130.4z M-1094.1,71.6
				c6.7,16.9,7.7,31.1,2.9,42.2c-0.4,0.9-0.8,1.8-1.3,2.6c-8.2-6-18.4-12.7-29.7-18.2c0-1.5-0.3-3-1-4.5c-0.4-0.8-0.8-1.5-1.1-2
				c4.1-8,5.5-14.8,4.3-20.7c-2.2-11.5-1.2-18.8,0.1-22.3l6.9,4.9C-1105.6,58.7-1099.3,64.8-1094.1,71.6z M-1135.6,104.6
				C-1135.6,104.6-1135.6,104.6-1135.6,104.6c-3.4,0-7-1.3-11.2-4.2c4-4.3,8.7-7.5,12.2-9.6c0.7-0.4,1.5-0.6,2.3-0.6
				c1.4,0,2.7,0.6,3.5,1.7l0.8,1c0.2,0.3,0.7,1.3,1.4,2.6c1.3,2.6,0.4,5.7-2,7.1C-1131,103.9-1133.2,104.6-1135.6,104.6z
				 M-1227.8,52.8l5.9-8.9c9.6-14.5,25.1-23.8,42.5-25.4c17.4-1.6,34.3,4.7,46.4,17.2l10,10.3c-0.5,1.1-1.1,2.7-1.5,5
				c-0.1,0.8-0.3,1.5-0.4,2.3c-6.7-6.5-23.4-20.3-45.5-21.3c-14.2-0.7-23,6.2-31.6,12.9c-8.1,6.3-15.9,12.4-27.7,10.9
				C-1229.1,54.9-1228.5,53.8-1227.8,52.8z M-1185.5,116.6c-11.6-4.3-21.3-10.7-28.6-19c-8.7-9.9-14.2-22.6-16.5-37.8
				c1.6,0.2,3.1,0.3,4.5,0.3c11.2,0,18.9-6.1,26.5-11.9c8.4-6.5,16.3-12.7,29-12.1c24.4,1.2,42.3,19.4,45.4,22.8
				c0,3.9,0.5,8.2,1.4,13c0.9,4.6-0.1,10-3.2,16.4c-1.5-1.3-3.4-2-5.5-2c-1.5,0-3,0.4-4.3,1.2c-4.1,2.5-10,6.6-14.7,12.1
				c-0.4,0.4-0.5,1-0.5,1.5c0.1,0.5,0.4,1,0.8,1.4c4.2,3.1,8,5,11.5,5.8c-3.9,5.5-7.2,10.4-8.3,14.4
				C-1152.6,122.7-1168.8,122.8-1185.5,116.6z M-1135.2,109.1l0.4-0.6c2.8-0.1,5.5-0.9,8.2-2.5c1.6-0.9,2.8-2.3,3.6-3.9
				c10.9,5.4,20.6,11.8,28.5,17.7c-4.5,6.2-9.9,9.1-11.5,9.8c-16-1.8-32.1-4.1-37.8-6.3C-1142.7,119.7-1139.1,114.6-1135.2,109.1z
				 M-1099.4,130.3c2.5-1.8,5.4-4.4,8.1-8.1c5.2,4,9.4,7.5,12.2,10C-1084.8,131.8-1091.9,131.1-1099.4,130.3z"/>
			<path id="XMLID_127_" class="st0" d="M-1159.9,43.1c-0.8,0.2-1.4,0.8-1.5,1.6c-1.9,9.4-7.5,15.9-16,18.5
				c-8.2-1.9-18.5-2.9-29.8-0.8c-1.1,0.2-1.8,1.2-1.6,2.3c0.2,1.1,1.3,1.8,2.3,1.6c9.5-1.8,18.4-1.2,25.8,0.3
				c0.5,0.1,4.6,1.1,5.3,1.2c9.4,2.6,15.4,6.1,15.5,6.2c0.3,0.2,0.7,0.3,1,0.3c0.5,0,1-0.2,1.4-0.6c0.1-0.1,12-12.7-0.5-29.9
				C-1158.3,43.3-1159.1,43-1159.9,43.1z M-1159.3,69.9c-2.1-1.1-6.2-3.1-11.9-4.9c1.1-0.6,2.1-1.2,3-1.9c2.9,3.5,7.3,4.4,10.2,4.6
				C-1158.4,68.5-1158.9,69.3-1159.3,69.9z M-1156.5,63.6c-2.1,0-6.1-0.3-8.6-3.3c2.8-2.8,4.9-6.3,6.4-10.4
				C-1155.9,55.4-1155.7,60.1-1156.5,63.6z"/>
		</g>
		<text id="XMLID_125_" transform="matrix(1 0 0 1 -1280.8137 209.0192)"><tspan x="0" y="0" style="font-family:'PoiretOne-Regular'; font-size:37px;">The</tspan><tspan x="0" y="44.4" style="font-family:'PoiretOne-Regular'; font-size:37px;">Traveling Maude</tspan></text>
	</g>
	<g id="XMLID_140_">
		<g id="XMLID_142_">
			<path id="XMLID_147_" class="st0" d="M-798.9,50.4l-8.7-6.2L-818.4,33c-13-13.4-31.1-20.1-49.7-18.4
				c-18.6,1.7-35.2,11.6-45.5,27.2l-5.9,8.9c-13.8,20.8-19.8,46-16.9,70.8l0.4,3c-4.8,1.8-19.7,8-32.5,20.2c-0.8,0.8-0.8,2-0.1,2.8
				c0.4,0.4,0.9,0.6,1.4,0.6c0.5,0,1-0.2,1.4-0.6c14.5-13.8,32.4-19.8,32.6-19.9c0.9-0.3,1.5-1.2,1.4-2.1l-0.5-4.6
				c-2.3-19.7,1.2-39.7,10-57.3c2.6,14.5,8.3,26.8,16.9,36.6c7.8,8.9,18,15.7,30.2,20.2c14.6,5.4,28.6,6.2,35.8,6.2
				c2.2,0,3.7-0.1,4.5-0.1c1.1,0.5,2.7,1.1,4.7,1.6c2.4,2.8,16,19,25.6,37.3c0.4,0.7,1.1,1.1,1.8,1.1c0.3,0,0.6-0.1,0.9-0.2
				c1-0.5,1.4-1.7,0.8-2.7c-7.5-14.3-17.4-27.4-22.7-34c20,3.9,56.8,6.9,61.9,7.3c0.1,0,0.1,0,0.2,0c0.8,0,1.5-0.5,1.8-1.2
				c0.1-0.2,0.1-0.4,0.2-0.6c0,0,0,0,0,0C-756.9,102-771.8,69.6-798.9,50.4z M-763.6,130.4c-2.9-2.6-7.7-6.8-14-11.6
				c0.6-1,1.1-2.2,1.7-3.3c3.8-8.9,4.4-19.4,1.6-31.4C-766.7,98.2-762.9,114.1-763.6,130.4z M-782.4,71.6
				c6.7,16.9,7.7,31.1,2.9,42.2c-0.4,0.9-0.8,1.8-1.3,2.6c-8.2-6-18.4-12.7-29.7-18.2c0-1.5-0.3-3-1-4.5c-0.4-0.8-0.8-1.5-1.1-2
				c4.1-8,5.5-14.8,4.3-20.7c-2.2-11.5-1.2-18.8,0.1-22.3l6.9,4.9C-794,58.7-787.7,64.8-782.4,71.6z M-823.9,104.6
				C-823.9,104.6-823.9,104.6-823.9,104.6c-3.4,0-7-1.3-11.2-4.2c4-4.3,8.7-7.5,12.2-9.6c0.7-0.4,1.5-0.6,2.3-0.6
				c1.4,0,2.7,0.6,3.5,1.7l0.8,1c0.2,0.3,0.7,1.3,1.4,2.6c1.3,2.6,0.4,5.7-2,7.1C-819.3,103.9-821.6,104.6-823.9,104.6z
				 M-916.1,52.8l5.9-8.9c9.6-14.5,25.1-23.8,42.5-25.4c17.4-1.6,34.3,4.7,46.4,17.2l10,10.3c-0.5,1.1-1.1,2.7-1.5,5
				c-0.1,0.8-0.3,1.5-0.4,2.3c-6.7-6.5-23.4-20.3-45.5-21.3c-14.2-0.7-23,6.2-31.6,12.9c-8.1,6.3-15.9,12.4-27.7,10.9
				C-917.4,54.9-916.8,53.8-916.1,52.8z M-873.9,116.6c-11.6-4.3-21.3-10.7-28.6-19c-8.7-9.9-14.2-22.6-16.5-37.8
				c1.6,0.2,3.1,0.3,4.5,0.3c11.2,0,18.9-6.1,26.5-11.9c8.4-6.5,16.3-12.7,29-12.1c24.4,1.2,42.3,19.4,45.4,22.8
				c0,3.9,0.5,8.2,1.4,13c0.9,4.6-0.1,10-3.2,16.4c-1.5-1.3-3.4-2-5.5-2c-1.5,0-3,0.4-4.3,1.2c-4.1,2.5-10,6.6-14.7,12.1
				c-0.4,0.4-0.5,1-0.5,1.5c0.1,0.5,0.4,1,0.8,1.4c4.2,3.1,8,5,11.5,5.8c-3.9,5.5-7.2,10.4-8.3,14.4
				C-841,122.7-857.1,122.8-873.9,116.6z M-823.6,109.1l0.4-0.6c2.8-0.1,5.5-0.9,8.2-2.5c1.6-0.9,2.8-2.3,3.6-3.9
				c10.9,5.4,20.6,11.8,28.5,17.7c-4.5,6.2-9.9,9.1-11.5,9.8c-16-1.8-32.1-4.1-37.8-6.3C-831.1,119.7-827.4,114.6-823.6,109.1z
				 M-787.8,130.3c2.5-1.8,5.4-4.4,8.1-8.1c5.2,4,9.4,7.5,12.2,10C-773.1,131.8-780.3,131.1-787.8,130.3z"/>
			<path id="XMLID_143_" class="st0" d="M-848.3,43.1c-0.8,0.2-1.4,0.8-1.5,1.6c-1.9,9.4-7.5,15.9-16,18.5
				c-8.2-1.9-18.5-2.9-29.8-0.8c-1.1,0.2-1.8,1.2-1.6,2.3c0.2,1.1,1.3,1.8,2.3,1.6c9.5-1.8,18.4-1.2,25.8,0.3
				c0.5,0.1,4.6,1.1,5.3,1.2c9.4,2.6,15.4,6.1,15.5,6.2c0.3,0.2,0.7,0.3,1,0.3c0.5,0,1-0.2,1.4-0.6c0.1-0.1,12-12.7-0.5-29.9
				C-846.7,43.3-847.5,43-848.3,43.1z M-847.7,69.9c-2.1-1.1-6.2-3.1-11.9-4.9c1.1-0.6,2.1-1.2,3-1.9c2.9,3.5,7.3,4.4,10.2,4.6
				C-846.8,68.5-847.3,69.3-847.7,69.9z M-844.9,63.6c-2.1,0-6.1-0.3-8.6-3.3c2.8-2.8,4.9-6.3,6.4-10.4
				C-844.2,55.4-844.1,60.1-844.9,63.6z"/>
		</g>
		<text id="XMLID_141_" transform="matrix(1 0 0 1 -862.8772 208.0193)"><tspan x="0" y="0" style="font-family:'PoiretOne-Regular'; font-size:37px;">The</tspan><tspan x="-107.8" y="44.4" style="font-family:'PoiretOne-Regular'; font-size:37px;">Traveling Maude</tspan></text>
	</g>
</g>
<g id="XMLID_352_">
	<g id="XMLID_354_">
		<path id="XMLID_359_" class="st0" d="M-1680.2,583.4l-8.7-6.2l-10.9-11.3c-13-13.4-31.1-20.1-49.7-18.4
			c-18.6,1.7-35.2,11.6-45.5,27.2l-5.9,8.9c-13.8,20.8-19.8,46-16.9,70.8l0.4,3c-4.8,1.8-19.7,8-32.5,20.2c-0.8,0.8-0.8,2-0.1,2.8
			c0.4,0.4,0.9,0.6,1.4,0.6c0.5,0,1-0.2,1.4-0.6c14.5-13.8,32.4-19.8,32.6-19.9c0.9-0.3,1.5-1.2,1.4-2.1l-0.5-4.6
			c-2.3-19.7,1.2-39.7,10-57.3c2.6,14.5,8.3,26.8,16.9,36.6c7.8,8.9,18,15.7,30.2,20.2c14.6,5.4,28.6,6.2,35.8,6.2
			c2.2,0,3.7-0.1,4.5-0.1c1.1,0.5,2.7,1.1,4.7,1.6c2.4,2.8,16,19,25.6,37.3c0.4,0.7,1.1,1.1,1.8,1.1c0.3,0,0.6-0.1,0.9-0.2
			c1-0.5,1.4-1.7,0.8-2.7c-7.5-14.3-17.4-27.4-22.7-34c20,3.9,56.8,6.9,61.9,7.3c0.1,0,0.1,0,0.2,0c0.8,0,1.5-0.5,1.8-1.2
			c0.1-0.2,0.1-0.4,0.2-0.6c0,0,0,0,0,0C-1638.2,634.9-1653.1,602.5-1680.2,583.4z M-1644.9,663.4c-2.9-2.6-7.7-6.8-14-11.6
			c0.6-1,1.1-2.2,1.7-3.3c3.8-8.9,4.4-19.4,1.6-31.4C-1648,631.2-1644.2,647.1-1644.9,663.4z M-1663.7,604.6
			c6.7,16.9,7.7,31.1,2.9,42.2c-0.4,0.9-0.8,1.8-1.3,2.6c-8.2-6-18.4-12.7-29.7-18.2c0-1.5-0.3-3-1-4.5c-0.4-0.8-0.8-1.5-1.1-2
			c4.1-8,5.5-14.8,4.3-20.7c-2.2-11.5-1.2-18.8,0.1-22.3l6.9,4.9C-1675.3,591.7-1669,597.8-1663.7,604.6z M-1705.2,637.6
			C-1705.2,637.6-1705.2,637.6-1705.2,637.6c-3.4,0-7-1.3-11.2-4.2c4-4.3,8.7-7.5,12.2-9.6c0.7-0.4,1.5-0.6,2.3-0.6
			c1.4,0,2.7,0.6,3.5,1.7l0.8,1c0.2,0.3,0.7,1.3,1.4,2.6c1.3,2.6,0.4,5.7-2,7.1C-1700.6,636.9-1702.9,637.6-1705.2,637.6z
			 M-1797.4,585.8l5.9-8.9c9.6-14.5,25.1-23.8,42.5-25.4c17.4-1.6,34.3,4.7,46.4,17.2l10,10.3c-0.5,1.1-1.1,2.7-1.5,5
			c-0.1,0.8-0.3,1.5-0.4,2.3c-6.7-6.5-23.4-20.3-45.5-21.3c-14.2-0.7-23,6.2-31.6,12.9c-8.1,6.3-15.9,12.4-27.7,10.9
			C-1798.7,587.8-1798.1,586.8-1797.4,585.8z M-1755.2,649.6c-11.6-4.3-21.3-10.7-28.6-19c-8.7-9.9-14.2-22.6-16.5-37.8
			c1.6,0.2,3.1,0.3,4.5,0.3c11.2,0,18.9-6.1,26.5-11.9c8.4-6.5,16.3-12.7,29-12.1c24.4,1.2,42.3,19.4,45.4,22.8
			c0,3.9,0.5,8.2,1.4,13c0.9,4.6-0.1,10-3.2,16.4c-1.5-1.3-3.4-2-5.5-2c-1.5,0-3,0.4-4.3,1.2c-4.1,2.5-10,6.6-14.7,12.1
			c-0.4,0.4-0.5,1-0.5,1.5c0.1,0.5,0.4,1,0.8,1.4c4.2,3.1,8,5,11.5,5.8c-3.9,5.5-7.2,10.4-8.3,14.4
			C-1722.3,655.7-1738.4,655.8-1755.2,649.6z M-1704.9,642.1l0.4-0.6c2.8-0.1,5.5-0.9,8.2-2.5c1.6-0.9,2.8-2.3,3.6-3.9
			c10.9,5.4,20.6,11.8,28.5,17.7c-4.5,6.2-9.9,9.1-11.5,9.8c-16-1.8-32.1-4.1-37.8-6.3C-1712.4,652.7-1708.7,647.5-1704.9,642.1z
			 M-1669.1,663.3c2.5-1.8,5.4-4.4,8.1-8.1c5.2,4,9.4,7.5,12.2,10C-1654.4,664.8-1661.6,664.1-1669.1,663.3z"/>
		<path id="XMLID_355_" class="st0" d="M-1729.6,576.1c-0.8,0.2-1.4,0.8-1.5,1.6c-1.9,9.4-7.5,15.9-16,18.5
			c-8.2-1.9-18.5-2.9-29.8-0.8c-1.1,0.2-1.8,1.2-1.6,2.3c0.2,1.1,1.3,1.8,2.3,1.6c9.5-1.8,18.4-1.2,25.8,0.3
			c0.5,0.1,4.6,1.1,5.3,1.2c9.4,2.6,15.4,6.1,15.5,6.2c0.3,0.2,0.7,0.3,1,0.3c0.5,0,1-0.2,1.4-0.6c0.1-0.1,12-12.7-0.5-29.9
			C-1728,576.3-1728.8,576-1729.6,576.1z M-1729,602.8c-2.1-1.1-6.2-3.1-11.9-4.9c1.1-0.6,2.1-1.2,3-1.9c2.9,3.5,7.3,4.4,10.2,4.6
			C-1728.1,601.5-1728.6,602.3-1729,602.8z M-1726.2,596.6c-2.1,0-6.1-0.3-8.6-3.3c2.8-2.8,4.9-6.3,6.4-10.4
			C-1725.5,588.4-1725.4,593.1-1726.2,596.6z"/>
	</g>
	<text id="XMLID_353_" transform="matrix(1 0 0 1 -1596.4314 612.2996)"><tspan x="0" y="0" style="font-family:'Sacramento-Regular'; font-size:37px;">The</tspan><tspan x="0" y="44.4" style="font-family:'Sacramento-Regular'; font-size:37px;">Traveling Maude</tspan></text>
</g>
<g id="XMLID_462_">
	<g id="XMLID_421_">
		<path id="XMLID_448_" class="st1" d="M-496.5,114.8c0,0-0.9,4.7-1,11.7c-0.2,11.9,0.5,29.7,3.1,37.2c4,11.9,18.5,18.6,18.5,18.6
			l1.6-5.5c-22.8-6.5-15.7-44.4-14.7-62.2L-496.5,114.8z"/>
		<g id="XMLID_445_">
			<path id="XMLID_447_" class="st2" d="M-466.1,61c0,0-3.4-0.9-8.9,9.2c-5.5,10.1-9.4,44.7-10.2,46.4c-0.7,1.7-4.9,10-4.9,10
				s-7.4,0.4-7.5-0.1c-0.1-0.5-4.3-8.8-4.5-11.6c-0.3-2.8,9.7-39.3,9.8-40c0.1-0.7,2.8-9.3,6.3-12.2C-482.5,59.8-466.5,61-466.1,61z
				"/>
			<path id="XMLID_446_" class="st3" d="M-466.1,61c0,0-3.4-0.9-8.9,9.2c-5.5,10.1-9.4,44.7-10.2,46.4c-0.7,1.7-4.9,10-4.9,10
				s-7.4,0.4-7.5-0.1c-0.1-0.5-4.3-8.8-4.5-11.6c-0.3-2.8,9.7-39.3,9.8-40c0.1-0.7,2.8-9.3,6.3-12.2C-482.5,59.8-466.5,61-466.1,61z
				"/>
		</g>
		<path id="XMLID_444_" class="st4" d="M-464.4,69.7c-9.5-5.5-21.5-14.9-27.9,5.3c0.9-5.5,3.6-9.8,6.3-13.2c2.7-3.4,7-3.7,14.9-3.6
			c7.9,0.1,9.7-0.3,12.8,2c3.1,2.3,11.6,8.8,10,9.4C-449.7,70.3-464.4,69.7-464.4,69.7z"/>
		<path id="XMLID_443_" class="st1" d="M-536.6,124.1c0,0-0.7,4.8-0.5,12.1c0.3,12.2,1.8,30.4,4.7,38c4.7,12.1,19.8,18.3,19.8,18.3
			l1.4-5.7c-23.7-5.8-18-44.9-17.8-63.2L-536.6,124.1z"/>
		<g id="XMLID_440_">
			<path id="XMLID_442_" class="st2" d="M-507.7,67.7c0,0-3.5-0.7-8.7,9.8s-7.8,46.2-8.4,48c-0.7,1.8-4.6,10.5-4.6,10.5
				s-7.6,0.6-7.7,0.2c-0.1-0.5-4.8-8.8-5.1-11.7c-0.4-2.9,8.3-40.7,8.3-41.4c0.1-0.7,2.5-9.6,5.9-12.8
				C-524.6,67.2-508.1,67.7-507.7,67.7z"/>
			<path id="XMLID_441_" class="st3" d="M-507.7,67.7c0,0-3.5-0.7-8.7,9.8s-7.8,46.2-8.4,48c-0.7,1.8-4.6,10.5-4.6,10.5
				s-7.6,0.6-7.7,0.2c-0.1-0.5-4.8-8.8-5.1-11.7c-0.4-2.9,8.3-40.7,8.3-41.4c0.1-0.7,2.5-9.6,5.9-12.8
				C-524.6,67.2-508.1,67.7-507.7,67.7z"/>
		</g>
		<path id="XMLID_439_" class="st4" d="M-505.6,76.6c-10-5.3-22.6-14.4-28.3,6.5c0.7-5.7,3.3-10.2,5.9-13.8c2.6-3.6,7-4.1,15.1-4.3
			c8.2-0.2,9.9-0.6,13.2,1.6c3.3,2.2,12.2,8.5,10.7,9.3C-490.5,76.6-505.6,76.6-505.6,76.6z"/>
		<path id="XMLID_438_" class="st2" d="M-496.9,68.7c-3.5,1.1-8.2,2.2-14.4,18.9c-6.2,16.7,1.7,65.9,1.6,75.7
			c-0.2,9.8-4.5,15.8-4.7,23.6c-0.2,7.8,6.2,12.1,10.9,13.4c4.7,1.3,52.2,1.9,59.6-4.5c7.4-6.3,8.5-15.4,8.5-20.6
			c0-5.2,3.5-66.4,0.4-82.7C-441.2,59.6-468.9,67.6-496.9,68.7z"/>
		<path id="XMLID_437_" class="st1" d="M-485.9,97.4c-3.8,0.5-7,10.4-8.7,17.1c-1.7,6.7-1.7,54-0.2,58.6c1.6,4.6,5.2,6.1,13.6,8.2
			c8.3,2,43.6-4,45.9-6s5.5-61.3,2.7-66.8c-2.8-5.5-21-11.6-29-11.5C-469.6,97.2-485.9,97.4-485.9,97.4z"/>
		<path id="XMLID_436_" class="st5" d="M-448.4,182.9c0.8-5.3,4.6-22.5,4.4-50.2c0.6,0,9.1-0.4,9.1-0.4c-1,14.6-0.8,35.9-4.4,49.6
			L-448.4,182.9z"/>
		<path id="XMLID_435_" class="st6" d="M-446.3,111.1c2.5,10.3,1.4,17.6,2.9,25.8c0.6,3.3,4.7,6.8,5.1,6.7c0.4-0.1,3.2-7.1,3.3-7.7
			c0.4-4.2,0-13.5-1.9-25.6L-446.3,111.1z"/>
		<path id="XMLID_432_" class="st7" d="M-444.3,122.6h8.8c0.5,0,0.9,0.4,0.9,0.8l0.2,8.2c0,0.5-0.4,0.8-0.9,0.8h-8.8
			c-0.5,0-0.9-0.4-0.9-0.8l-0.2-8.2C-445.1,123-444.7,122.6-444.3,122.6L-444.3,122.6z M-443.5,123.4c-0.4,0-0.7,0.3-0.7,0.7
			l0.2,6.8c0,0.4,0.3,0.7,0.7,0.7h7.3c0.4,0,0.7-0.3,0.7-0.7l-0.2-6.8c0-0.4-0.3-0.7-0.7-0.7H-443.5z"/>
		<path id="XMLID_431_" class="st5" d="M-481.2,183.9c0.9-5.3,4.8-21.6,5.4-49.2c0.6,0,9.1-0.4,9.1-0.4c-1.5,14.6-1.8,35.9-5.8,49.6
			L-481.2,183.9z"/>
		<path id="XMLID_430_" class="st6" d="M-477.5,113c2.2,10.3,0.9,17.6,2.2,25.8c0.5,3.3,4.5,6.8,4.9,6.7c0.5-0.1,3.4-7.1,3.5-7.7
			c0.6-4.2,0.3-13.5-1.2-25.6L-477.5,113z"/>
		<path id="XMLID_429_" class="st8" d="M-508.3,80.7c0.2,1.8,2.1-5.2,10.7-1.3c8.5,3.9,4.3,23.3,10.3,33.1c6.1,10,48.1,14,54.7-4.1
			c2.5-6.9-1.6-25.8-6.2-31.7c-4.7-5.9-7.1-7.7-19.3-9.2C-471.1,66-510.7,61-508.3,80.7z"/>
		<path id="XMLID_428_" class="st6" d="M-508.1,80.3c1.8-0.5,2.3-7.7,10.9-3.8c8.5,3.9,5.4,24.5,11.5,34.3c6.1,10,46.4,13.8,53-4.3
			c2.5-6.9-1.6-25.8-6.2-31.7c-4.7-5.9-7.1-7.7-19.3-9.2C-471.3,64.1-508.7,60.5-508.1,80.3z"/>
		<path id="XMLID_425_" class="st7" d="M-475.7,124.4h8.8c0.5,0,0.9,0.4,0.9,0.8v8.2c0,0.5-0.4,0.8-0.9,0.8h-8.8
			c-0.5,0-0.9-0.4-0.9-0.8v-8.2C-476.6,124.8-476.2,124.4-475.7,124.4L-475.7,124.4z M-475,125.3c-0.4,0-0.7,0.3-0.7,0.7v6.8
			c0,0.4,0.3,0.7,0.7,0.7h7.3c0.4,0,0.7-0.3,0.7-0.7V126c0-0.4-0.3-0.7-0.7-0.7H-475z"/>
		<path id="XMLID_424_" class="st9" d="M-513.2,192.5c2,4.3,6.4,6.9,9.8,7.8c4.7,1.3,52.2,1.9,59.6-4.5c5-4.3,7.1-9.8,8-14.5
			c-2.4-3.5-1.5-0.8-5.5,0.3c-4.1,1.1-41.2,2.4-45.6,2.4c-4.5,0-10.9,5.9-16.9,8C-506.9,193-510.4,192.8-513.2,192.5z"/>
		<g id="XMLID_422_">
			<path id="XMLID_423_" class="st10" d="M-432.6,108.4c0.9-2.5,1-6.6,0.4-11.1c-0.7-8.2-3.6-18.4-6.8-22.5
				c-3.2-4.1-5.4-6.2-10.6-7.6c-2.3-2.3-6.6-5.5-8.6-7c-3.1-2.3-4.8-1.9-12.8-2c-1.1,0-2.2,0-3.2,0c16.2,12.9,27,35.8,27,61.9
				c0,40.3-25.6,72.9-57.3,72.9c-3.2,0-6.3-0.3-9.3-1c0.2,0.1,0.3,0.1,0.4,0.2c0,0.1,0.1,0.2,0.1,0.2c0,0,0,0,0,0c0,0,0,0,0,0.1
				c0.1,0.2,0.2,0.5,0.4,0.7c0,0,0,0,0,0c0.1,0.2,0.3,0.4,0.4,0.7c0,0,0.1,0.1,0.1,0.1c0.3,0.4,0.6,0.9,0.9,1.2c0,0,0.1,0.1,0.1,0.1
				c0.2,0.2,0.3,0.4,0.5,0.5c0,0,0,0,0,0c0.2,0.2,0.4,0.4,0.6,0.5c0,0,0.1,0.1,0.1,0.1c0.2,0.2,0.3,0.3,0.5,0.4c0,0,0,0,0.1,0.1
				c0.2,0.2,0.4,0.3,0.6,0.5c0,0,0.1,0.1,0.1,0.1c0.2,0.1,0.3,0.2,0.5,0.4c0,0,0.1,0,0.1,0.1c0.2,0.1,0.4,0.3,0.6,0.4
				c0,0,0.1,0,0.1,0.1c0.2,0.1,0.3,0.2,0.5,0.3c0,0,0.1,0,0.1,0.1c0.2,0.1,0.4,0.2,0.6,0.3c0,0,0.1,0,0.1,0c0.2,0.1,0.4,0.2,0.5,0.2
				c0,0,0.1,0,0.1,0.1c0.2,0.1,0.4,0.2,0.6,0.2c0,0,0,0,0.1,0c0.2,0.1,0.4,0.1,0.5,0.2c0.1,0,0.1,0,0.2,0c0.2,0.1,0.4,0.1,0.6,0.2
				c4.7,1.3,52.2,1.9,59.6-4.5c0.4-0.4,0.8-0.7,1.2-1.1c0.1-0.1,0.2-0.2,0.3-0.3c0.3-0.3,0.7-0.7,1-1.1c0,0,0,0,0.1-0.1
				c0.3-0.4,0.6-0.8,0.9-1.2c0.1-0.1,0.1-0.2,0.2-0.3c0.3-0.4,0.5-0.7,0.7-1.1c0,0,0.1-0.1,0.1-0.1c0.3-0.4,0.5-0.8,0.7-1.2
				c0.1-0.1,0.1-0.2,0.2-0.3c0.2-0.4,0.4-0.7,0.5-1.1c0-0.1,0.1-0.1,0.1-0.2c0.2-0.4,0.4-0.8,0.5-1.2c0-0.1,0.1-0.2,0.1-0.3
				c0.1-0.3,0.3-0.7,0.4-1c0-0.1,0.1-0.2,0.1-0.2c0.1-0.4,0.2-0.8,0.4-1.2c0-0.1,0.1-0.2,0.1-0.3c0.1-0.3,0.2-0.7,0.2-1
				c0-0.1,0-0.2,0.1-0.3c0.1-0.3,0.1-0.7,0.2-1c0,0,0,0,0,0c0.4-2.3,0.5-4.4,0.5-6C-433.1,173.2-429.9,114-432.6,108.4z"/>
		</g>
	</g>
	<text id="XMLID_461_" transform="matrix(1 0 0 1 -401.2588 125.2813)"><tspan x="0" y="0" style="fill:#3B1415; font-family:'PoiretOne-Regular'; font-size:37px;">The</tspan><tspan x="0" y="44.4" style="fill:#3B1415; font-family:'PoiretOne-Regular'; font-size:37px;">Traveling Maude</tspan></text>
</g>
<g id="XMLID_476_">
	<g id="XMLID_478_">
		<path id="XMLID_505_" class="st1" d="M-490.7,301c0,0-0.9,4.7-1,11.7c-0.2,11.9,0.5,29.7,3.1,37.2c4,11.9,18.5,18.6,18.5,18.6
			l1.6-5.5c-22.8-6.5-15.7-44.4-14.7-62.2L-490.7,301z"/>
		<g id="XMLID_502_">
			<path id="XMLID_504_" class="st2" d="M-460.3,247.2c0,0-3.4-0.9-8.9,9.2c-5.5,10.1-9.4,44.7-10.2,46.4c-0.7,1.7-4.9,10-4.9,10
				s-7.4,0.4-7.5-0.1c-0.1-0.5-4.3-8.8-4.5-11.6c-0.3-2.8,9.7-39.3,9.8-40c0.1-0.7,2.8-9.3,6.3-12.2
				C-476.8,246-460.7,247.2-460.3,247.2z"/>
			<path id="XMLID_503_" class="st3" d="M-460.3,247.2c0,0-3.4-0.9-8.9,9.2c-5.5,10.1-9.4,44.7-10.2,46.4c-0.7,1.7-4.9,10-4.9,10
				s-7.4,0.4-7.5-0.1c-0.1-0.5-4.3-8.8-4.5-11.6c-0.3-2.8,9.7-39.3,9.8-40c0.1-0.7,2.8-9.3,6.3-12.2
				C-476.8,246-460.7,247.2-460.3,247.2z"/>
		</g>
		<path id="XMLID_501_" class="st4" d="M-458.6,255.9c-9.5-5.5-21.5-14.9-27.9,5.3c0.9-5.5,3.6-9.8,6.3-13.2c2.7-3.4,7-3.7,14.9-3.6
			c7.9,0.1,9.7-0.3,12.8,2c3.1,2.3,11.6,8.8,10,9.4C-444,256.5-458.6,255.9-458.6,255.9z"/>
		<path id="XMLID_500_" class="st1" d="M-530.8,310.3c0,0-0.7,4.8-0.5,12.1c0.3,12.2,1.8,30.4,4.7,38c4.7,12.1,19.8,18.3,19.8,18.3
			l1.4-5.7c-23.7-5.8-18-44.9-17.8-63.2L-530.8,310.3z"/>
		<g id="XMLID_497_">
			<path id="XMLID_499_" class="st2" d="M-502,253.9c0,0-3.5-0.7-8.7,9.8c-5.2,10.6-7.8,46.2-8.4,48c-0.7,1.8-4.6,10.5-4.6,10.5
				s-7.6,0.6-7.7,0.2c-0.1-0.5-4.8-8.8-5.1-11.7c-0.4-2.9,8.3-40.7,8.3-41.4c0.1-0.7,2.5-9.6,5.9-12.8
				C-518.9,253.4-502.4,253.9-502,253.9z"/>
			<path id="XMLID_498_" class="st3" d="M-502,253.9c0,0-3.5-0.7-8.7,9.8c-5.2,10.6-7.8,46.2-8.4,48c-0.7,1.8-4.6,10.5-4.6,10.5
				s-7.6,0.6-7.7,0.2c-0.1-0.5-4.8-8.8-5.1-11.7c-0.4-2.9,8.3-40.7,8.3-41.4c0.1-0.7,2.5-9.6,5.9-12.8
				C-518.9,253.4-502.4,253.9-502,253.9z"/>
		</g>
		<path id="XMLID_496_" class="st4" d="M-499.8,262.8c-10-5.3-22.6-14.4-28.3,6.5c0.7-5.7,3.3-10.2,5.9-13.8c2.6-3.6,7-4.1,15.1-4.3
			c8.2-0.2,9.9-0.6,13.2,1.6c3.3,2.2,12.2,8.5,10.7,9.3C-484.8,262.8-499.8,262.8-499.8,262.8z"/>
		<path id="XMLID_495_" class="st2" d="M-491.1,254.9c-3.5,1.1-8.2,2.2-14.4,18.9c-6.2,16.7,1.7,65.9,1.6,75.7
			c-0.2,9.8-4.5,15.8-4.7,23.6c-0.2,7.8,6.2,12.1,10.9,13.4c4.7,1.3,52.2,1.9,59.6-4.5c7.4-6.3,8.5-15.4,8.5-20.6
			c0-5.2,3.5-66.4,0.4-82.7C-435.5,245.8-463.2,253.8-491.1,254.9z"/>
		<path id="XMLID_494_" class="st1" d="M-480.1,283.5c-3.8,0.5-7,10.4-8.7,17.1c-1.7,6.7-1.7,54-0.2,58.6c1.6,4.6,5.2,6.1,13.6,8.2
			c8.3,2,43.6-4,45.9-6s5.5-61.3,2.7-66.8c-2.8-5.5-21-11.6-29-11.5C-463.8,283.4-480.1,283.5-480.1,283.5z"/>
		<path id="XMLID_493_" class="st5" d="M-442.7,369.1c0.8-5.3,4.6-22.5,4.4-50.2c0.6,0,9.1-0.4,9.1-0.4c-1,14.6-0.8,35.9-4.4,49.6
			L-442.7,369.1z"/>
		<path id="XMLID_492_" class="st6" d="M-440.6,297.3c2.5,10.3,1.4,17.6,2.9,25.8c0.6,3.3,4.7,6.8,5.1,6.7c0.4-0.1,3.2-7.1,3.3-7.7
			c0.4-4.2,0-13.5-1.9-25.6L-440.6,297.3z"/>
		<path id="XMLID_489_" class="st7" d="M-438.5,308.8h8.8c0.5,0,0.9,0.4,0.9,0.8l0.2,8.2c0,0.5-0.4,0.8-0.9,0.8h-8.8
			c-0.5,0-0.9-0.4-0.9-0.8l-0.2-8.2C-439.4,309.1-439,308.8-438.5,308.8L-438.5,308.8z M-437.7,309.6c-0.4,0-0.7,0.3-0.7,0.7
			l0.2,6.8c0,0.4,0.3,0.7,0.7,0.7h7.3c0.4,0,0.7-0.3,0.7-0.7l-0.2-6.8c0-0.4-0.3-0.7-0.7-0.7H-437.7z"/>
		<path id="XMLID_488_" class="st5" d="M-475.4,370c0.9-5.3,4.8-21.6,5.4-49.2c0.6,0,9.1-0.4,9.1-0.4c-1.5,14.6-1.8,35.9-5.8,49.6
			L-475.4,370z"/>
		<path id="XMLID_487_" class="st6" d="M-471.7,299.2c2.2,10.3,0.9,17.6,2.2,25.8c0.5,3.3,4.5,6.8,4.9,6.7c0.5-0.1,3.4-7.1,3.5-7.7
			c0.6-4.2,0.3-13.5-1.2-25.6L-471.7,299.2z"/>
		<path id="XMLID_486_" class="st8" d="M-502.6,266.8c0.2,1.8,2.1-5.2,10.7-1.3c8.5,3.9,4.3,23.3,10.3,33.1c6.1,10,48.1,14,54.7-4.1
			c2.5-6.9-1.6-25.8-6.2-31.7c-4.7-5.9-7.1-7.7-19.3-9.2C-465.4,252.1-504.9,247.2-502.6,266.8z"/>
		<path id="XMLID_485_" class="st6" d="M-502.4,266.5c1.8-0.5,2.3-7.7,10.9-3.8c8.5,3.9,5.4,24.5,11.5,34.3c6.1,10,46.4,13.8,53-4.3
			c2.5-6.9-1.6-25.8-6.2-31.7c-4.7-5.9-7.1-7.7-19.3-9.2C-465.6,250.3-502.9,246.7-502.4,266.5z"/>
		<path id="XMLID_482_" class="st7" d="M-470,310.6h8.8c0.5,0,0.9,0.4,0.9,0.8v8.2c0,0.5-0.4,0.8-0.9,0.8h-8.8
			c-0.5,0-0.9-0.4-0.9-0.8v-8.2C-470.9,311-470.5,310.6-470,310.6L-470,310.6z M-469.2,311.5c-0.4,0-0.7,0.3-0.7,0.7v6.8
			c0,0.4,0.3,0.7,0.7,0.7h7.3c0.4,0,0.7-0.3,0.7-0.7v-6.8c0-0.4-0.3-0.7-0.7-0.7H-469.2z"/>
		<path id="XMLID_481_" class="st9" d="M-507.5,378.6c2,4.3,6.4,6.9,9.8,7.8c4.7,1.3,52.2,1.9,59.6-4.5c5-4.3,7.1-9.8,8-14.5
			c-2.4-3.5-1.5-0.8-5.5,0.3c-4.1,1.1-41.2,2.4-45.6,2.4c-4.5,0-10.9,5.9-16.9,8C-501.2,379.2-504.7,379-507.5,378.6z"/>
		<g id="XMLID_479_">
			<path id="XMLID_480_" class="st10" d="M-426.9,294.6c0.9-2.5,1-6.6,0.4-11.1c-0.7-8.2-3.6-18.4-6.8-22.5
				c-3.2-4.1-5.4-6.2-10.6-7.6c-2.3-2.3-6.6-5.5-8.6-7c-3.1-2.3-4.8-1.9-12.8-2c-1.1,0-2.2,0-3.2,0c16.2,12.9,27,35.8,27,61.9
				c0,40.3-25.6,72.9-57.3,72.9c-3.2,0-6.3-0.3-9.3-1c0.2,0.1,0.3,0.1,0.4,0.2c0,0.1,0.1,0.2,0.1,0.2c0,0,0,0,0,0c0,0,0,0,0,0.1
				c0.1,0.2,0.2,0.5,0.4,0.7c0,0,0,0,0,0c0.1,0.2,0.3,0.4,0.4,0.7c0,0,0.1,0.1,0.1,0.1c0.3,0.4,0.6,0.9,0.9,1.2c0,0,0.1,0.1,0.1,0.1
				c0.2,0.2,0.3,0.4,0.5,0.5c0,0,0,0,0,0c0.2,0.2,0.4,0.4,0.6,0.5c0,0,0.1,0.1,0.1,0.1c0.2,0.2,0.3,0.3,0.5,0.4c0,0,0,0,0.1,0.1
				c0.2,0.2,0.4,0.3,0.6,0.5c0,0,0.1,0.1,0.1,0.1c0.2,0.1,0.3,0.2,0.5,0.4c0,0,0.1,0,0.1,0.1c0.2,0.1,0.4,0.3,0.6,0.4
				c0,0,0.1,0,0.1,0.1c0.2,0.1,0.3,0.2,0.5,0.3c0,0,0.1,0,0.1,0.1c0.2,0.1,0.4,0.2,0.6,0.3c0,0,0.1,0,0.1,0c0.2,0.1,0.4,0.2,0.5,0.2
				c0,0,0.1,0,0.1,0.1c0.2,0.1,0.4,0.2,0.6,0.2c0,0,0,0,0.1,0c0.2,0.1,0.4,0.1,0.5,0.2c0.1,0,0.1,0,0.2,0c0.2,0.1,0.4,0.1,0.6,0.2
				c4.7,1.3,52.2,1.9,59.6-4.5c0.4-0.4,0.8-0.7,1.2-1.1c0.1-0.1,0.2-0.2,0.3-0.3c0.3-0.3,0.7-0.7,1-1.1c0,0,0,0,0.1-0.1
				c0.3-0.4,0.6-0.8,0.9-1.2c0.1-0.1,0.1-0.2,0.2-0.3c0.3-0.4,0.5-0.7,0.7-1.1c0,0,0.1-0.1,0.1-0.1c0.3-0.4,0.5-0.8,0.7-1.2
				c0.1-0.1,0.1-0.2,0.2-0.3c0.2-0.4,0.4-0.7,0.5-1.1c0-0.1,0.1-0.1,0.1-0.2c0.2-0.4,0.4-0.8,0.5-1.2c0-0.1,0.1-0.2,0.1-0.3
				c0.1-0.3,0.3-0.7,0.4-1c0-0.1,0.1-0.2,0.1-0.2c0.1-0.4,0.2-0.8,0.4-1.2c0-0.1,0.1-0.2,0.1-0.3c0.1-0.3,0.2-0.7,0.2-1
				c0-0.1,0-0.2,0.1-0.3c0.1-0.3,0.1-0.7,0.2-1c0,0,0,0,0,0c0.4-2.3,0.5-4.4,0.5-6C-427.3,359.4-424.1,300.1-426.9,294.6z"/>
		</g>
	</g>
	<text id="XMLID_477_" transform="matrix(1 0 0 1 -537.1533 437.4132)"><tspan x="0" y="0" style="fill:#3B1415; font-family:'PoiretOne-Regular'; font-size:37px;">The</tspan><tspan x="0" y="44.4" style="fill:#3B1415; font-family:'PoiretOne-Regular'; font-size:37px;">Traveling Maude</tspan></text>
</g>
<g id="XMLID_519_">
	<g id="XMLID_521_">
		<path id="XMLID_548_" class="st1" d="M-15.3,309.2c0,0-0.9,4.7-1,11.7c-0.2,11.9,0.5,29.7,3.1,37.2c4,11.9,18.5,18.6,18.5,18.6
			l1.6-5.5c-22.8-6.5-15.7-44.4-14.7-62.2L-15.3,309.2z"/>
		<g id="XMLID_545_">
			<path id="XMLID_547_" class="st2" d="M15.1,255.4c0,0-3.4-0.9-8.9,9.2c-5.5,10.1-9.4,44.7-10.2,46.4c-0.7,1.7-4.9,10-4.9,10
				s-7.4,0.4-7.5-0.1c-0.1-0.5-4.3-8.8-4.5-11.6c-0.3-2.8,9.7-39.3,9.8-40c0.1-0.7,2.8-9.3,6.3-12.2
				C-1.3,254.3,14.8,255.4,15.1,255.4z"/>
			<path id="XMLID_546_" class="st3" d="M15.1,255.4c0,0-3.4-0.9-8.9,9.2c-5.5,10.1-9.4,44.7-10.2,46.4c-0.7,1.7-4.9,10-4.9,10
				s-7.4,0.4-7.5-0.1c-0.1-0.5-4.3-8.8-4.5-11.6c-0.3-2.8,9.7-39.3,9.8-40c0.1-0.7,2.8-9.3,6.3-12.2
				C-1.3,254.3,14.8,255.4,15.1,255.4z"/>
		</g>
		<path id="XMLID_544_" class="st4" d="M16.9,264.2c-9.5-5.5-21.5-14.9-27.9,5.3c0.9-5.5,3.6-9.8,6.3-13.2c2.7-3.4,7-3.7,14.9-3.6
			c7.9,0.1,9.7-0.3,12.8,2c3.1,2.3,11.6,8.8,10,9.4C31.5,264.7,16.9,264.2,16.9,264.2z"/>
		<path id="XMLID_543_" class="st1" d="M-55.4,318.5c0,0-0.7,4.8-0.5,12.1c0.3,12.2,1.8,30.4,4.7,38c4.7,12.1,19.8,18.3,19.8,18.3
			l1.4-5.7c-23.7-5.8-18-44.9-17.8-63.2L-55.4,318.5z"/>
		<g id="XMLID_540_">
			<path id="XMLID_542_" class="st2" d="M-26.5,262.2c0,0-3.5-0.7-8.7,9.8c-5.2,10.6-7.8,46.2-8.4,48c-0.7,1.8-4.6,10.5-4.6,10.5
				s-7.6,0.6-7.7,0.2c-0.1-0.5-4.8-8.8-5.1-11.7c-0.4-2.9,8.3-40.7,8.3-41.4c0.1-0.7,2.5-9.6,5.9-12.8
				C-43.4,261.6-26.9,262.2-26.5,262.2z"/>
			<path id="XMLID_541_" class="st3" d="M-26.5,262.2c0,0-3.5-0.7-8.7,9.8c-5.2,10.6-7.8,46.2-8.4,48c-0.7,1.8-4.6,10.5-4.6,10.5
				s-7.6,0.6-7.7,0.2c-0.1-0.5-4.8-8.8-5.1-11.7c-0.4-2.9,8.3-40.7,8.3-41.4c0.1-0.7,2.5-9.6,5.9-12.8
				C-43.4,261.6-26.9,262.2-26.5,262.2z"/>
		</g>
		<path id="XMLID_539_" class="st4" d="M-24.4,271.1c-10-5.3-22.6-14.4-28.3,6.5c0.7-5.7,3.3-10.2,5.9-13.8c2.6-3.6,7-4.1,15.1-4.3
			c8.2-0.2,9.9-0.6,13.2,1.6c3.3,2.2,12.2,8.5,10.7,9.3C-9.3,271.1-24.4,271.1-24.4,271.1z"/>
		<path id="XMLID_538_" class="st2" d="M-15.7,263.2c-3.5,1.1-8.2,2.2-14.4,18.9c-6.2,16.7,1.7,65.9,1.6,75.7
			c-0.2,9.8-4.5,15.8-4.7,23.6c-0.2,7.8,6.2,12.1,10.9,13.4c4.7,1.3,52.2,1.9,59.6-4.5c7.4-6.3,8.5-15.4,8.5-20.6
			c0-5.2,3.5-66.4,0.4-82.7C40,254,12.3,262.1-15.7,263.2z"/>
		<path id="XMLID_537_" class="st1" d="M-4.6,291.8c-3.8,0.5-7,10.4-8.7,17.1c-1.7,6.7-1.7,54-0.2,58.6c1.6,4.6,5.2,6.1,13.6,8.2
			c8.3,2,43.6-4,45.9-6c2.3-2,5.5-61.3,2.7-66.8c-2.8-5.5-21-11.6-29-11.5C11.7,291.6-4.6,291.8-4.6,291.8z"/>
		<path id="XMLID_536_" class="st5" d="M32.8,377.4c0.8-5.3,4.6-22.5,4.4-50.2c0.6,0,9.1-0.4,9.1-0.4c-1,14.6-0.8,35.9-4.4,49.6
			L32.8,377.4z"/>
		<path id="XMLID_535_" class="st6" d="M34.9,305.6c2.5,10.3,1.4,17.6,2.9,25.8c0.6,3.3,4.7,6.8,5.1,6.7c0.4-0.1,3.2-7.1,3.3-7.7
			c0.4-4.2,0-13.5-1.9-25.6L34.9,305.6z"/>
		<path id="XMLID_532_" class="st7" d="M37,317h8.8c0.5,0,0.9,0.4,0.9,0.8l0.2,8.2c0,0.5-0.4,0.8-0.9,0.8h-8.8
			c-0.5,0-0.9-0.4-0.9-0.8l-0.2-8.2C36.1,317.4,36.5,317,37,317L37,317z M37.7,317.9c-0.4,0-0.7,0.3-0.7,0.7l0.2,6.8
			c0,0.4,0.3,0.7,0.7,0.7h7.3c0.4,0,0.7-0.3,0.7-0.7l-0.2-6.8c0-0.4-0.3-0.7-0.7-0.7H37.7z"/>
		<path id="XMLID_531_" class="st5" d="M0.1,378.3c0.9-5.3,4.8-21.6,5.4-49.2c0.6,0,9.1-0.4,9.1-0.4c-1.5,14.6-1.8,35.9-5.8,49.6
			L0.1,378.3z"/>
		<path id="XMLID_530_" class="st6" d="M3.7,307.4c2.2,10.3,0.9,17.6,2.2,25.8c0.5,3.3,4.5,6.8,4.9,6.7c0.5-0.1,3.4-7.1,3.5-7.7
			c0.6-4.2,0.3-13.5-1.2-25.6L3.7,307.4z"/>
		<path id="XMLID_529_" class="st8" d="M-27.1,275.1c0.2,1.8,2.1-5.2,10.7-1.3c8.5,3.9,4.3,23.3,10.3,33.1c6.1,10,48.1,14,54.7-4.1
			c2.5-6.9-1.6-25.8-6.2-31.7c-4.7-5.9-7.1-7.7-19.3-9.2C10.1,260.4-29.4,255.4-27.1,275.1z"/>
		<path id="XMLID_528_" class="st6" d="M-26.9,274.7c1.8-0.5,2.3-7.7,10.9-3.8c8.5,3.9,5.4,24.5,11.5,34.3c6.1,10,46.4,13.8,53-4.3
			c2.5-6.9-1.6-25.8-6.2-31.7c-4.7-5.9-7.1-7.7-19.3-9.2C9.9,258.5-27.4,254.9-26.9,274.7z"/>
		<path id="XMLID_525_" class="st7" d="M5.5,318.9h8.8c0.5,0,0.9,0.4,0.9,0.8v8.2c0,0.5-0.4,0.8-0.9,0.8H5.5c-0.5,0-0.9-0.4-0.9-0.8
			v-8.2C4.6,319.3,5,318.9,5.5,318.9L5.5,318.9z M6.3,319.7c-0.4,0-0.7,0.3-0.7,0.7v6.8c0,0.4,0.3,0.7,0.7,0.7h7.3
			c0.4,0,0.7-0.3,0.7-0.7v-6.8c0-0.4-0.3-0.7-0.7-0.7H6.3z"/>
		<path id="XMLID_524_" class="st9" d="M-32,386.9c2,4.3,6.4,6.9,9.8,7.8c4.7,1.3,52.2,1.9,59.6-4.5c5-4.3,7.1-9.8,8-14.5
			c-2.4-3.5-1.5-0.8-5.5,0.3c-4.1,1.1-41.2,2.4-45.6,2.4s-10.9,5.9-16.9,8C-25.7,387.4-29.2,387.3-32,386.9z"/>
		<g id="XMLID_522_">
			<path id="XMLID_523_" class="st10" d="M48.6,302.9c0.9-2.5,1-6.6,0.4-11.1c-0.7-8.2-3.6-18.4-6.8-22.5c-3.2-4.1-5.4-6.2-10.6-7.6
				c-2.3-2.3-6.6-5.5-8.6-7c-3.1-2.3-4.8-1.9-12.8-2c-1.1,0-2.2,0-3.2,0c16.2,12.9,27,35.8,27,61.9c0,40.3-25.6,72.9-57.3,72.9
				c-3.2,0-6.3-0.3-9.3-1c0.2,0.1,0.3,0.1,0.4,0.2c0,0.1,0.1,0.2,0.1,0.2c0,0,0,0,0,0c0,0,0,0,0,0.1c0.1,0.2,0.2,0.5,0.4,0.7
				c0,0,0,0,0,0c0.1,0.2,0.3,0.4,0.4,0.7c0,0,0.1,0.1,0.1,0.1c0.3,0.4,0.6,0.9,0.9,1.2c0,0,0.1,0.1,0.1,0.1c0.2,0.2,0.3,0.4,0.5,0.5
				c0,0,0,0,0,0c0.2,0.2,0.4,0.4,0.6,0.5c0,0,0.1,0.1,0.1,0.1c0.2,0.2,0.3,0.3,0.5,0.4c0,0,0,0,0.1,0.1c0.2,0.2,0.4,0.3,0.6,0.5
				c0,0,0.1,0.1,0.1,0.1c0.2,0.1,0.3,0.2,0.5,0.4c0,0,0.1,0,0.1,0.1c0.2,0.1,0.4,0.3,0.6,0.4c0,0,0.1,0,0.1,0.1
				c0.2,0.1,0.3,0.2,0.5,0.3c0,0,0.1,0,0.1,0.1c0.2,0.1,0.4,0.2,0.6,0.3c0,0,0.1,0,0.1,0c0.2,0.1,0.4,0.2,0.5,0.2c0,0,0.1,0,0.1,0.1
				c0.2,0.1,0.4,0.2,0.6,0.2c0,0,0,0,0.1,0c0.2,0.1,0.4,0.1,0.5,0.2c0.1,0,0.1,0,0.2,0c0.2,0.1,0.4,0.1,0.6,0.2
				c4.7,1.3,52.2,1.9,59.6-4.5c0.4-0.4,0.8-0.7,1.2-1.1c0.1-0.1,0.2-0.2,0.3-0.3c0.3-0.3,0.7-0.7,1-1.1c0,0,0,0,0.1-0.1
				c0.3-0.4,0.6-0.8,0.9-1.2c0.1-0.1,0.1-0.2,0.2-0.3c0.3-0.4,0.5-0.7,0.7-1.1c0,0,0.1-0.1,0.1-0.1c0.3-0.4,0.5-0.8,0.7-1.2
				c0.1-0.1,0.1-0.2,0.2-0.3c0.2-0.4,0.4-0.7,0.5-1.1c0-0.1,0.1-0.1,0.1-0.2c0.2-0.4,0.4-0.8,0.5-1.2c0-0.1,0.1-0.2,0.1-0.3
				c0.1-0.3,0.3-0.7,0.4-1c0-0.1,0.1-0.2,0.1-0.2c0.1-0.4,0.2-0.8,0.4-1.2c0-0.1,0.1-0.2,0.1-0.3c0.1-0.3,0.2-0.7,0.2-1
				c0-0.1,0-0.2,0.1-0.3c0.1-0.3,0.1-0.7,0.2-1c0,0,0,0,0,0c0.4-2.3,0.5-4.4,0.5-6C48.1,367.7,51.3,308.4,48.6,302.9z"/>
		</g>
	</g>
	<text id="XMLID_520_" transform="matrix(1 0 0 1 -136.259 441.7543)"><tspan x="0" y="0" style="fill:#3B1415; font-family:'PoiretOne-Regular'; font-size:37px;">The</tspan><tspan x="0" y="44.4" style="fill:#3B1415; font-family:'PoiretOne-Regular'; font-size:37px;">Traveling Maude</tspan></text>
</g>
<g id="XMLID_1_">
	<g id="XMLID_17_">
		<path id="XMLID_46_" class="st1" d="M-428.2,589.2c0,0-0.9,4.7-1,11.7c-0.2,11.9,0.5,29.7,3.1,37.2c4,11.9,18.5,18.6,18.5,18.6
			l1.6-5.5c-22.8-6.5-15.7-44.4-14.7-62.2L-428.2,589.2z"/>
		<g id="XMLID_43_">
			<path id="XMLID_45_" class="st2" d="M-397.8,535.4c0,0-3.4-0.9-8.9,9.2c-5.5,10.1-9.4,44.7-10.2,46.4c-0.7,1.7-4.9,10-4.9,10
				s-7.4,0.4-7.5-0.1c-0.1-0.5-4.3-8.8-4.5-11.6c-0.3-2.8,9.7-39.3,9.8-40c0.1-0.7,2.8-9.3,6.3-12.2
				C-414.3,534.3-398.2,535.4-397.8,535.4z"/>
			<path id="XMLID_44_" class="st3" d="M-397.8,535.4c0,0-3.4-0.9-8.9,9.2c-5.5,10.1-9.4,44.7-10.2,46.4c-0.7,1.7-4.9,10-4.9,10
				s-7.4,0.4-7.5-0.1c-0.1-0.5-4.3-8.8-4.5-11.6c-0.3-2.8,9.7-39.3,9.8-40c0.1-0.7,2.8-9.3,6.3-12.2
				C-414.3,534.3-398.2,535.4-397.8,535.4z"/>
		</g>
		<path id="XMLID_42_" class="st4" d="M-396.1,544.2c-9.5-5.5-21.5-14.9-27.9,5.3c0.9-5.5,3.6-9.8,6.3-13.2c2.7-3.4,7-3.7,14.9-3.6
			c7.9,0.1,9.7-0.3,12.8,2c3.1,2.3,11.6,8.8,10,9.4C-381.5,544.7-396.1,544.2-396.1,544.2z"/>
		<path id="XMLID_41_" class="st1" d="M-468.3,598.5c0,0-0.7,4.8-0.5,12.1c0.3,12.2,1.8,30.4,4.7,38c4.7,12.1,19.8,18.3,19.8,18.3
			l1.4-5.7c-23.7-5.8-18-44.9-17.8-63.2L-468.3,598.5z"/>
		<g id="XMLID_38_">
			<path id="XMLID_40_" class="st2" d="M-439.5,542.2c0,0-3.5-0.7-8.7,9.8c-5.2,10.6-7.8,46.2-8.4,48c-0.7,1.8-4.6,10.5-4.6,10.5
				s-7.6,0.6-7.7,0.2c-0.1-0.5-4.8-8.8-5.1-11.7c-0.4-2.9,8.3-40.7,8.3-41.4c0.1-0.7,2.5-9.6,5.9-12.8
				C-456.4,541.6-439.9,542.2-439.5,542.2z"/>
			<path id="XMLID_39_" class="st3" d="M-439.5,542.2c0,0-3.5-0.7-8.7,9.8c-5.2,10.6-7.8,46.2-8.4,48c-0.7,1.8-4.6,10.5-4.6,10.5
				s-7.6,0.6-7.7,0.2c-0.1-0.5-4.8-8.8-5.1-11.7c-0.4-2.9,8.3-40.7,8.3-41.4c0.1-0.7,2.5-9.6,5.9-12.8
				C-456.4,541.6-439.9,542.2-439.5,542.2z"/>
		</g>
		<path id="XMLID_37_" class="st4" d="M-437.3,551.1c-10-5.3-22.6-14.4-28.3,6.5c0.7-5.7,3.3-10.2,5.9-13.8c2.6-3.6,7-4.1,15.1-4.3
			c8.2-0.2,9.9-0.6,13.2,1.6c3.3,2.2,12.2,8.5,10.7,9.3C-422.3,551.1-437.3,551.1-437.3,551.1z"/>
		<path id="XMLID_36_" class="st2" d="M-428.6,543.2c-3.5,1.1-8.2,2.2-14.4,18.9c-6.2,16.7,1.7,65.9,1.6,75.7
			c-0.2,9.8-4.5,15.8-4.7,23.6c-0.2,7.8,6.2,12.1,10.9,13.4c4.7,1.3,52.2,1.9,59.6-4.5c7.4-6.3,8.5-15.4,8.5-20.6s3.5-66.4,0.4-82.7
			C-373,534-400.7,542.1-428.6,543.2z"/>
		<path id="XMLID_35_" class="st1" d="M-417.6,571.8c-3.8,0.5-7,10.4-8.7,17.1c-1.7,6.7-1.7,54-0.2,58.6c1.6,4.6,5.2,6.1,13.6,8.2
			c8.3,2,43.6-4,45.9-6c2.3-2,5.5-61.3,2.7-66.8c-2.8-5.5-21-11.6-29-11.5C-401.3,571.6-417.6,571.8-417.6,571.8z"/>
		<path id="XMLID_34_" class="st5" d="M-380.2,657.4c0.8-5.3,4.6-22.5,4.4-50.2c0.6,0,9.1-0.4,9.1-0.4c-1,14.6-0.8,35.9-4.4,49.6
			L-380.2,657.4z"/>
		<path id="XMLID_33_" class="st6" d="M-378.1,585.6c2.5,10.3,1.4,17.6,2.9,25.8c0.6,3.3,4.7,6.8,5.1,6.7c0.4-0.1,3.2-7.1,3.3-7.7
			c0.4-4.2,0-13.5-1.9-25.6L-378.1,585.6z"/>
		<path id="XMLID_30_" class="st7" d="M-376,597h8.8c0.5,0,0.9,0.4,0.9,0.8l0.2,8.2c0,0.5-0.4,0.8-0.9,0.8h-8.8
			c-0.5,0-0.9-0.4-0.9-0.8l-0.2-8.2C-376.9,597.4-376.5,597-376,597L-376,597z M-375.2,597.9c-0.4,0-0.7,0.3-0.7,0.7l0.2,6.8
			c0,0.4,0.3,0.7,0.7,0.7h7.3c0.4,0,0.7-0.3,0.7-0.7l-0.2-6.8c0-0.4-0.3-0.7-0.7-0.7H-375.2z"/>
		<path id="XMLID_27_" class="st5" d="M-412.9,658.3c0.9-5.3,4.8-21.6,5.4-49.2c0.6,0,9.1-0.4,9.1-0.4c-1.5,14.6-1.8,35.9-5.8,49.6
			L-412.9,658.3z"/>
		<path id="XMLID_26_" class="st6" d="M-409.2,587.4c2.2,10.3,0.9,17.6,2.2,25.8c0.5,3.3,4.5,6.8,4.9,6.7c0.5-0.1,3.4-7.1,3.5-7.7
			c0.6-4.2,0.3-13.5-1.2-25.6L-409.2,587.4z"/>
		<path id="XMLID_25_" class="st8" d="M-440.1,555.1c0.2,1.8,2.1-5.2,10.7-1.3c8.5,3.9,4.3,23.3,10.3,33.1c6.1,10,48.1,14,54.7-4.1
			c2.5-6.9-1.6-25.8-6.2-31.7c-4.7-5.9-7.1-7.7-19.3-9.2C-402.9,540.4-442.4,535.4-440.1,555.1z"/>
		<path id="XMLID_24_" class="st6" d="M-439.9,554.7c1.8-0.5,2.3-7.7,10.9-3.8c8.5,3.9,5.4,24.5,11.5,34.3c6.1,10,46.4,13.8,53-4.3
			c2.5-6.9-1.6-25.8-6.2-31.7c-4.7-5.9-7.1-7.7-19.3-9.2C-403.1,538.5-440.4,534.9-439.9,554.7z"/>
		<path id="XMLID_21_" class="st7" d="M-407.5,598.9h8.8c0.5,0,0.9,0.4,0.9,0.8v8.2c0,0.5-0.4,0.8-0.9,0.8h-8.8
			c-0.5,0-0.9-0.4-0.9-0.8v-8.2C-408.4,599.3-408,598.9-407.5,598.9L-407.5,598.9z M-406.7,599.7c-0.4,0-0.7,0.3-0.7,0.7v6.8
			c0,0.4,0.3,0.7,0.7,0.7h7.3c0.4,0,0.7-0.3,0.7-0.7v-6.8c0-0.4-0.3-0.7-0.7-0.7H-406.7z"/>
		<path id="XMLID_20_" class="st9" d="M-445,666.9c2,4.3,6.4,6.9,9.8,7.8c4.7,1.3,52.2,1.9,59.6-4.5c5-4.3,7.1-9.8,8-14.5
			c-2.4-3.5-1.5-0.8-5.5,0.3c-4.1,1.1-41.2,2.4-45.6,2.4s-10.9,5.9-16.9,8C-438.7,667.4-442.1,667.3-445,666.9z"/>
		<g id="XMLID_18_">
			<path id="XMLID_19_" class="st10" d="M-364.4,582.9c0.9-2.5,1-6.6,0.4-11.1c-0.7-8.2-3.6-18.4-6.8-22.5
				c-3.2-4.1-5.4-6.2-10.6-7.6c-2.3-2.3-6.6-5.5-8.6-7c-3.1-2.3-4.8-1.9-12.8-2c-1.1,0-2.2,0-3.2,0c16.2,12.9,27,35.8,27,61.9
				c0,40.3-25.6,72.9-57.3,72.9c-3.2,0-6.3-0.3-9.3-1c0.2,0.1,0.3,0.1,0.4,0.2c0,0.1,0.1,0.2,0.1,0.2c0,0,0,0,0,0c0,0,0,0,0,0.1
				c0.1,0.2,0.2,0.5,0.4,0.7c0,0,0,0,0,0c0.1,0.2,0.3,0.4,0.4,0.7c0,0,0.1,0.1,0.1,0.1c0.3,0.4,0.6,0.9,0.9,1.2c0,0,0.1,0.1,0.1,0.1
				c0.2,0.2,0.3,0.4,0.5,0.5c0,0,0,0,0,0c0.2,0.2,0.4,0.4,0.6,0.5c0,0,0.1,0.1,0.1,0.1c0.2,0.2,0.3,0.3,0.5,0.4c0,0,0,0,0.1,0.1
				c0.2,0.2,0.4,0.3,0.6,0.5c0,0,0.1,0.1,0.1,0.1c0.2,0.1,0.3,0.2,0.5,0.4c0,0,0.1,0,0.1,0.1c0.2,0.1,0.4,0.3,0.6,0.4
				c0,0,0.1,0,0.1,0.1c0.2,0.1,0.3,0.2,0.5,0.3c0,0,0.1,0,0.1,0.1c0.2,0.1,0.4,0.2,0.6,0.3c0,0,0.1,0,0.1,0c0.2,0.1,0.4,0.2,0.5,0.2
				c0,0,0.1,0,0.1,0.1c0.2,0.1,0.4,0.2,0.6,0.2c0,0,0,0,0.1,0c0.2,0.1,0.4,0.1,0.5,0.2c0.1,0,0.1,0,0.2,0c0.2,0.1,0.4,0.1,0.6,0.2
				c4.7,1.3,52.2,1.9,59.6-4.5c0.4-0.4,0.8-0.7,1.2-1.1c0.1-0.1,0.2-0.2,0.3-0.3c0.3-0.3,0.7-0.7,1-1.1c0,0,0,0,0.1-0.1
				c0.3-0.4,0.6-0.8,0.9-1.2c0.1-0.1,0.1-0.2,0.2-0.3c0.3-0.4,0.5-0.7,0.7-1.1c0,0,0.1-0.1,0.1-0.1c0.3-0.4,0.5-0.8,0.7-1.2
				c0.1-0.1,0.1-0.2,0.2-0.3c0.2-0.4,0.4-0.7,0.5-1.1c0-0.1,0.1-0.1,0.1-0.2c0.2-0.4,0.4-0.8,0.5-1.2c0-0.1,0.1-0.2,0.1-0.3
				c0.1-0.3,0.3-0.7,0.4-1c0-0.1,0.1-0.2,0.1-0.2c0.1-0.4,0.2-0.8,0.4-1.2c0-0.1,0.1-0.2,0.1-0.3c0.1-0.3,0.2-0.7,0.2-1
				c0-0.1,0-0.2,0.1-0.3c0.1-0.3,0.1-0.7,0.2-1c0,0,0,0,0,0c0.4-2.3,0.5-4.4,0.5-6C-364.8,647.7-361.6,588.4-364.4,582.9z"/>
		</g>
	</g>
	
		<text id="XMLID_16_" transform="matrix(1 0 0 1 -573.2387 721.7543)" style="fill:#4C2C2F; font-family:'PoiretOne-Regular'; font-size:37px;">The Traveling Maude</text>
</g>
<g id="XMLID_76_">
	<path id="XMLID_103_" class="st1" d="M65.2,61.7c0,0-0.7,3.9-0.9,9.8c-0.2,9.9,0.4,24.7,2.5,30.9c3.4,9.9,15.4,15.4,15.4,15.4
		l1.3-4.6c-18.9-5.4-13-36.9-12.2-51.6L65.2,61.7z"/>
	<g id="XMLID_100_">
		<path id="XMLID_102_" class="st2" d="M90.4,17c0,0-2.8-0.7-7.4,7.7c-4.6,8.4-7.8,37.1-8.4,38.5c-0.6,1.4-4,8.3-4,8.3
			s-6.1,0.3-6.2-0.1c-0.1-0.4-3.5-7.3-3.8-9.6c-0.2-2.3,8-32.6,8.1-33.2c0.1-0.6,2.4-7.7,5.2-10.2C76.8,16.1,90.1,17,90.4,17z"/>
		<path id="XMLID_101_" class="st3" d="M90.4,17c0,0-2.8-0.7-7.4,7.7c-4.6,8.4-7.8,37.1-8.4,38.5c-0.6,1.4-4,8.3-4,8.3
			s-6.1,0.3-6.2-0.1c-0.1-0.4-3.5-7.3-3.8-9.6c-0.2-2.3,8-32.6,8.1-33.2c0.1-0.6,2.4-7.7,5.2-10.2C76.8,16.1,90.1,17,90.4,17z"/>
	</g>
	<path id="XMLID_99_" class="st4" d="M91.8,24.3C83.9,19.7,74,12,68.7,28.7c0.7-4.6,3-8.1,5.3-11c2.2-2.8,5.8-3.1,12.4-3
		c6.6,0.1,8-0.2,10.6,1.7c2.6,1.9,9.6,7.3,8.3,7.8C104,24.7,91.8,24.3,91.8,24.3z"/>
	<path id="XMLID_98_" class="st1" d="M31.9,69.4c0,0-0.6,4-0.5,10c0.2,10.1,1.5,25.3,3.9,31.5c3.9,10,16.4,15.2,16.4,15.2l1.2-4.8
		C33.3,116.7,38,84.2,38.2,69L31.9,69.4z"/>
	<g id="XMLID_95_">
		<path id="XMLID_97_" class="st2" d="M55.9,22.6c0,0-2.9-0.6-7.3,8.2c-4.4,8.8-6.4,38.3-7,39.8c-0.6,1.5-3.8,8.7-3.8,8.7
			s-6.3,0.5-6.4,0.2c-0.1-0.4-3.9-7.3-4.3-9.7C26.9,67.4,34,36,34.1,35.4c0.1-0.6,2.1-8,4.9-10.6C41.8,22.2,55.5,22.6,55.9,22.6z"/>
		<path id="XMLID_96_" class="st3" d="M55.9,22.6c0,0-2.9-0.6-7.3,8.2c-4.4,8.8-6.4,38.3-7,39.8c-0.6,1.5-3.8,8.7-3.8,8.7
			s-6.3,0.5-6.4,0.2c-0.1-0.4-3.9-7.3-4.3-9.7C26.9,67.4,34,36,34.1,35.4c0.1-0.6,2.1-8,4.9-10.6C41.8,22.2,55.5,22.6,55.9,22.6z"/>
	</g>
	<path id="XMLID_94_" class="st4" d="M57.6,30c-8.3-4.4-18.8-11.9-23.5,5.4c0.6-4.7,2.7-8.5,4.9-11.5c2.2-3,5.8-3.4,12.6-3.5
		c6.8-0.2,8.2-0.5,11,1.3c2.7,1.8,10.2,7.1,8.9,7.7C70.1,30,57.6,30,57.6,30z"/>
	<path id="XMLID_93_" class="st2" d="M64.9,23.5c-2.9,0.9-6.8,1.8-11.9,15.7C47.8,53,54.4,93.8,54.2,102c-0.2,8.2-3.7,13.1-3.9,19.6
		c-0.2,6.5,5.2,10,9,11.1c3.9,1.1,43.3,1.5,49.5-3.7c6.1-5.2,7.1-12.8,7.1-17.1c0-4.3,2.9-55.1,0.3-68.7
		C111.1,15.9,88.1,22.6,64.9,23.5z"/>
	<path id="XMLID_92_" class="st1" d="M74,47.2c-3.1,0.4-5.8,8.6-7.3,14.2c-1.5,5.5-1.5,44.8-0.2,48.7c1.3,3.8,4.4,5.1,11.3,6.8
		c6.9,1.7,36.2-3.3,38.1-5c1.9-1.7,4.6-50.9,2.3-55.4c-2.3-4.6-17.4-9.7-24.1-9.5C87.5,47.1,74,47.2,74,47.2z"/>
	<path id="XMLID_91_" class="st5" d="M105.1,118.2c0.6-4.4,3.8-18.7,3.6-41.6c0.5,0,7.6-0.3,7.6-0.3c-0.9,12.1-0.6,29.8-3.7,41.2
		L105.1,118.2z"/>
	<path id="XMLID_90_" class="st6" d="M106.8,58.7c2,8.6,1.1,14.6,2.4,21.4c0.5,2.7,3.9,5.6,4.2,5.5c0.4-0.1,2.7-5.9,2.7-6.4
		c0.4-3.5,0-11.2-1.6-21.2L106.8,58.7z"/>
	<path id="XMLID_87_" class="st7" d="M108.5,68.2h7.3c0.4,0,0.7,0.3,0.7,0.7l0.2,6.8c0,0.4-0.3,0.7-0.7,0.7h-7.3
		c-0.4,0-0.7-0.3-0.7-0.7l-0.2-6.8C107.8,68.5,108.1,68.2,108.5,68.2L108.5,68.2z M109.2,68.9c-0.3,0-0.6,0.3-0.6,0.6l0.2,5.6
		c0,0.3,0.3,0.6,0.6,0.6h6.1c0.3,0,0.6-0.3,0.6-0.6l-0.2-5.6c0-0.3-0.3-0.6-0.6-0.6H109.2z"/>
	<path id="XMLID_86_" class="st5" d="M77.9,119c0.8-4.4,4-17.9,4.5-40.9c0.5,0,7.6-0.3,7.6-0.3c-1.2,12.1-1.5,29.8-4.8,41.2
		L77.9,119z"/>
	<path id="XMLID_85_" class="st6" d="M81,60.2c1.8,8.6,0.7,14.6,1.8,21.4c0.4,2.7,3.7,5.6,4.1,5.5c0.4-0.1,2.8-5.9,2.9-6.4
		c0.5-3.5,0.3-11.2-1-21.2L81,60.2z"/>
	<path id="XMLID_84_" class="st8" d="M55.4,33.4c0.2,1.5,1.8-4.3,8.9-1c7.1,3.2,3.5,19.3,8.5,27.5c5.1,8.3,39.9,11.6,45.4-3.4
		c2.1-5.7-1.3-21.4-5.2-26.3c-3.9-4.9-5.9-6.4-16-7.6C86.2,21.2,53.4,17,55.4,33.4z"/>
	<path id="XMLID_83_" class="st6" d="M55.5,33.1c1.5-0.4,1.9-6.4,9-3.1c7.1,3.2,4.5,20.3,9.5,28.5c5.1,8.3,38.5,11.4,44-3.5
		c2.1-5.7-1.3-21.4-5.2-26.3c-3.9-4.9-5.9-6.4-16-7.6C86.1,19.6,55.1,16.6,55.5,33.1z"/>
	<path id="XMLID_80_" class="st7" d="M82.4,69.7h7.3c0.4,0,0.7,0.3,0.7,0.7v6.8c0,0.4-0.3,0.7-0.7,0.7h-7.3c-0.4,0-0.7-0.3-0.7-0.7
		v-6.8C81.7,70,82,69.7,82.4,69.7L82.4,69.7z M83,70.4c-0.3,0-0.6,0.3-0.6,0.6v5.6c0,0.3,0.3,0.6,0.6,0.6h6.1c0.3,0,0.6-0.3,0.6-0.6
		V71c0-0.3-0.3-0.6-0.6-0.6H83z"/>
	<path id="XMLID_79_" class="st9" d="M51.3,126.1c1.7,3.6,5.3,5.7,8.1,6.5c3.9,1.1,43.3,1.5,49.5-3.7c4.1-3.5,5.9-8.1,6.6-12.1
		c-2-2.9-1.2-0.7-4.6,0.2c-3.4,0.9-34.2,2-37.9,2s-9,4.9-14,6.6C56.5,126.6,53.6,126.5,51.3,126.1z"/>
	<g id="XMLID_77_">
		<path id="XMLID_78_" class="st10" d="M118.2,56.4c0.8-2.1,0.8-5.5,0.3-9.2c-0.6-6.8-3-15.3-5.7-18.7c-2.7-3.4-4.5-5.2-8.8-6.3
			c-1.9-1.9-5.5-4.6-7.2-5.8c-2.6-1.9-4-1.6-10.6-1.7c-0.9,0-1.8,0-2.6,0c13.4,10.7,22.4,29.7,22.4,51.4c0,33.4-21.3,60.5-47.5,60.5
			c-2.6,0-5.2-0.3-7.7-0.8c0.1,0.1,0.2,0.1,0.3,0.2c0,0.1,0.1,0.1,0.1,0.2c0,0,0,0,0,0c0,0,0,0,0,0.1c0.1,0.2,0.2,0.4,0.3,0.6
			c0,0,0,0,0,0c0.1,0.2,0.2,0.4,0.3,0.5c0,0,0.1,0.1,0.1,0.1c0.2,0.4,0.5,0.7,0.8,1c0,0,0.1,0.1,0.1,0.1c0.1,0.2,0.3,0.3,0.4,0.4
			c0,0,0,0,0,0c0.1,0.2,0.3,0.3,0.5,0.4c0,0,0.1,0.1,0.1,0.1c0.1,0.1,0.3,0.2,0.4,0.4c0,0,0,0,0.1,0.1c0.2,0.1,0.3,0.3,0.5,0.4
			c0,0,0.1,0,0.1,0.1c0.1,0.1,0.3,0.2,0.4,0.3c0,0,0.1,0,0.1,0.1c0.2,0.1,0.3,0.2,0.5,0.3c0,0,0.1,0,0.1,0.1
			c0.1,0.1,0.3,0.2,0.4,0.2c0,0,0.1,0,0.1,0.1c0.2,0.1,0.3,0.2,0.5,0.3c0,0,0.1,0,0.1,0c0.1,0.1,0.3,0.1,0.4,0.2c0,0,0.1,0,0.1,0.1
			c0.2,0.1,0.3,0.1,0.5,0.2c0,0,0,0,0.1,0c0.1,0.1,0.3,0.1,0.4,0.2c0,0,0.1,0,0.1,0c0.2,0.1,0.3,0.1,0.5,0.1
			c3.9,1.1,43.3,1.5,49.5-3.7c0.3-0.3,0.7-0.6,1-0.9c0.1-0.1,0.2-0.2,0.2-0.2c0.3-0.3,0.6-0.6,0.8-0.9c0,0,0,0,0.1-0.1
			c0.3-0.3,0.5-0.6,0.8-1c0.1-0.1,0.1-0.2,0.2-0.3c0.2-0.3,0.4-0.6,0.6-0.9c0,0,0.1-0.1,0.1-0.1c0.2-0.3,0.4-0.7,0.6-1
			c0-0.1,0.1-0.2,0.1-0.3c0.2-0.3,0.3-0.6,0.4-0.9c0-0.1,0.1-0.1,0.1-0.2c0.2-0.3,0.3-0.7,0.4-1c0-0.1,0.1-0.2,0.1-0.3
			c0.1-0.3,0.2-0.6,0.3-0.9c0-0.1,0-0.1,0.1-0.2c0.1-0.3,0.2-0.7,0.3-1c0-0.1,0-0.2,0.1-0.3c0.1-0.3,0.1-0.5,0.2-0.8
			c0-0.1,0-0.1,0-0.2c0.1-0.3,0.1-0.6,0.2-0.8c0,0,0,0,0,0c0.3-1.9,0.5-3.6,0.5-5C117.8,110.2,120.5,61,118.2,56.4z"/>
	</g>
</g>
<path id="XMLID_215_" class="st11" d="M75,147.8L75,147.8c-40.2,0-72.8-32.6-72.8-72.7v0C2.3,34.8,34.8,2.3,75,2.3h0
	c40.2,0,72.7,32.6,72.7,72.7v0C147.8,115.2,115.2,147.8,75,147.8z"/>
</svg>
