<?xml version="1.0" encoding="utf-8"?>
<!-- Generator: Adobe Illustrator 19.0.0, SVG Export Plug-In . SVG Version: 6.00 Build 0)  -->
<svg version="1.1" id="Capa_1" xmlns="http://www.w3.org/2000/svg" xmlns:xlink="http://www.w3.org/1999/xlink" x="0px" y="0px"
	 viewBox="-13.1 307.5 264.7 241.3" style="enable-background:new -13.1 307.5 264.7 241.3;" xml:space="preserve">
<style type="text/css">
	.st0{fill-rule:evenodd;clip-rule:evenodd;fill:#BEB3B3;}
	.st1{fill-rule:evenodd;clip-rule:evenodd;fill:#801C1F;}
	.st2{fill:none;stroke:#373334;stroke-width:0.5;stroke-miterlimit:2.6131;}
	.st3{fill-rule:evenodd;clip-rule:evenodd;fill:#C34846;}
	.st4{fill-rule:evenodd;clip-rule:evenodd;fill:#C44846;}
	.st5{fill-rule:evenodd;clip-rule:evenodd;fill:#BC3C3C;}
	.st6{fill-rule:evenodd;clip-rule:evenodd;fill:#AEAFB1;}
	.st7{fill-rule:evenodd;clip-rule:evenodd;fill:#7F2026;}
	.st8{fill-rule:evenodd;clip-rule:evenodd;fill:#7A1317;}
	.st9{fill-rule:evenodd;clip-rule:evenodd;fill:#E8E8E9;}
	.st10{fill:#3B1314;}
	.st11{font-family:'PoiretOne-Regular';}
	.st12{font-size:37px;}
</style>
<g id="XMLID_519_">
	<g id="XMLID_521_">
		<path id="XMLID_548_" class="st0" d="M107.9,364.2c0,0-0.9,4.7-1,11.7c-0.2,11.9,0.5,29.7,3.1,37.2c4,11.9,18.5,18.6,18.5,18.6
			l1.6-5.5c-22.8-6.5-15.7-44.4-14.7-62.2L107.9,364.2z"/>
		<g id="XMLID_545_">
			<path id="XMLID_547_" class="st1" d="M138.3,310.4c0,0-3.4-0.9-8.9,9.2c-5.5,10.1-9.4,44.7-10.2,46.4c-0.7,1.7-4.9,10-4.9,10
				s-7.4,0.4-7.5-0.1c-0.1-0.5-4.3-8.8-4.5-11.6c-0.3-2.8,9.7-39.3,9.8-40c0.1-0.7,2.8-9.3,6.3-12.2
				C121.9,309.2,138,310.3,138.3,310.4z"/>
			<path id="XMLID_546_" class="st2" d="M138.3,310.4c0,0-3.4-0.9-8.9,9.2c-5.5,10.1-9.4,44.7-10.2,46.4c-0.7,1.7-4.9,10-4.9,10
				s-7.4,0.4-7.5-0.1c-0.1-0.5-4.3-8.8-4.5-11.6c-0.3-2.8,9.7-39.3,9.8-40c0.1-0.7,2.8-9.3,6.3-12.2
				C121.9,309.2,138,310.3,138.3,310.4z"/>
		</g>
		<path id="XMLID_544_" class="st3" d="M140,319.1c-9.5-5.5-21.5-14.9-27.9,5.3c0.9-5.5,3.6-9.8,6.3-13.2c2.7-3.4,7-3.7,14.9-3.6
			c7.9,0.1,9.7-0.3,12.8,2c3.1,2.3,11.6,8.8,10,9.4C154.7,319.7,140,319.1,140,319.1z"/>
		<path id="XMLID_543_" class="st0" d="M67.8,373.5c0,0-0.7,4.8-0.5,12.1c0.3,12.2,1.8,30.4,4.7,38c4.7,12.1,19.8,18.3,19.8,18.3
			l1.4-5.7c-23.7-5.8-18-44.9-17.8-63.2L67.8,373.5z"/>
		<g id="XMLID_540_">
			<path id="XMLID_542_" class="st1" d="M96.7,317.1c0,0-3.5-0.7-8.7,9.8c-5.2,10.6-7.8,46.2-8.4,48c-0.7,1.8-4.6,10.5-4.6,10.5
				s-7.6,0.6-7.7,0.2c-0.1-0.5-4.8-8.8-5.1-11.7c-0.4-2.9,8.3-40.7,8.3-41.4c0.1-0.7,2.5-9.6,5.9-12.8
				C79.8,316.5,96.3,317.1,96.7,317.1z"/>
			<path id="XMLID_541_" class="st2" d="M96.7,317.1c0,0-3.5-0.7-8.7,9.8c-5.2,10.6-7.8,46.2-8.4,48c-0.7,1.8-4.6,10.5-4.6,10.5
				s-7.6,0.6-7.7,0.2c-0.1-0.5-4.8-8.8-5.1-11.7c-0.4-2.9,8.3-40.7,8.3-41.4c0.1-0.7,2.5-9.6,5.9-12.8
				C79.8,316.5,96.3,317.1,96.7,317.1z"/>
		</g>
		<path id="XMLID_539_" class="st3" d="M98.8,326c-10-5.3-22.6-14.4-28.3,6.5c0.7-5.7,3.3-10.2,5.9-13.8c2.6-3.6,7-4.1,15.1-4.3
			c8.2-0.2,9.9-0.6,13.2,1.6c3.3,2.2,12.2,8.5,10.7,9.3C113.9,326,98.8,326,98.8,326z"/>
		<path id="XMLID_538_" class="st1" d="M107.5,318.1c-3.5,1.1-8.2,2.2-14.4,18.9c-6.2,16.7,1.7,65.9,1.6,75.7
			c-0.2,9.8-4.5,15.8-4.7,23.6c-0.2,7.8,6.2,12.1,10.9,13.4c4.7,1.3,52.2,1.9,59.6-4.5s8.5-15.4,8.5-20.6c0-5.2,3.5-66.4,0.4-82.7
			C163.2,308.9,135.5,317,107.5,318.1z"/>
		<path id="XMLID_537_" class="st0" d="M118.6,346.7c-3.8,0.5-7,10.4-8.7,17.1c-1.7,6.7-1.7,54-0.2,58.6c1.6,4.6,5.2,6.1,13.6,8.2
			c8.3,2,43.6-4,45.9-6c2.3-2,5.5-61.3,2.7-66.8c-2.8-5.5-21-11.6-29-11.5C134.9,346.5,118.6,346.7,118.6,346.7z"/>
		<path id="XMLID_536_" class="st4" d="M156,432.3c0.8-5.3,4.6-22.5,4.4-50.2c0.6,0,9.1-0.4,9.1-0.4c-1,14.6-0.8,35.9-4.4,49.6
			L156,432.3z"/>
		<path id="XMLID_535_" class="st5" d="M158.1,360.5c2.5,10.3,1.4,17.6,2.9,25.8c0.6,3.3,4.7,6.8,5.1,6.7c0.4-0.1,3.2-7.1,3.3-7.7
			c0.4-4.2,0-13.5-1.9-25.6L158.1,360.5z"/>
		<path id="XMLID_532_" class="st6" d="M160.2,372h8.8c0.5,0,0.9,0.4,0.9,0.8l0.2,8.2c0,0.5-0.4,0.8-0.9,0.8h-8.8
			c-0.5,0-0.9-0.4-0.9-0.8l-0.2-8.2C159.3,372.3,159.7,372,160.2,372L160.2,372z M160.9,372.8c-0.4,0-0.7,0.3-0.7,0.7l0.2,6.8
			c0,0.4,0.3,0.7,0.7,0.7h7.3c0.4,0,0.7-0.3,0.7-0.7l-0.2-6.8c0-0.4-0.3-0.7-0.7-0.7H160.9z"/>
		<path id="XMLID_531_" class="st4" d="M123.3,433.2c0.9-5.3,4.8-21.6,5.4-49.2c0.6,0,9.1-0.4,9.1-0.4c-1.5,14.6-1.8,35.9-5.8,49.6
			L123.3,433.2z"/>
		<path id="XMLID_530_" class="st5" d="M126.9,362.4c2.2,10.3,0.9,17.6,2.2,25.8c0.5,3.3,4.5,6.8,4.9,6.7c0.5-0.1,3.4-7.1,3.5-7.7
			c0.6-4.2,0.3-13.5-1.2-25.6L126.9,362.4z"/>
		<path id="XMLID_529_" class="st7" d="M96.1,330c0.2,1.8,2.1-5.2,10.7-1.3c8.5,3.9,4.3,23.3,10.3,33.1c6.1,10,48.1,14,54.7-4.1
			c2.5-6.9-1.6-25.8-6.2-31.7c-4.7-5.9-7.1-7.7-19.3-9.2C133.3,315.3,93.8,310.4,96.1,330z"/>
		<path id="XMLID_528_" class="st5" d="M96.3,329.7c1.8-0.5,2.3-7.7,10.9-3.8c8.5,3.9,5.4,24.5,11.5,34.3c6.1,10,46.4,13.8,53-4.3
			c2.5-6.9-1.6-25.8-6.2-31.7c-4.7-5.9-7.1-7.7-19.3-9.2C133.1,313.5,95.8,309.9,96.3,329.7z"/>
		<path id="XMLID_525_" class="st6" d="M128.7,373.8h8.8c0.5,0,0.9,0.4,0.9,0.8v8.2c0,0.5-0.4,0.8-0.9,0.8h-8.8
			c-0.5,0-0.9-0.4-0.9-0.8v-8.2C127.8,374.2,128.2,373.8,128.7,373.8L128.7,373.8z M129.4,374.7c-0.4,0-0.7,0.3-0.7,0.7v6.8
			c0,0.4,0.3,0.7,0.7,0.7h7.3c0.4,0,0.7-0.3,0.7-0.7v-6.8c0-0.4-0.3-0.7-0.7-0.7H129.4z"/>
		<path id="XMLID_524_" class="st8" d="M91.2,441.8c2,4.3,6.4,6.9,9.8,7.8c4.7,1.3,52.2,1.9,59.6-4.5c5-4.3,7.1-9.8,8-14.5
			c-2.4-3.5-1.5-0.8-5.5,0.3c-4.1,1.1-41.2,2.4-45.6,2.4c-4.5,0-10.9,5.9-16.9,8C97.5,442.4,94,442.2,91.2,441.8z"/>
		<g id="XMLID_522_">
			<path id="XMLID_523_" class="st9" d="M171.8,357.8c0.9-2.5,1-6.6,0.4-11.1c-0.7-8.2-3.6-18.4-6.8-22.5c-3.2-4.1-5.4-6.2-10.6-7.6
				c-2.3-2.3-6.6-5.5-8.6-7c-3.1-2.3-4.8-1.9-12.8-2c-1.1,0-2.2,0-3.2,0c16.2,12.9,27,35.8,27,61.9c0,40.3-25.6,72.9-57.3,72.9
				c-3.2,0-6.3-0.3-9.3-1c0.2,0.1,0.3,0.1,0.4,0.2c0,0.1,0.1,0.2,0.1,0.2c0,0,0,0,0,0c0,0,0,0,0,0.1c0.1,0.2,0.2,0.5,0.4,0.7
				c0,0,0,0,0,0c0.1,0.2,0.3,0.4,0.4,0.7c0,0,0.1,0.1,0.1,0.1c0.3,0.4,0.6,0.9,0.9,1.2c0,0,0.1,0.1,0.1,0.1c0.2,0.2,0.3,0.4,0.5,0.5
				c0,0,0,0,0,0c0.2,0.2,0.4,0.4,0.6,0.5c0,0,0.1,0.1,0.1,0.1c0.2,0.2,0.3,0.3,0.5,0.4c0,0,0,0,0.1,0.1c0.2,0.2,0.4,0.3,0.6,0.5
				c0,0,0.1,0.1,0.1,0.1c0.2,0.1,0.3,0.2,0.5,0.4c0,0,0.1,0,0.1,0.1c0.2,0.1,0.4,0.3,0.6,0.4c0,0,0.1,0,0.1,0.1
				c0.2,0.1,0.3,0.2,0.5,0.3c0,0,0.1,0,0.1,0.1c0.2,0.1,0.4,0.2,0.6,0.3c0,0,0.1,0,0.1,0c0.2,0.1,0.4,0.2,0.5,0.2c0,0,0.1,0,0.1,0.1
				c0.2,0.1,0.4,0.2,0.6,0.2c0,0,0,0,0.1,0c0.2,0.1,0.4,0.1,0.5,0.2c0.1,0,0.1,0,0.2,0c0.2,0.1,0.4,0.1,0.6,0.2
				c4.7,1.3,52.2,1.9,59.6-4.5c0.4-0.4,0.8-0.7,1.2-1.1c0.1-0.1,0.2-0.2,0.3-0.3c0.3-0.3,0.7-0.7,1-1.1c0,0,0,0,0.1-0.1
				c0.3-0.4,0.6-0.8,0.9-1.2c0.1-0.1,0.1-0.2,0.2-0.3c0.3-0.4,0.5-0.7,0.7-1.1c0,0,0.1-0.1,0.1-0.1c0.3-0.4,0.5-0.8,0.7-1.2
				c0.1-0.1,0.1-0.2,0.2-0.3c0.2-0.4,0.4-0.7,0.5-1.1c0-0.1,0.1-0.1,0.1-0.2c0.2-0.4,0.4-0.8,0.5-1.2c0-0.1,0.1-0.2,0.1-0.3
				c0.1-0.3,0.3-0.7,0.4-1c0-0.1,0.1-0.2,0.1-0.2c0.1-0.4,0.2-0.8,0.4-1.2c0-0.1,0.1-0.2,0.1-0.3c0.1-0.3,0.2-0.7,0.2-1
				c0-0.1,0-0.2,0.1-0.3c0.1-0.3,0.1-0.7,0.2-1c0,0,0,0,0,0c0.4-2.3,0.5-4.4,0.5-6C171.3,422.6,174.5,363.3,171.8,357.8z"/>
		</g>
	</g>
	<text id="XMLID_520_" transform="matrix(1 0 0 1 -13.066 496.6799)"><tspan x="0" y="0" class="st10 st11 st12">The</tspan><tspan x="0" y="44.4" class="st10 st11 st12">Traveling Maude</tspan></text>
</g>
</svg>
