<svg version="1" xmlns="http://www.w3.org/2000/svg" width="533.333" height="533.333" viewBox="0 0 400.000000 400.000000"><path d="M220.4 9.9c-8.8 1.4-13.8 4.3-19 11-2.6 3.4-5.7 6.3-6.8 6.6-11.5 2.3-18.5 3.9-21.5 4.9-3.3 1.2-3.9 1.1-7.4-1.1-6.7-4.2-12.3-4.8-35.9-3.6-25.1 1.3-30 2.5-36.4 8.6-5.6 5.3-12.7 17.9-15.9 28-4.1 13-23.5 103.3-25.1 116.8-.8 7 .1 9.8 8.2 26.2 5.8 11.6 6.4 13.3 6.4 19 0 3.4.5 12.5 1 20.2 2.6 35.4 6.8 61.4 12 73.9 6.8 16.1 21.5 30.6 44 43.4 3.6 2 6.2 4.3 7.4 6.7 2.9 5.3 10.9 12.3 18 15.6 5.7 2.7 8 3.1 20.8 3.9 39.2 2.6 100-.4 126.3-6.1 5-1 11.4-3.1 14.2-4.5 6.9-3.3 14.4-11.8 19.4-21.9 4.6-9.5 6.7-17.2 7.9-29.7.5-5.1 1.6-13.5 2.4-18.5 4.8-29.8 9-123.4 6.6-150.3-.6-7.4-1.1-14-1-14.5 1.9-20.8.6-38-4.5-58.2-6.4-25.5-17.5-42.5-32.3-49.3-10-4.7-10.2-4.8-21.8-14.3C271 9.4 271.5 9.6 246.5 9.3c-11.5-.1-23.3.2-26.1.6zm-77.1 52c-.3 4.6-1.8 9.9-4.9 17.6-8.2 20.9-10 35-9.1 75 .6 26.4 2.2 48.8 7.2 98.9 3.9 38.6 3.4 46.7-3.9 71.3-1.9 6.5-4 14.8-4.7 18.5l-1.2 6.7-3.1-1.6c-14.3-7.2-25-22-31.1-42.8-4.7-16.2-5.9-28.6-6-59v-28l6.7-14.5 6.8-14.5 3-26c8-68.9 13.5-94 24.4-111.3l2.7-4.3 6.8 3.7 6.8 3.7-.4 6.6z"/></svg>