<?xml version="1.0" encoding="utf-8"?>
<!-- Generator: Adobe Illustrator 19.0.0, SVG Export Plug-In . SVG Version: 6.00 Build 0)  -->
<svg version="1.1" id="Layer_1" xmlns="http://www.w3.org/2000/svg" xmlns:xlink="http://www.w3.org/1999/xlink" x="0px" y="0px"
	 viewBox="194 -104 1000 1000" style="enable-background:new 194 -104 1000 1000;" xml:space="preserve">
<style type="text/css">
	.st0{fill:#424242;}
</style>
<g>
	<path class="st0" d="M966.1-94C888.8-94,834-31.4,834,46c0,14.5,2.2,28.5,6.3,41.7L577.5,242.2c-32-34.6-77.7-56.2-128.5-56.2
		c-96.7,0-175,78.3-175,175s78.3,175,175,175c29.7,0,57.6-7.4,82.1-20.4l174.5,174.5c-7.5,17.1-11.6,36-11.6,55.9
		c0,77.2,62.7,140,140,140s140-62.8,140-140c0-77.4-62.7-140-140-140c-21.2,0-41.3,4.7-59.3,13.1L601.8,446.3
		C615.9,421,624,392,624,361c0-13.6-1.5-26.8-4.5-39.5L898.7,164c21.7,13.9,47.6,22,75.3,22c77.3,0,140-62.8,140-140
		C1114-31.4,1043.4-94,966.1-94z"/>
</g>
</svg>
